{
.appVersion = "1342";
DisplayStrings = (
"abcdefghijklmno\012pqrstuvwxyz",
"ABCDEFGHIJKLMN\012OPQRSTUVWXYZ",
dfhkl,
"/Scedilla f¶gjpqy"
);
copyright = "Copyright 2004-2021 The Cherish Project Authors (https://github.com/googlefonts/cherish)";
customParameters = (
{
name = licenseURL;
value = "https://scripts.sil.org/OFL";
},
{
name = license;
value = "This Font Software is licensed under the SIL Open Font License, Version 1.1. This license is available with a FAQ at: https://scripts.sil.org/OFL";
},
{
name = vendorID;
value = GOOG;
},
{
name = fsType;
value = (
);
},
{
name = glyphOrder;
value = (
.notdef,
CR,
NULL,
space,
nbspace
);
},
{
name = "Use Typo Metrics";
value = 1;
},
{
name = Axes;
value = (
{
Name = Weight;
Tag = wght;
}
);
}
);
date = "2021-06-30 00:38:23 +0000";
designer = "Robert E. Leuschke";
designerURL = www.typesetit.com;
disablesNiceNames = 1;
familyName = Cherish;
featurePrefixes = (
{
automatic = 1;
code = "languagesystem DFLT dflt;\012\012languagesystem latn dflt;\012languagesystem latn AZE;\012languagesystem latn CRT;\012languagesystem latn KAZ;\012languagesystem latn TAT;\012languagesystem latn TRK;\012languagesystem latn ROM;\012languagesystem latn MOL;\012languagesystem latn CAT;\012";
name = Languagesystems;
}
);
features = (
{
automatic = 1;
code = "feature locl;\012feature sups;\012feature frac;\012feature ordn;\012feature calt;\012";
name = aalt;
},
{
automatic = 1;

glyphs = (
{
color = 3;
glyphname = .notdef;
lastChange = "2021-04-23 03:36:15 +0000";
layers = (
{
layerId = "E8487A59-2E36-4739-8DF2-414A9818920F";
paths = (
{
closed = 1;
nodes = (
"320 0 LINE",
"320 534 LINE",
"50 534 LINE",
"50 0 LINE"
);
},
{
closed = 1;
nodes = (
"183 236 LINE",
"263 53 LINE",
"103 53 LINE"
);
},
{
closed = 1;
nodes = (
"94 439 LINE",
"167 271 LINE",
"94 106 LINE"
);
},
{
closed = 1;
nodes = (
"198 271 LINE",
"272 441 LINE",
"272 104 LINE"
);
},
{
closed = 1;
nodes = (
"106 480 LINE",
"259 480 LINE",
"183 307 LINE"
);
}
);
width = 370;
}
);
note = .notdef;
},
{
color = 3;
glyphname = A;
lastChange = "2021-06-30 01:37:04 +0000";
layers = (
{
hints = (
{
horizontal = 1;
place = "{222, 28}";
type = Stem;
},
{
horizontal = 1;
place = "{606, 27}";
type = Stem;
},
{
horizontal = 1;
place = "{606, 24}";
type = Stem;
},
{
horizontal = 1;
place = "{605, 30}";
type = Stem;
},
{
horizontal = 1;
place = "{225, 25}";
type = Stem;
},
{
horizontal = 1;
place = "{228, 23}";
type = Stem;
}
);
layerId = "E8487A59-2E36-4739-8DF2-414A9818920F";
paths = (
{
closed = 1;
nodes = (
"894 623 OFFCURVE",
"845 628 OFFCURVE",
"845 628 CURVE",
"846 630 OFFCURVE",
"822 631 OFFCURVE",
"804 631 CURVE",
"811 651 OFFCURVE",
"792 652 OFFCURVE",
"766 643 CURVE",
"761 642 OFFCURVE",
"755 637 OFFCURVE",
"748 631 CURVE",
"742 631 LINE SMOOTH",
"739 631 OFFCURVE",
"737 631 OFFCURVE",
"735 629 CURVE",
"731 631 OFFCURVE",
"726 633 OFFCURVE",
"722 633 CURVE SMOOTH",
"720 633 OFFCURVE",
"717 632 OFFCURVE",
"714 630 CURVE",
"707 631 OFFCURVE",
"696 636 OFFCURVE",
"687 633 CURVE",
"681 634 OFFCURVE",
"675 635 OFFCURVE",
"669 635 CURVE SMOOTH",
"664 635 OFFCURVE",
"660 634 OFFCURVE",
"654 633 CURVE",
"648 634 OFFCURVE",
"640 636 OFFCURVE",
"632 632 CURVE",
"631 631 LINE",
"609 634 OFFCURVE",
"461 615 OFFCURVE",
"443 599 CURVE",
"442 599 LINE SMOOTH",
"416 599 OFFCURVE",
"333 561 OFFCURVE",
"307 553 CURVE",
"305 551 OFFCURVE",
"265 531 OFFCURVE",
"261 529 CURVE SMOOTH",
"239 516 OFFCURVE",
"216 505 OFFCURVE",
"194 490 CURVE SMOOTH",
"121 438 OFFCURVE",
"38 356 OFFCURVE",
"5 283 CURVE SMOOTH",
"-1 270 OFFCURVE",
"-8 250 OFFCURVE",
"0 242 CURVE",
"12 235 LINE",
"18 234 OFFCURVE",
"29 156 OFFCURVE",
"29 177 CURVE SMOOTH",
"29 340 OFFCURVE",
"262 550 OFFCURVE",
"455 583 CURVE",
"462 593 OFFCURVE",
"529 592 OFFCURVE",
"546 604 CURVE",
"591 606 OFFCURVE",
"668 605 OFFCURVE",
"706 605 CURVE SMOOTH",
"723 605 LINE",
"694 571 LINE SMOOTH",
"682 556 OFFCURVE",
"671 543 OFFCURVE",
"659 529 CURVE SMOOTH",
"652 521 OFFCURVE",
"564 438 OFFCURVE",
"559 430 CURVE",
"554 429 OFFCURVE",
"509 380 OFFCURVE",
"501 375 CURVE",
"473 353 OFFCURVE",
"462 331 OFFCURVE",
"435 309 CURVE SMOOTH",
"421 296 OFFCURVE",
"422 289 OFFCURVE",
"409 277 CURVE",
"407 276 OFFCURVE",
"402 268 OFFCURVE",
"398 266 CURVE SMOOTH",
"389 261 OFFCURVE",
"381 255 OFFCURVE",
"372 249 CURVE",
"371 249 LINE SMOOTH",
"367 249 OFFCURVE",
"352 250 OFFCURVE",
"350 250 CURVE SMOOTH",
"348 250 OFFCURVE",
"315 245 OFFCURVE",
"312 245 CURVE SMOOTH",
"310 245 OFFCURVE",
"311 247 OFFCURVE",
"309 248 CURVE",
"292 220 LINE",
"290 213 OFFCURVE",
"289 206 OFFCURVE",
"289 200 CURVE",
"296 197 LINE",
"297 198 OFFCURVE",
"314 197 OFFCURVE",
"315 197 CURVE SMOOTH",
"318 197 OFFCURVE",
"324 204 OFFCURVE",
"326 204 CURVE SMOOTH",
"329 204 OFFCURVE",
"326 203 OFFCURVE",
"328 203 CURVE SMOOTH",
"330 203 LINE",
"302 179 OFFCURVE",
"298 165 OFFCURVE",
"267 138 CURVE SMOOTH",
"156 42 LINE SMOOTH",
"78 -25 OFFCURVE",
"94 -5 OFFCURVE",
"32 -48 CURVE",
"18 -55 OFFCURVE",
"-27 -89 OFFCURVE",
"-41 -95 CURVE SMOOTH",
"-87 -119 OFFCURVE",
"-123 -126 OFFCURVE",
"-170 -144 CURVE SMOOTH",
"-182 -149 OFFCURVE",
"-202 -149 OFFCURVE",
"-212 -156 CURVE",
"-221 -156 OFFCURVE",
"-229 -161 OFFCURVE",
"-237 -162 CURVE SMOOTH",
"-253 -166 OFFCURVE",
"-271 -168 OFFCURVE",
"-286 -173 CURVE",
"-286 -172 OFFCURVE",
"-287 -172 OFFCURVE",
"-288 -171 CURVE",
"-289 -174 OFFCURVE",
"-304 -172 OFFCURVE",
"-308 -174 CURVE",
"-310 -173 LINE",
"-326 -176 LINE",
"-331 -176 OFFCURVE",
"-336 -175 OFFCURVE",
"-340 -174 CURVE",
"-358 -173 OFFCURVE",
"-378 -175 OFFCURVE",
"-390 -166 CURVE SMOOTH",
"-396 -162 OFFCURVE",
"-398 -155 OFFCURVE",
"-402 -150 CURVE",
"-403 -146 LINE",
"-407 -148 LINE",
"-408 -153 OFFCURVE",
"-397 -164 OFFCURVE",
"-396 -169 CURVE",
"-386 -175 LINE SMOOTH",
"-379 -179 OFFCURVE",
"-371 -183 OFFCURVE",
"-362 -186 CURVE SMOOTH",
"-359 -187 OFFCURVE",
"-357 -188 OFFCURVE",
"-354 -188 CURVE SMOOTH",
"-353 -188 LINE",
"-347 -190 LINE SMOOTH",
"-341 -192 OFFCURVE",
"-315 -196 OFFCURVE",
"-309 -193 CURVE",
"-306 -193 LINE",
"-289 -195 LINE",
"-285 -194 OFFCURVE",
"-280 -195 OFFCURVE",
"-275 -194 CURVE SMOOTH",
"-243 -187 LINE",
"-237 -187 OFFCURVE",
"-213 -182 OFFCURVE",
"-209 -179 CURVE",
"-201 -180 OFFCURVE",
"-194 -176 OFFCURVE",
"-186 -174 CURVE SMOOTH",
"-177 -172 OFFCURVE",
"-168 -169 OFFCURVE",
"-159 -166 CURVE SMOOTH",
"-153 -164 OFFCURVE",
"-147 -162 OFFCURVE",
"-141 -161 CURVE",
"-122 -152 LINE",
"-117 -152 OFFCURVE",
"-100 -143 OFFCURVE",
"-94 -140 CURVE SMOOTH",
"-69 -128 OFFCURVE",
"-43 -115 OFFCURVE",
"-19 -100 CURVE SMOOTH",
"43 -61 OFFCURVE",
"-2 -95 OFFCURVE",
"81 -42 CURVE SMOOTH",
"105 -27 OFFCURVE",
"132 -3 OFFCURVE",
"162 18 CURVE SMOOTH",
"183 33 OFFCURVE",
"210 55 OFFCURVE",
"220 63 CURVE SMOOTH",
"227 69 OFFCURVE",
"235 75 OFFCURVE",
"242 82 CURVE SMOOTH",
"274 112 LINE",
"285 119 LINE",
"301 134 LINE",
"315 145 LINE SMOOTH",
"327 155 OFFCURVE",
"338 166 OFFCURVE",
"350 176 CURVE SMOOTH",
"374 196 LINE SMOOTH",
"384 204 OFFCURVE",
"389 213 OFFCURVE",
"399 222 CURVE",
"503 222 LINE SMOOTH",
"506 222 OFFCURVE",
"510 225 OFFCURVE",
"512 225 CURVE",
"513 226 LINE",
"515 226 OFFCURVE",
"516 224 OFFCURVE",
"518 224 CURVE SMOOTH",
"519 224 LINE SMOOTH",
"526 224 OFFCURVE",
"541 225 OFFCURVE",
"556 225 CURVE",
"558 213 OFFCURVE",
"552 211 OFFCURVE",
"548 197 CURVE SMOOTH",
"545 187 OFFCURVE",
"540 167 OFFCURVE",
"535 159 CURVE",
"536 152 LINE SMOOTH",
"537 144 OFFCURVE",
"526 113 OFFCURVE",
"528 104 CURVE",
"528 102 OFFCURVE",
"529 100 OFFCURVE",
"530 98 CURVE",
"531 100 OFFCURVE",
"531 103 OFFCURVE",
"531 105 CURVE",
"532 106 LINE",
"532 105 OFFCURVE",
"532 105 OFFCURVE",
"533 105 CURVE",
"533 99 OFFCURVE",
"526 72 OFFCURVE",
"523 67 CURVE",
"524 66 LINE",
"523 66 LINE",
"521 76 OFFCURVE",
"525 83 OFFCURVE",
"525 93 CURVE",
"524 93 LINE",
"524 89 OFFCURVE",
"521 75 OFFCURVE",
"520 70 CURVE SMOOTH",
"517 46 OFFCURVE",
"527 33 OFFCURVE",
"531 12 CURVE SMOOTH",
"534 -7 OFFCURVE",
"543 5 OFFCURVE",
"553 -7 CURVE SMOOTH",
"556 -11 OFFCURVE",
"559 -16 OFFCURVE",
"562 -18 CURVE SMOOTH",
"569 -24 OFFCURVE",
"580 -26 OFFCURVE",
"583 -37 CURVE",
"587 -37 OFFCURVE",
"597 -51 OFFCURVE",
"610 -48 CURVE SMOOTH",
"622 -46 OFFCURVE",
"664 6 OFFCURVE",
"671 19 CURVE SMOOTH",
"674 25 OFFCURVE",
"692 57 OFFCURVE",
"694 58 CURVE",
"694 59 OFFCURVE",
"733 120 OFFCURVE",
"742 138 CURVE",
"736 139 LINE",
"732 138 OFFCURVE",
"727 125 OFFCURVE",
"724 121 CURVE",
"722 120 OFFCURVE",
"714 109 OFFCURVE",
"714 107 CURVE",
"710 105 OFFCURVE",
"686 64 OFFCURVE",
"676 53 CURVE SMOOTH",
"674 50 OFFCURVE",
"672 47 OFFCURVE",
"669 44 CURVE",
"664 36 OFFCURVE",
"658 30 OFFCURVE",
"653 23 CURVE SMOOTH",
"637 1 OFFCURVE",
"621 -17 OFFCURVE",
"596 -21 CURVE SMOOTH",
"585 -23 OFFCURVE",
"577 -25 OFFCURVE",
"574 -6 CURVE SMOOTH",
"572 2 OFFCURVE",
"573 11 OFFCURVE",
"573 19 CURVE SMOOTH",
"576 76 OFFCURVE",
"596 158 OFFCURVE",
"619 229 CURVE",
"623 229 OFFCURVE",
"633 228 OFFCURVE",
"639 228 CURVE",
"642 233 LINE",
"648 234 OFFCURVE",
"657 236 OFFCURVE",
"659 236 CURVE SMOOTH",
"661 236 OFFCURVE",
"660 233 OFFCURVE",
"662 233 CURVE",
"664 236 LINE",
"670 236 OFFCURVE",
"678 239 OFFCURVE",
"681 239 CURVE SMOOTH",
"683 239 OFFCURVE",
"682 237 OFFCURVE",
"684 237 CURVE SMOOTH",
"690 237 OFFCURVE",
"678 247 OFFCURVE",
"672 247 CURVE SMOOTH",
"670 247 OFFCURVE",
"670 249 OFFCURVE",
"669 249 CURVE SMOOTH",
"662 250 OFFCURVE",
"651 251 OFFCURVE",
"642 251 CURVE SMOOTH",
"626 251 LINE",
"642 299 OFFCURVE",
"658 340 OFFCURVE",
"670 362 CURVE SMOOTH",
"673 368 OFFCURVE",
"706 434 OFFCURVE",
"711 440 CURVE SMOOTH",
"714 444 OFFCURVE",
"716 450 OFFCURVE",
"719 454 CURVE SMOOTH",
"731 472 OFFCURVE",
"758 505 OFFCURVE",
"771 521 CURVE SMOOTH",
"776 527 OFFCURVE",
"794 546 OFFCURVE",
"795 551 CURVE",
"798 552 OFFCURVE",
"810 566 OFFCURVE",
"811 569 CURVE",
"817 570 OFFCURVE",
"821 577 OFFCURVE",
"827 583 CURVE",
"835 580 OFFCURVE",
"842 578 OFFCURVE",
"848 583 CURVE SMOOTH"
);
},
{
closed = 1;
nodes = (
"661 475 LINE",
"654 461 LINE",
"640 439 OFFCURVE",
"627 410 OFFCURVE",
"615 385 CURVE SMOOTH",
"609 371 OFFCURVE",
"605 357 OFFCURVE",
"599 343 CURVE SMOOTH",
"596 338 OFFCURVE",
"593 333 OFFCURVE",
"591 327 CURVE SMOOTH",
"581 304 OFFCURVE",
"571 277 OFFCURVE",
"563 252 CURVE",
"548 253 OFFCURVE",
"533 254 OFFCURVE",
"532 251 CURVE",
"531 250 LINE",
"439 250 LINE",
"441 252 LINE",
"470 284 LINE",
"475 291 LINE SMOOTH",
"479 297 OFFCURVE",
"488 300 OFFCURVE",
"493 304 CURVE",
"652 467 LINE SMOOTH",
"656 472 OFFCURVE",
"661 476 OFFCURVE",
"665 480 CURVE"
);
}
);
width = 731;
}
);
note = A;
unicode = 0041;
},
{
color = 3;
glyphname = Aacute;
lastChange = "2021-04-23 03:36:15 +0000";
layers = (
{
hints = (
{
horizontal = 1;
place = "{222, 28}";
type = Stem;
},
{
horizontal = 1;
place = "{606, 27}";
type = Stem;
},
{
horizontal = 1;
place = "{606, 24}";
type = Stem;
},
{
horizontal = 1;
place = "{605, 30}";
type = Stem;
},
{
horizontal = 1;
place = "{225, 25}";
type = Stem;
},
{
horizontal = 1;
place = "{228, 23}";
type = Stem;
}
);
layerId = "E8487A59-2E36-4739-8DF2-414A9818920F";
paths = (
{
closed = 1;
nodes = (
"894 623 OFFCURVE",
"845 628 OFFCURVE",
"845 628 CURVE",
"846 630 OFFCURVE",
"822 631 OFFCURVE",
"804 631 CURVE",
"811 651 OFFCURVE",
"792 652 OFFCURVE",
"766 643 CURVE",
"761 642 OFFCURVE",
"755 637 OFFCURVE",
"748 631 CURVE",
"742 631 LINE SMOOTH",
"739 631 OFFCURVE",
"737 631 OFFCURVE",
"735 629 CURVE",
"731 631 OFFCURVE",
"726 633 OFFCURVE",
"722 633 CURVE SMOOTH",
"720 633 OFFCURVE",
"717 632 OFFCURVE",
"714 630 CURVE",
"707 631 OFFCURVE",
"696 636 OFFCURVE",
"687 633 CURVE",
"681 634 OFFCURVE",
"675 635 OFFCURVE",
"669 635 CURVE SMOOTH",
"664 635 OFFCURVE",
"660 634 OFFCURVE",
"654 633 CURVE",
"648 634 OFFCURVE",
"640 636 OFFCURVE",
"632 632 CURVE",
"631 631 LINE",
"609 634 OFFCURVE",
"461 615 OFFCURVE",
"443 599 CURVE",
"442 599 LINE SMOOTH",
"416 602 OFFCURVE",
"333 561 OFFCURVE",
"307 553 CURVE",
"305 551 OFFCURVE",
"265 531 OFFCURVE",
"261 529 CURVE SMOOTH",
"239 516 OFFCURVE",
"216 505 OFFCURVE",
"194 490 CURVE SMOOTH",
"121 438 OFFCURVE",
"38 356 OFFCURVE",
"5 283 CURVE SMOOTH",
"-1 270 OFFCURVE",
"-8 250 OFFCURVE",
"0 242 CURVE",
"12 235 LINE",
"18 234 OFFCURVE",
"29 156 OFFCURVE",
"29 177 CURVE SMOOTH",
"29 340 OFFCURVE",
"262 550 OFFCURVE",
"455 583 CURVE",
"462 593 OFFCURVE",
"529 592 OFFCURVE",
"546 604 CURVE",
"591 606 OFFCURVE",
"668 605 OFFCURVE",
"706 605 CURVE SMOOTH",
"723 605 LINE",
"694 571 LINE SMOOTH",
"681 557 OFFCURVE",
"671 543 OFFCURVE",
"659 529 CURVE SMOOTH",
"652 521 OFFCURVE",
"564 438 OFFCURVE",
"559 430 CURVE",
"554 429 OFFCURVE",
"509 380 OFFCURVE",
"501 375 CURVE",
"473 353 OFFCURVE",
"462 331 OFFCURVE",
"435 309 CURVE SMOOTH",
"421 296 OFFCURVE",
"422 289 OFFCURVE",
"409 277 CURVE",
"407 276 OFFCURVE",
"402 268 OFFCURVE",
"398 266 CURVE SMOOTH",
"389 261 OFFCURVE",
"381 255 OFFCURVE",
"372 249 CURVE",
"371 249 LINE SMOOTH",
"367 249 OFFCURVE",
"352 250 OFFCURVE",
"350 250 CURVE SMOOTH",
"348 250 OFFCURVE",
"315 245 OFFCURVE",
"312 245 CURVE SMOOTH",
"310 245 OFFCURVE",
"311 247 OFFCURVE",
"309 248 CURVE",
"292 220 LINE",
"290 213 OFFCURVE",
"289 206 OFFCURVE",
"289 200 CURVE",
"296 197 LINE",
"297 198 OFFCURVE",
"314 197 OFFCURVE",
"315 197 CURVE SMOOTH",
"318 197 OFFCURVE",
"324 204 OFFCURVE",
"326 204 CURVE SMOOTH",
"329 204 OFFCURVE",
"326 203 OFFCURVE",
"328 203 CURVE SMOOTH",
"330 203 LINE",
"302 179 OFFCURVE",
"299 164 OFFCURVE",
"267 138 CURVE SMOOTH",
"156 42 LINE SMOOTH",
"78 -25 OFFCURVE",
"94 -5 OFFCURVE",
"32 -48 CURVE",
"18 -55 OFFCURVE",
"-27 -89 OFFCURVE",
"-41 -95 CURVE SMOOTH",
"-87 -119 OFFCURVE",
"-123 -126 OFFCURVE",
"-170 -144 CURVE SMOOTH",
"-182 -149 OFFCURVE",
"-202 -149 OFFCURVE",
"-212 -156 CURVE",
"-221 -156 OFFCURVE",
"-229 -161 OFFCURVE",
"-237 -162 CURVE SMOOTH",
"-253 -166 OFFCURVE",
"-271 -168 OFFCURVE",
"-286 -173 CURVE",
"-286 -172 OFFCURVE",
"-287 -172 OFFCURVE",
"-288 -171 CURVE",
"-289 -174 OFFCURVE",
"-304 -172 OFFCURVE",
"-308 -174 CURVE",
"-310 -173 LINE",
"-326 -176 LINE",
"-331 -176 OFFCURVE",
"-336 -175 OFFCURVE",
"-340 -174 CURVE",
"-358 -173 OFFCURVE",
"-378 -175 OFFCURVE",
"-390 -166 CURVE SMOOTH",
"-396 -162 OFFCURVE",
"-398 -155 OFFCURVE",
"-402 -150 CURVE",
"-403 -146 LINE",
"-407 -148 LINE",
"-408 -153 OFFCURVE",
"-397 -164 OFFCURVE",
"-396 -169 CURVE",
"-386 -175 LINE SMOOTH",
"-379 -180 OFFCURVE",
"-371 -183 OFFCURVE",
"-362 -186 CURVE SMOOTH",
"-359 -187 OFFCURVE",
"-357 -189 OFFCURVE",
"-354 -188 CURVE SMOOTH",
"-353 -188 LINE",
"-347 -190 LINE SMOOTH",
"-341 -192 OFFCURVE",
"-315 -196 OFFCURVE",
"-309 -193 CURVE",
"-306 -193 LINE",
"-289 -195 LINE",
"-285 -194 OFFCURVE",
"-280 -195 OFFCURVE",
"-275 -194 CURVE SMOOTH",
"-243 -187 LINE",
"-237 -187 OFFCURVE",
"-213 -182 OFFCURVE",
"-209 -179 CURVE",
"-201 -180 OFFCURVE",
"-194 -176 OFFCURVE",
"-186 -174 CURVE SMOOTH",
"-177 -172 OFFCURVE",
"-168 -169 OFFCURVE",
"-159 -166 CURVE SMOOTH",
"-153 -164 OFFCURVE",
"-147 -162 OFFCURVE",
"-141 -161 CURVE",
"-122 -152 LINE",
"-117 -152 OFFCURVE",
"-100 -143 OFFCURVE",
"-94 -140 CURVE SMOOTH",
"-69 -128 OFFCURVE",
"-43 -115 OFFCURVE",
"-19 -100 CURVE SMOOTH",
"43 -61 OFFCURVE",
"-2 -95 OFFCURVE",
"81 -42 CURVE SMOOTH",
"105 -27 OFFCURVE",
"132 -3 OFFCURVE",
"162 18 CURVE SMOOTH",
"183 33 OFFCURVE",
"210 55 OFFCURVE",
"220 63 CURVE SMOOTH",
"227 69 OFFCURVE",
"235 75 OFFCURVE",
"242 82 CURVE SMOOTH",
"274 112 LINE",
"285 119 LINE",
"301 134 LINE",
"315 145 LINE SMOOTH",
"328 154 OFFCURVE",
"338 166 OFFCURVE",
"350 176 CURVE SMOOTH",
"374 196 LINE SMOOTH",
"384 204 OFFCURVE",
"389 213 OFFCURVE",
"399 222 CURVE",
"503 222 LINE SMOOTH",
"506 222 OFFCURVE",
"510 225 OFFCURVE",
"512 225 CURVE",
"513 226 LINE",
"515 226 OFFCURVE",
"516 224 OFFCURVE",
"518 224 CURVE SMOOTH",
"519 224 LINE SMOOTH",
"526 225 OFFCURVE",
"541 225 OFFCURVE",
"556 225 CURVE",
"558 213 OFFCURVE",
"552 211 OFFCURVE",
"548 197 CURVE SMOOTH",
"545 187 OFFCURVE",
"540 167 OFFCURVE",
"535 159 CURVE",
"536 152 LINE SMOOTH",
"536 144 OFFCURVE",
"526 113 OFFCURVE",
"528 104 CURVE",
"528 102 OFFCURVE",
"529 100 OFFCURVE",
"530 98 CURVE",
"531 100 OFFCURVE",
"531 103 OFFCURVE",
"531 105 CURVE",
"532 106 LINE",
"532 105 OFFCURVE",
"532 105 OFFCURVE",
"533 105 CURVE",
"533 99 OFFCURVE",
"526 72 OFFCURVE",
"523 67 CURVE",
"524 66 LINE",
"523 66 LINE",
"521 76 OFFCURVE",
"525 83 OFFCURVE",
"525 93 CURVE",
"524 93 LINE",
"524 89 OFFCURVE",
"521 75 OFFCURVE",
"520 70 CURVE SMOOTH",
"517 46 OFFCURVE",
"527 33 OFFCURVE",
"531 12 CURVE SMOOTH",
"534 -7 OFFCURVE",
"543 5 OFFCURVE",
"553 -7 CURVE SMOOTH",
"556 -11 OFFCURVE",
"559 -16 OFFCURVE",
"562 -18 CURVE SMOOTH",
"569 -24 OFFCURVE",
"580 -26 OFFCURVE",
"583 -37 CURVE",
"587 -37 OFFCURVE",
"597 -51 OFFCURVE",
"610 -48 CURVE SMOOTH",
"622 -46 OFFCURVE",
"664 6 OFFCURVE",
"671 19 CURVE SMOOTH",
"674 25 OFFCURVE",
"692 57 OFFCURVE",
"694 58 CURVE",
"694 59 OFFCURVE",
"733 120 OFFCURVE",
"742 138 CURVE",
"736 139 LINE",
"732 138 OFFCURVE",
"727 125 OFFCURVE",
"724 121 CURVE",
"722 120 OFFCURVE",
"714 109 OFFCURVE",
"714 107 CURVE",
"710 105 OFFCURVE",
"686 64 OFFCURVE",
"676 53 CURVE SMOOTH",
"674 50 OFFCURVE",
"672 47 OFFCURVE",
"669 44 CURVE",
"664 36 OFFCURVE",
"658 30 OFFCURVE",
"653 23 CURVE SMOOTH",
"637 1 OFFCURVE",
"621 -17 OFFCURVE",
"596 -21 CURVE SMOOTH",
"585 -23 OFFCURVE",
"577 -25 OFFCURVE",
"574 -6 CURVE SMOOTH",
"572 2 OFFCURVE",
"573 11 OFFCURVE",
"573 19 CURVE SMOOTH",
"576 76 OFFCURVE",
"596 158 OFFCURVE",
"619 229 CURVE",
"623 229 OFFCURVE",
"633 228 OFFCURVE",
"639 228 CURVE",
"642 233 LINE",
"648 234 OFFCURVE",
"657 236 OFFCURVE",
"659 236 CURVE SMOOTH",
"661 236 OFFCURVE",
"660 233 OFFCURVE",
"662 233 CURVE",
"664 236 LINE",
"670 236 OFFCURVE",
"678 239 OFFCURVE",
"681 239 CURVE SMOOTH",
"683 239 OFFCURVE",
"682 237 OFFCURVE",
"684 237 CURVE SMOOTH",
"690 237 OFFCURVE",
"678 247 OFFCURVE",
"672 247 CURVE SMOOTH",
"670 247 OFFCURVE",
"670 249 OFFCURVE",
"669 249 CURVE SMOOTH",
"662 250 OFFCURVE",
"651 251 OFFCURVE",
"642 251 CURVE SMOOTH",
"626 251 LINE",
"642 299 OFFCURVE",
"658 340 OFFCURVE",
"670 362 CURVE SMOOTH",
"673 368 OFFCURVE",
"706 434 OFFCURVE",
"711 440 CURVE SMOOTH",
"714 444 OFFCURVE",
"716 450 OFFCURVE",
"719 454 CURVE SMOOTH",
"731 472 OFFCURVE",
"758 505 OFFCURVE",
"771 521 CURVE SMOOTH",
"776 527 OFFCURVE",
"794 546 OFFCURVE",
"795 551 CURVE",
"798 552 OFFCURVE",
"810 566 OFFCURVE",
"811 569 CURVE",
"817 570 OFFCURVE",
"821 577 OFFCURVE",
"827 583 CURVE",
"835 580 OFFCURVE",
"842 578 OFFCURVE",
"848 583 CURVE SMOOTH"
);
},
{
closed = 1;
nodes = (
"661 475 LINE",
"654 461 LINE",
"640 439 OFFCURVE",
"627 410 OFFCURVE",
"615 385 CURVE SMOOTH",
"609 371 OFFCURVE",
"605 357 OFFCURVE",
"599 343 CURVE SMOOTH",
"596 338 OFFCURVE",
"593 333 OFFCURVE",
"591 327 CURVE SMOOTH",
"581 304 OFFCURVE",
"571 277 OFFCURVE",
"563 252 CURVE",
"548 253 OFFCURVE",
"533 254 OFFCURVE",
"532 251 CURVE",
"531 250 LINE",
"439 250 LINE",
"441 252 LINE",
"470 284 LINE",
"475 291 LINE SMOOTH",
"480 296 OFFCURVE",
"488 300 OFFCURVE",
"493 304 CURVE",
"652 467 LINE SMOOTH",
"656 472 OFFCURVE",
"661 476 OFFCURVE",
"665 480 CURVE"
);
},
{
closed = 1;
nodes = (
"991 750 OFFCURVE",
"991 768 OFFCURVE",
"985 786 CURVE",
"982 790 OFFCURVE",
"979 803 OFFCURVE",
"971 800 CURVE SMOOTH",
"969 799 OFFCURVE",
"968 797 OFFCURVE",
"968 795 CURVE",
"962 792 OFFCURVE",
"957 788 OFFCURVE",
"952 785 CURVE SMOOTH",
"917 765 OFFCURVE",
"887 741 OFFCURVE",
"856 715 CURVE SMOOTH",
"845 706 OFFCURVE",
"834 698 OFFCURVE",
"826 688 CURVE",
"818 674 OFFCURVE",
"824 671 OFFCURVE",
"824 671 CURVE",
"825 671 OFFCURVE",
"826 670 OFFCURVE",
"826 672 CURVE",
"830 673 OFFCURVE",
"833 673 OFFCURVE",
"837 675 CURVE SMOOTH",
"844 678 OFFCURVE",
"851 688 OFFCURVE",
"859 689 CURVE SMOOTH",
"860 689 OFFCURVE",
"862 688 OFFCURVE",
"862 690 CURVE",
"868 693 OFFCURVE",
"889 710 OFFCURVE",
"895 709 CURVE",
"895 710 OFFCURVE",
"895 713 OFFCURVE",
"896 713 CURVE SMOOTH",
"906 713 OFFCURVE",
"910 721 OFFCURVE",
"918 726 CURVE SMOOTH",
"925 730 OFFCURVE",
"933 730 OFFCURVE",
"940 734 CURVE SMOOTH",
"945 737 OFFCURVE",
"949 741 OFFCURVE",
"955 744 CURVE SMOOTH",
"965 748 OFFCURVE",
"976 739 OFFCURVE",
"986 741 CURVE",
"991 741 OFFCURVE",
"992 750 OFFCURVE",
"991 750 CURVE"
);
}
);
width = 731;
}
);
note = Aacute;
unicode = 00C1;
},
{
color = 3;
glyphname = Adieresis;
lastChange = "2021-04-23 03:36:15 +0000";
layers = (
{
hints = (
{
horizontal = 1;
place = "{222, 28}";
type = Stem;
},
{
horizontal = 1;
place = "{606, 27}";
type = Stem;
},
{
horizontal = 1;
place = "{606, 24}";
type = Stem;
},
{
horizontal = 1;
place = "{605, 30}";
type = Stem;
},
{
horizontal = 1;
place = "{225, 25}";
type = Stem;
},
{
horizontal = 1;
place = "{228, 23}";
type = Stem;
}
);
layerId = "E8487A59-2E36-4739-8DF2-414A9818920F";
paths = (
{
closed = 1;
nodes = (
"894 623 OFFCURVE",
"845 628 OFFCURVE",
"845 628 CURVE",
"846 630 OFFCURVE",
"822 631 OFFCURVE",
"804 631 CURVE",
"811 651 OFFCURVE",
"792 652 OFFCURVE",
"766 643 CURVE",
"761 642 OFFCURVE",
"755 637 OFFCURVE",
"748 631 CURVE",
"742 631 LINE SMOOTH",
"739 631 OFFCURVE",
"737 631 OFFCURVE",
"735 629 CURVE",
"731 631 OFFCURVE",
"726 633 OFFCURVE",
"722 633 CURVE SMOOTH",
"720 633 OFFCURVE",
"717 632 OFFCURVE",
"714 630 CURVE",
"707 631 OFFCURVE",
"696 636 OFFCURVE",
"687 633 CURVE",
"681 634 OFFCURVE",
"675 635 OFFCURVE",
"669 635 CURVE SMOOTH",
"664 635 OFFCURVE",
"660 634 OFFCURVE",
"654 633 CURVE",
"648 634 OFFCURVE",
"640 636 OFFCURVE",
"632 632 CURVE",
"631 631 LINE",
"609 634 OFFCURVE",
"461 615 OFFCURVE",
"443 599 CURVE",
"442 599 LINE SMOOTH",
"416 602 OFFCURVE",
"333 561 OFFCURVE",
"307 553 CURVE",
"305 551 OFFCURVE",
"265 531 OFFCURVE",
"261 529 CURVE SMOOTH",
"239 516 OFFCURVE",
"216 505 OFFCURVE",
"194 490 CURVE SMOOTH",
"121 438 OFFCURVE",
"38 356 OFFCURVE",
"5 283 CURVE SMOOTH",
"-1 270 OFFCURVE",
"-8 250 OFFCURVE",
"0 242 CURVE",
"12 235 LINE",
"18 234 OFFCURVE",
"29 156 OFFCURVE",
"29 177 CURVE SMOOTH",
"29 340 OFFCURVE",
"262 550 OFFCURVE",
"455 583 CURVE",
"462 593 OFFCURVE",
"529 592 OFFCURVE",
"546 604 CURVE",
"591 606 OFFCURVE",
"668 605 OFFCURVE",
"706 605 CURVE SMOOTH",
"723 605 LINE",
"694 571 LINE SMOOTH",
"681 557 OFFCURVE",
"671 543 OFFCURVE",
"659 529 CURVE SMOOTH",
"652 521 OFFCURVE",
"564 438 OFFCURVE",
"559 430 CURVE",
"554 429 OFFCURVE",
"509 380 OFFCURVE",
"501 375 CURVE",
"473 353 OFFCURVE",
"462 331 OFFCURVE",
"435 309 CURVE SMOOTH",
"421 296 OFFCURVE",
"422 289 OFFCURVE",
"409 277 CURVE",
"407 276 OFFCURVE",
"402 268 OFFCURVE",
"398 266 CURVE SMOOTH",
"389 261 OFFCURVE",
"381 255 OFFCURVE",
"372 249 CURVE",
"371 249 LINE SMOOTH",
"367 249 OFFCURVE",
"352 250 OFFCURVE",
"350 250 CURVE SMOOTH",
"348 250 OFFCURVE",
"315 245 OFFCURVE",
"312 245 CURVE SMOOTH",
"310 245 OFFCURVE",
"311 247 OFFCURVE",
"309 248 CURVE",
"292 220 LINE",
"290 213 OFFCURVE",
"289 206 OFFCURVE",
"289 200 CURVE",
"296 197 LINE",
"297 198 OFFCURVE",
"314 197 OFFCURVE",
"315 197 CURVE SMOOTH",
"318 197 OFFCURVE",
"324 204 OFFCURVE",
"326 204 CURVE SMOOTH",
"329 204 OFFCURVE",
"326 203 OFFCURVE",
"328 203 CURVE SMOOTH",
"330 203 LINE",
"302 179 OFFCURVE",
"299 164 OFFCURVE",
"267 138 CURVE SMOOTH",
"156 42 LINE SMOOTH",
"78 -25 OFFCURVE",
"94 -5 OFFCURVE",
"32 -48 CURVE",
"18 -55 OFFCURVE",
"-27 -89 OFFCURVE",
"-41 -95 CURVE SMOOTH",
"-87 -119 OFFCURVE",
"-123 -126 OFFCURVE",
"-170 -144 CURVE SMOOTH",
"-182 -149 OFFCURVE",
"-202 -149 OFFCURVE",
"-212 -156 CURVE",
"-221 -156 OFFCURVE",
"-229 -161 OFFCURVE",
"-237 -162 CURVE SMOOTH",
"-253 -166 OFFCURVE",
"-271 -168 OFFCURVE",
"-286 -173 CURVE",
"-286 -172 OFFCURVE",
"-287 -172 OFFCURVE",
"-288 -171 CURVE",
"-289 -174 OFFCURVE",
"-304 -172 OFFCURVE",
"-308 -174 CURVE",
"-310 -173 LINE",
"-326 -176 LINE",
"-331 -176 OFFCURVE",
"-336 -175 OFFCURVE",
"-340 -174 CURVE",
"-358 -173 OFFCURVE",
"-378 -175 OFFCURVE",
"-390 -166 CURVE SMOOTH",
"-396 -162 OFFCURVE",
"-398 -155 OFFCURVE",
"-402 -150 CURVE",
"-403 -146 LINE",
"-407 -148 LINE",
"-408 -153 OFFCURVE",
"-397 -164 OFFCURVE",
"-396 -169 CURVE",
"-386 -175 LINE SMOOTH",
"-379 -180 OFFCURVE",
"-371 -183 OFFCURVE",
"-362 -186 CURVE SMOOTH",
"-359 -187 OFFCURVE",
"-357 -189 OFFCURVE",
"-354 -188 CURVE SMOOTH",
"-353 -188 LINE",
"-347 -190 LINE SMOOTH",
"-341 -192 OFFCURVE",
"-315 -196 OFFCURVE",
"-309 -193 CURVE",
"-306 -193 LINE",
"-289 -195 LINE",
"-285 -194 OFFCURVE",
"-280 -195 OFFCURVE",
"-275 -194 CURVE SMOOTH",
"-243 -187 LINE",
"-237 -187 OFFCURVE",
"-213 -182 OFFCURVE",
"-209 -179 CURVE",
"-201 -180 OFFCURVE",
"-194 -176 OFFCURVE",
"-186 -174 CURVE SMOOTH",
"-177 -172 OFFCURVE",
"-168 -169 OFFCURVE",
"-159 -166 CURVE SMOOTH",
"-153 -164 OFFCURVE",
"-147 -162 OFFCURVE",
"-141 -161 CURVE",
"-122 -152 LINE",
"-117 -152 OFFCURVE",
"-100 -143 OFFCURVE",
"-94 -140 CURVE SMOOTH",
"-69 -128 OFFCURVE",
"-43 -115 OFFCURVE",
"-19 -100 CURVE SMOOTH",
"43 -61 OFFCURVE",
"-2 -95 OFFCURVE",
"81 -42 CURVE SMOOTH",
"105 -27 OFFCURVE",
"132 -3 OFFCURVE",
"162 18 CURVE SMOOTH",
"183 33 OFFCURVE",
"210 55 OFFCURVE",
"220 63 CURVE SMOOTH",
"227 69 OFFCURVE",
"235 75 OFFCURVE",
"242 82 CURVE SMOOTH",
"274 112 LINE",
"285 119 LINE",
"301 134 LINE",
"315 145 LINE SMOOTH",
"328 154 OFFCURVE",
"338 166 OFFCURVE",
"350 176 CURVE SMOOTH",
"374 196 LINE SMOOTH",
"384 204 OFFCURVE",
"389 213 OFFCURVE",
"399 222 CURVE",
"503 222 LINE SMOOTH",
"506 222 OFFCURVE",
"510 225 OFFCURVE",
"512 225 CURVE",
"513 226 LINE",
"515 226 OFFCURVE",
"516 224 OFFCURVE",
"518 224 CURVE SMOOTH",
"519 224 LINE SMOOTH",
"526 225 OFFCURVE",
"541 225 OFFCURVE",
"556 225 CURVE",
"558 213 OFFCURVE",
"552 211 OFFCURVE",
"548 197 CURVE SMOOTH",
"545 187 OFFCURVE",
"540 167 OFFCURVE",
"535 159 CURVE",
"536 152 LINE SMOOTH",
"536 144 OFFCURVE",
"526 113 OFFCURVE",
"528 104 CURVE",
"528 102 OFFCURVE",
"529 100 OFFCURVE",
"530 98 CURVE",
"531 100 OFFCURVE",
"531 103 OFFCURVE",
"531 105 CURVE",
"532 106 LINE",
"532 105 OFFCURVE",
"532 105 OFFCURVE",
"533 105 CURVE",
"533 99 OFFCURVE",
"526 72 OFFCURVE",
"523 67 CURVE",
"524 66 LINE",
"523 66 LINE",
"521 76 OFFCURVE",
"525 83 OFFCURVE",
"525 93 CURVE",
"524 93 LINE",
"524 89 OFFCURVE",
"521 75 OFFCURVE",
"520 70 CURVE SMOOTH",
"517 46 OFFCURVE",
"527 33 OFFCURVE",
"531 12 CURVE SMOOTH",
"534 -7 OFFCURVE",
"543 5 OFFCURVE",
"553 -7 CURVE SMOOTH",
"556 -11 OFFCURVE",
"559 -16 OFFCURVE",
"562 -18 CURVE SMOOTH",
"569 -24 OFFCURVE",
"580 -26 OFFCURVE",
"583 -37 CURVE",
"587 -37 OFFCURVE",
"597 -51 OFFCURVE",
"610 -48 CURVE SMOOTH",
"622 -46 OFFCURVE",
"664 6 OFFCURVE",
"671 19 CURVE SMOOTH",
"674 25 OFFCURVE",
"692 57 OFFCURVE",
"694 58 CURVE",
"694 59 OFFCURVE",
"733 120 OFFCURVE",
"742 138 CURVE",
"736 139 LINE",
"732 138 OFFCURVE",
"727 125 OFFCURVE",
"724 121 CURVE",
"722 120 OFFCURVE",
"714 109 OFFCURVE",
"714 107 CURVE",
"710 105 OFFCURVE",
"686 64 OFFCURVE",
"676 53 CURVE SMOOTH",
"674 50 OFFCURVE",
"672 47 OFFCURVE",
"669 44 CURVE",
"664 36 OFFCURVE",
"658 30 OFFCURVE",
"653 23 CURVE SMOOTH",
"637 1 OFFCURVE",
"621 -17 OFFCURVE",
"596 -21 CURVE SMOOTH",
"585 -23 OFFCURVE",
"577 -25 OFFCURVE",
"574 -6 CURVE SMOOTH",
"572 2 OFFCURVE",
"573 11 OFFCURVE",
"573 19 CURVE SMOOTH",
"576 76 OFFCURVE",
"596 158 OFFCURVE",
"619 229 CURVE",
"623 229 OFFCURVE",
"633 228 OFFCURVE",
"639 228 CURVE",
"642 233 LINE",
"648 234 OFFCURVE",
"657 236 OFFCURVE",
"659 236 CURVE SMOOTH",
"661 236 OFFCURVE",
"660 233 OFFCURVE",
"662 233 CURVE",
"664 236 LINE",
"670 236 OFFCURVE",
"678 239 OFFCURVE",
"681 239 CURVE SMOOTH",
"683 239 OFFCURVE",
"682 237 OFFCURVE",
"684 237 CURVE SMOOTH",
"690 237 OFFCURVE",
"678 247 OFFCURVE",
"672 247 CURVE SMOOTH",
"670 247 OFFCURVE",
"670 249 OFFCURVE",
"669 249 CURVE SMOOTH",
"662 250 OFFCURVE",
"651 251 OFFCURVE",
"642 251 CURVE SMOOTH",
"626 251 LINE",
"642 299 OFFCURVE",
"658 340 OFFCURVE",
"670 362 CURVE SMOOTH",
"673 368 OFFCURVE",
"706 434 OFFCURVE",
"711 440 CURVE SMOOTH",
"714 444 OFFCURVE",
"716 450 OFFCURVE",
"719 454 CURVE SMOOTH",
"731 472 OFFCURVE",
"758 505 OFFCURVE",
"771 521 CURVE SMOOTH",
"776 527 OFFCURVE",
"794 546 OFFCURVE",
"795 551 CURVE",
"798 552 OFFCURVE",
"810 566 OFFCURVE",
"811 569 CURVE",
"817 570 OFFCURVE",
"821 577 OFFCURVE",
"827 583 CURVE",
"835 580 OFFCURVE",
"842 578 OFFCURVE",
"848 583 CURVE SMOOTH"
);
},
{
closed = 1;
nodes = (
"661 475 LINE",
"654 461 LINE",
"640 439 OFFCURVE",
"627 410 OFFCURVE",
"615 385 CURVE SMOOTH",
"609 371 OFFCURVE",
"605 357 OFFCURVE",
"599 343 CURVE SMOOTH",
"596 338 OFFCURVE",
"593 333 OFFCURVE",
"591 327 CURVE SMOOTH",
"581 304 OFFCURVE",
"571 277 OFFCURVE",
"563 252 CURVE",
"548 253 OFFCURVE",
"533 254 OFFCURVE",
"532 251 CURVE",
"531 250 LINE",
"439 250 LINE",
"441 252 LINE",
"470 284 LINE",
"475 291 LINE SMOOTH",
"480 296 OFFCURVE",
"488 300 OFFCURVE",
"493 304 CURVE",
"652 467 LINE SMOOTH",
"656 472 OFFCURVE",
"661 476 OFFCURVE",
"665 480 CURVE"
);
},
{
closed = 1;
nodes = (
"911 756 LINE",
"903 756 OFFCURVE",
"890 756 OFFCURVE",
"884 753 CURVE SMOOTH",
"868 744 OFFCURVE",
"841 731 OFFCURVE",
"830 715 CURVE",
"829 712 OFFCURVE",
"827 710 OFFCURVE",
"825 708 CURVE",
"823 709 OFFCURVE",
"822 709 OFFCURVE",
"821 708 CURVE",
"820 704 OFFCURVE",
"837 690 OFFCURVE",
"841 685 CURVE",
"858 670 OFFCURVE",
"877 673 OFFCURVE",
"877 673 CURVE",
"877 672 OFFCURVE",
"884 668 OFFCURVE",
"884 671 CURVE SMOOTH",
"883 678 OFFCURVE",
"873 691 OFFCURVE",
"875 696 CURVE SMOOTH",
"876 700 OFFCURVE",
"879 700 OFFCURVE",
"881 703 CURVE",
"882 706 OFFCURVE",
"881 712 OFFCURVE",
"883 715 CURVE SMOOTH",
"885 718 OFFCURVE",
"892 717 OFFCURVE",
"890 724 CURVE SMOOTH",
"890 725 OFFCURVE",
"892 723 OFFCURVE",
"893 723 CURVE",
"891 728 OFFCURVE",
"902 734 OFFCURVE",
"904 737 CURVE",
"905 737 OFFCURVE",
"904 738 OFFCURVE",
"904 739 CURVE SMOOTH",
"903 744 OFFCURVE",
"910 744 OFFCURVE",
"912 748 CURVE SMOOTH",
"913 750 OFFCURVE",
"912 752 OFFCURVE",
"912 754 CURVE",
"913 754 OFFCURVE",
"913 754 OFFCURVE",
"912 755 CURVE SMOOTH"
);
},
{
closed = 1;
nodes = (
"783 756 LINE",
"775 756 OFFCURVE",
"763 756 OFFCURVE",
"757 753 CURVE SMOOTH",
"740 744 OFFCURVE",
"713 731 OFFCURVE",
"703 715 CURVE",
"697 708 LINE",
"696 709 OFFCURVE",
"694 709 OFFCURVE",
"694 708 CURVE",
"692 704 OFFCURVE",
"710 690 OFFCURVE",
"714 685 CURVE",
"731 670 OFFCURVE",
"749 673 OFFCURVE",
"749 673 CURVE",
"750 672 OFFCURVE",
"757 668 OFFCURVE",
"756 671 CURVE",
"756 678 OFFCURVE",
"746 691 OFFCURVE",
"747 696 CURVE SMOOTH",
"748 700 OFFCURVE",
"752 700 OFFCURVE",
"753 703 CURVE",
"755 706 OFFCURVE",
"753 712 OFFCURVE",
"756 715 CURVE SMOOTH",
"758 718 OFFCURVE",
"764 717 OFFCURVE",
"762 724 CURVE",
"763 724 LINE",
"762 725 OFFCURVE",
"765 723 OFFCURVE",
"766 723 CURVE",
"763 728 OFFCURVE",
"774 734 OFFCURVE",
"776 737 CURVE",
"777 737 OFFCURVE",
"776 738 OFFCURVE",
"776 739 CURVE SMOOTH",
"776 744 OFFCURVE",
"783 744 OFFCURVE",
"784 748 CURVE SMOOTH",
"785 750 OFFCURVE",
"785 752 OFFCURVE",
"785 754 CURVE",
"786 754 OFFCURVE",
"785 754 OFFCURVE",
"785 755 CURVE"
);
}
);
width = 731;
}
);
note = Adieresis;
unicode = 00C4;
},
{
color = 3;
glyphname = Agrave;
lastChange = "2021-04-23 03:36:15 +0000";
layers = (
{
hints = (
{
horizontal = 1;
place = "{222, 28}";
type = Stem;
},
{
horizontal = 1;
place = "{606, 27}";
type = Stem;
},
{
horizontal = 1;
place = "{667, 20}";
type = Stem;
},
{
horizontal = 1;
place = "{606, 24}";
type = Stem;
},
{
horizontal = 1;
place = "{605, 30}";
type = Stem;
},
{
horizontal = 1;
place = "{225, 25}";
type = Stem;
},
{
horizontal = 1;
place = "{228, 23}";
type = Stem;
}
);
layerId = "E8487A59-2E36-4739-8DF2-414A9818920F";
paths = (
{
closed = 1;
nodes = (
"894 623 OFFCURVE",
"845 628 OFFCURVE",
"845 628 CURVE",
"846 630 OFFCURVE",
"822 631 OFFCURVE",
"804 631 CURVE",
"811 651 OFFCURVE",
"792 652 OFFCURVE",
"766 643 CURVE",
"761 642 OFFCURVE",
"755 637 OFFCURVE",
"748 631 CURVE",
"742 631 LINE SMOOTH",
"739 631 OFFCURVE",
"737 631 OFFCURVE",
"735 629 CURVE",
"731 631 OFFCURVE",
"726 633 OFFCURVE",
"722 633 CURVE SMOOTH",
"720 633 OFFCURVE",
"717 632 OFFCURVE",
"714 630 CURVE",
"707 631 OFFCURVE",
"696 636 OFFCURVE",
"687 633 CURVE",
"681 634 OFFCURVE",
"675 635 OFFCURVE",
"669 635 CURVE SMOOTH",
"664 635 OFFCURVE",
"660 634 OFFCURVE",
"654 633 CURVE",
"648 634 OFFCURVE",
"640 636 OFFCURVE",
"632 632 CURVE",
"631 631 LINE",
"609 634 OFFCURVE",
"461 615 OFFCURVE",
"443 599 CURVE",
"442 599 LINE SMOOTH",
"416 602 OFFCURVE",
"333 561 OFFCURVE",
"307 553 CURVE",
"305 551 OFFCURVE",
"265 531 OFFCURVE",
"261 529 CURVE SMOOTH",
"239 516 OFFCURVE",
"216 505 OFFCURVE",
"194 490 CURVE SMOOTH",
"121 438 OFFCURVE",
"38 356 OFFCURVE",
"5 283 CURVE SMOOTH",
"-1 270 OFFCURVE",
"-8 250 OFFCURVE",
"0 242 CURVE",
"12 235 LINE",
"18 234 OFFCURVE",
"29 156 OFFCURVE",
"29 177 CURVE SMOOTH",
"29 340 OFFCURVE",
"262 550 OFFCURVE",
"455 583 CURVE",
"462 593 OFFCURVE",
"529 592 OFFCURVE",
"546 604 CURVE",
"591 606 OFFCURVE",
"668 605 OFFCURVE",
"706 605 CURVE SMOOTH",
"723 605 LINE",
"694 571 LINE SMOOTH",
"681 557 OFFCURVE",
"671 543 OFFCURVE",
"659 529 CURVE SMOOTH",
"652 521 OFFCURVE",
"564 438 OFFCURVE",
"559 430 CURVE",
"554 429 OFFCURVE",
"509 380 OFFCURVE",
"501 375 CURVE",
"473 353 OFFCURVE",
"462 331 OFFCURVE",
"435 309 CURVE SMOOTH",
"421 296 OFFCURVE",
"422 289 OFFCURVE",
"409 277 CURVE",
"407 276 OFFCURVE",
"402 268 OFFCURVE",
"398 266 CURVE SMOOTH",
"389 261 OFFCURVE",
"381 255 OFFCURVE",
"372 249 CURVE",
"371 249 LINE SMOOTH",
"367 249 OFFCURVE",
"352 250 OFFCURVE",
"350 250 CURVE SMOOTH",
"348 250 OFFCURVE",
"315 245 OFFCURVE",
"312 245 CURVE SMOOTH",
"310 245 OFFCURVE",
"311 247 OFFCURVE",
"309 248 CURVE",
"292 220 LINE",
"290 213 OFFCURVE",
"289 206 OFFCURVE",
"289 200 CURVE",
"296 197 LINE",
"297 198 OFFCURVE",
"314 197 OFFCURVE",
"315 197 CURVE SMOOTH",
"318 197 OFFCURVE",
"324 204 OFFCURVE",
"326 204 CURVE SMOOTH",
"329 204 OFFCURVE",
"326 203 OFFCURVE",
"328 203 CURVE SMOOTH",
"330 203 LINE",
"302 179 OFFCURVE",
"299 164 OFFCURVE",
"267 138 CURVE SMOOTH",
"156 42 LINE SMOOTH",
"78 -25 OFFCURVE",
"94 -5 OFFCURVE",
"32 -48 CURVE",
"18 -55 OFFCURVE",
"-27 -89 OFFCURVE",
"-41 -95 CURVE SMOOTH",
"-87 -119 OFFCURVE",
"-123 -126 OFFCURVE",
"-170 -144 CURVE SMOOTH",
"-182 -149 OFFCURVE",
"-202 -149 OFFCURVE",
"-212 -156 CURVE",
"-221 -156 OFFCURVE",
"-229 -161 OFFCURVE",
"-237 -162 CURVE SMOOTH",
"-253 -166 OFFCURVE",
"-271 -168 OFFCURVE",
"-286 -173 CURVE",
"-286 -172 OFFCURVE",
"-287 -172 OFFCURVE",
"-288 -171 CURVE",
"-289 -174 OFFCURVE",
"-304 -172 OFFCURVE",
"-308 -174 CURVE",
"-310 -173 LINE",
"-326 -176 LINE",
"-331 -176 OFFCURVE",
"-336 -175 OFFCURVE",
"-340 -174 CURVE",
"-358 -173 OFFCURVE",
"-378 -175 OFFCURVE",
"-390 -166 CURVE SMOOTH",
"-396 -162 OFFCURVE",
"-398 -155 OFFCURVE",
"-402 -150 CURVE",
"-403 -146 LINE",
"-407 -148 LINE",
"-408 -153 OFFCURVE",
"-397 -164 OFFCURVE",
"-396 -169 CURVE",
"-386 -175 LINE SMOOTH",
"-379 -180 OFFCURVE",
"-371 -183 OFFCURVE",
"-362 -186 CURVE SMOOTH",
"-359 -187 OFFCURVE",
"-357 -189 OFFCURVE",
"-354 -188 CURVE SMOOTH",
"-353 -188 LINE",
"-347 -190 LINE SMOOTH",
"-341 -192 OFFCURVE",
"-315 -196 OFFCURVE",
"-309 -193 CURVE",
"-306 -193 LINE",
"-289 -195 LINE",
"-285 -194 OFFCURVE",
"-280 -195 OFFCURVE",
"-275 -194 CURVE SMOOTH",
"-243 -187 LINE",
"-237 -187 OFFCURVE",
"-213 -182 OFFCURVE",
"-209 -179 CURVE",
"-201 -180 OFFCURVE",
"-194 -176 OFFCURVE",
"-186 -174 CURVE SMOOTH",
"-177 -172 OFFCURVE",
"-168 -169 OFFCURVE",
"-159 -166 CURVE SMOOTH",
"-153 -164 OFFCURVE",
"-147 -162 OFFCURVE",
"-141 -161 CURVE",
"-122 -152 LINE",
"-117 -152 OFFCURVE",
"-100 -143 OFFCURVE",
"-94 -140 CURVE SMOOTH",
"-69 -128 OFFCURVE",
"-43 -115 OFFCURVE",
"-19 -100 CURVE SMOOTH",
"43 -61 OFFCURVE",
"-2 -95 OFFCURVE",
"81 -42 CURVE SMOOTH",
"105 -27 OFFCURVE",
"132 -3 OFFCURVE",
"162 18 CURVE SMOOTH",
"183 33 OFFCURVE",
"210 55 OFFCURVE",
"220 63 CURVE SMOOTH",
"227 69 OFFCURVE",
"235 75 OFFCURVE",
"242 82 CURVE SMOOTH",
"274 112 LINE",
"285 119 LINE",
"301 134 LINE",
"315 145 LINE SMOOTH",
"328 154 OFFCURVE",
"338 166 OFFCURVE",
"350 176 CURVE SMOOTH",
"374 196 LINE SMOOTH",
"384 204 OFFCURVE",
"389 213 OFFCURVE",
"399 222 CURVE",
"503 222 LINE SMOOTH",
"506 222 OFFCURVE",
"510 225 OFFCURVE",
"512 225 CURVE",
"513 226 LINE",
"515 226 OFFCURVE",
"516 224 OFFCURVE",
"518 224 CURVE SMOOTH",
"519 224 LINE SMOOTH",
"526 225 OFFCURVE",
"541 225 OFFCURVE",
"556 225 CURVE",
"558 213 OFFCURVE",
"552 211 OFFCURVE",
"548 197 CURVE SMOOTH",
"545 187 OFFCURVE",
"540 167 OFFCURVE",
"535 159 CURVE",
"536 152 LINE SMOOTH",
"536 144 OFFCURVE",
"526 113 OFFCURVE",
"528 104 CURVE",
"528 102 OFFCURVE",
"529 100 OFFCURVE",
"530 98 CURVE",
"531 100 OFFCURVE",
"531 103 OFFCURVE",
"531 105 CURVE",
"532 106 LINE",
"532 105 OFFCURVE",
"532 105 OFFCURVE",
"533 105 CURVE",
"533 99 OFFCURVE",
"526 72 OFFCURVE",
"523 67 CURVE",
"524 66 LINE",
"523 66 LINE",
"521 76 OFFCURVE",
"525 83 OFFCURVE",
"525 93 CURVE",
"524 93 LINE",
"524 89 OFFCURVE",
"521 75 OFFCURVE",
"520 70 CURVE SMOOTH",
"517 46 OFFCURVE",
"527 33 OFFCURVE",
"531 12 CURVE SMOOTH",
"534 -7 OFFCURVE",
"543 5 OFFCURVE",
"553 -7 CURVE SMOOTH",
"556 -11 OFFCURVE",
"559 -16 OFFCURVE",
"562 -18 CURVE SMOOTH",
"569 -24 OFFCURVE",
"580 -26 OFFCURVE",
"583 -37 CURVE",
"587 -37 OFFCURVE",
"597 -51 OFFCURVE",
"610 -48 CURVE SMOOTH",
"622 -46 OFFCURVE",
"664 6 OFFCURVE",
"671 19 CURVE SMOOTH",
"674 25 OFFCURVE",
"692 57 OFFCURVE",
"694 58 CURVE",
"694 59 OFFCURVE",
"733 120 OFFCURVE",
"742 138 CURVE",
"736 139 LINE",
"732 138 OFFCURVE",
"727 125 OFFCURVE",
"724 121 CURVE",
"722 120 OFFCURVE",
"714 109 OFFCURVE",
"714 107 CURVE",
"710 105 OFFCURVE",
"686 64 OFFCURVE",
"676 53 CURVE SMOOTH",
"674 50 OFFCURVE",
"672 47 OFFCURVE",
"669 44 CURVE",
"664 36 OFFCURVE",
"658 30 OFFCURVE",
"653 23 CURVE SMOOTH",
"637 1 OFFCURVE",
"621 -17 OFFCURVE",
"596 -21 CURVE SMOOTH",
"585 -23 OFFCURVE",
"577 -25 OFFCURVE",
"574 -6 CURVE SMOOTH",
"572 2 OFFCURVE",
"573 11 OFFCURVE",
"573 19 CURVE SMOOTH",
"576 76 OFFCURVE",
"596 158 OFFCURVE",
"619 229 CURVE",
"623 229 OFFCURVE",
"633 228 OFFCURVE",
"639 228 CURVE",
"642 233 LINE",
"648 234 OFFCURVE",
"657 236 OFFCURVE",
"659 236 CURVE SMOOTH",
"661 236 OFFCURVE",
"660 233 OFFCURVE",
"662 233 CURVE",
"664 236 LINE",
"670 236 OFFCURVE",
"678 239 OFFCURVE",
"681 239 CURVE SMOOTH",
"683 239 OFFCURVE",
"682 237 OFFCURVE",
"684 237 CURVE SMOOTH",
"690 237 OFFCURVE",
"678 247 OFFCURVE",
"672 247 CURVE SMOOTH",
"670 247 OFFCURVE",
"670 249 OFFCURVE",
"669 249 CURVE SMOOTH",
"662 250 OFFCURVE",
"651 251 OFFCURVE",
"642 251 CURVE SMOOTH",
"626 251 LINE",
"642 299 OFFCURVE",
"658 340 OFFCURVE",
"670 362 CURVE SMOOTH",
"673 368 OFFCURVE",
"706 434 OFFCURVE",
"711 440 CURVE SMOOTH",
"714 444 OFFCURVE",
"716 450 OFFCURVE",
"719 454 CURVE SMOOTH",
"731 472 OFFCURVE",
"758 505 OFFCURVE",
"771 521 CURVE SMOOTH",
"776 527 OFFCURVE",
"794 546 OFFCURVE",
"795 551 CURVE",
"798 552 OFFCURVE",
"810 566 OFFCURVE",
"811 569 CURVE",
"817 570 OFFCURVE",
"821 577 OFFCURVE",
"827 583 CURVE",
"835 580 OFFCURVE",
"842 578 OFFCURVE",
"848 583 CURVE SMOOTH"
);
},
{
closed = 1;
nodes = (
"661 475 LINE",
"654 461 LINE",
"640 439 OFFCURVE",
"627 410 OFFCURVE",
"615 385 CURVE SMOOTH",
"609 371 OFFCURVE",
"605 357 OFFCURVE",
"599 343 CURVE SMOOTH",
"596 338 OFFCURVE",
"593 333 OFFCURVE",
"591 327 CURVE SMOOTH",
"581 304 OFFCURVE",
"571 277 OFFCURVE",
"563 252 CURVE",
"548 253 OFFCURVE",
"533 254 OFFCURVE",
"532 251 CURVE",
"531 250 LINE",
"439 250 LINE",
"441 252 LINE",
"470 284 LINE",
"475 291 LINE SMOOTH",
"480 296 OFFCURVE",
"488 300 OFFCURVE",
"493 304 CURVE",
"652 467 LINE SMOOTH",
"656 472 OFFCURVE",
"661 476 OFFCURVE",
"665 480 CURVE"
);
},
{
closed = 1;
nodes = (
"845 667 OFFCURVE",
"851 670 OFFCURVE",
"843 684 CURVE SMOOTH",
"835 695 OFFCURVE",
"824 702 OFFCURVE",
"813 711 CURVE SMOOTH",
"783 738 OFFCURVE",
"753 762 OFFCURVE",
"717 781 CURVE",
"702 791 LINE",
"701 793 OFFCURVE",
"700 795 OFFCURVE",
"698 796 CURVE SMOOTH",
"690 800 OFFCURVE",
"688 786 OFFCURVE",
"684 782 CURVE",
"678 764 OFFCURVE",
"678 746 OFFCURVE",
"678 746 CURVE",
"677 746 OFFCURVE",
"679 738 OFFCURVE",
"683 737 CURVE SMOOTH",
"693 736 OFFCURVE",
"704 745 OFFCURVE",
"714 740 CURVE SMOOTH",
"720 738 OFFCURVE",
"724 733 OFFCURVE",
"730 730 CURVE SMOOTH",
"737 727 OFFCURVE",
"744 726 OFFCURVE",
"751 722 CURVE SMOOTH",
"759 718 OFFCURVE",
"763 710 OFFCURVE",
"773 710 CURVE",
"773 709 LINE",
"774 709 OFFCURVE",
"774 707 OFFCURVE",
"774 706 CURVE",
"780 707 OFFCURVE",
"801 690 OFFCURVE",
"808 686 CURVE",
"808 685 OFFCURVE",
"809 685 OFFCURVE",
"810 685 CURVE SMOOTH",
"818 684 OFFCURVE",
"825 674 OFFCURVE",
"832 671 CURVE SMOOTH",
"836 669 OFFCURVE",
"840 669 OFFCURVE",
"843 668 CURVE",
"844 667 OFFCURVE",
"844 667 OFFCURVE",
"845 667 CURVE"
);
}
);
width = 731;
}
);
note = Agrave;
unicode = 00C0;
},
{
color = 3;
glyphname = Amacron;
lastChange = "2021-04-23 03:36:15 +0000";
layers = (
{
hints = (
{
horizontal = 1;
place = "{222, 28}";
type = Stem;
},
{
horizontal = 1;
place = "{606, 27}";
type = Stem;
},
{
horizontal = 1;
place = "{712, 21}";
target = up;
type = BottomGhost;
},
{
horizontal = 1;
place = "{606, 24}";
type = Stem;
},
{
horizontal = 1;
place = "{605, 30}";
type = Stem;
},
{
horizontal = 1;
place = "{225, 25}";
type = Stem;
},
{
horizontal = 1;
place = "{228, 23}";
type = Stem;
}
);
layerId = "E8487A59-2E36-4739-8DF2-414A9818920F";
paths = (
{
closed = 1;
nodes = (
"894 623 OFFCURVE",
"845 628 OFFCURVE",
"845 628 CURVE",
"846 630 OFFCURVE",
"822 631 OFFCURVE",
"804 631 CURVE",
"811 651 OFFCURVE",
"792 652 OFFCURVE",
"766 643 CURVE",
"761 642 OFFCURVE",
"755 637 OFFCURVE",
"748 631 CURVE",
"742 631 LINE SMOOTH",
"739 631 OFFCURVE",
"737 631 OFFCURVE",
"735 629 CURVE",
"731 631 OFFCURVE",
"726 633 OFFCURVE",
"722 633 CURVE SMOOTH",
"720 633 OFFCURVE",
"717 632 OFFCURVE",
"714 630 CURVE",
"707 631 OFFCURVE",
"696 636 OFFCURVE",
"687 633 CURVE",
"681 634 OFFCURVE",
"675 635 OFFCURVE",
"669 635 CURVE SMOOTH",
"664 635 OFFCURVE",
"660 634 OFFCURVE",
"654 633 CURVE",
"648 634 OFFCURVE",
"640 636 OFFCURVE",
"632 632 CURVE",
"631 631 LINE",
"609 634 OFFCURVE",
"461 615 OFFCURVE",
"443 599 CURVE",
"442 599 LINE SMOOTH",
"416 602 OFFCURVE",
"333 561 OFFCURVE",
"307 553 CURVE",
"305 551 OFFCURVE",
"265 531 OFFCURVE",
"261 529 CURVE SMOOTH",
"239 516 OFFCURVE",
"216 505 OFFCURVE",
"194 490 CURVE SMOOTH",
"121 438 OFFCURVE",
"38 356 OFFCURVE",
"5 283 CURVE SMOOTH",
"-1 270 OFFCURVE",
"-8 250 OFFCURVE",
"0 242 CURVE",
"12 235 LINE",
"18 234 OFFCURVE",
"29 156 OFFCURVE",
"29 177 CURVE SMOOTH",
"29 340 OFFCURVE",
"262 550 OFFCURVE",
"455 583 CURVE",
"462 593 OFFCURVE",
"529 592 OFFCURVE",
"546 604 CURVE",
"591 606 OFFCURVE",
"668 605 OFFCURVE",
"706 605 CURVE SMOOTH",
"723 605 LINE",
"694 571 LINE SMOOTH",
"681 557 OFFCURVE",
"671 543 OFFCURVE",
"659 529 CURVE SMOOTH",
"652 521 OFFCURVE",
"564 438 OFFCURVE",
"559 430 CURVE",
"554 429 OFFCURVE",
"509 380 OFFCURVE",
"501 375 CURVE",
"473 353 OFFCURVE",
"462 331 OFFCURVE",
"435 309 CURVE SMOOTH",
"421 296 OFFCURVE",
"422 289 OFFCURVE",
"409 277 CURVE",
"407 276 OFFCURVE",
"402 268 OFFCURVE",
"398 266 CURVE SMOOTH",
"389 261 OFFCURVE",
"381 255 OFFCURVE",
"372 249 CURVE",
"371 249 LINE SMOOTH",
"367 249 OFFCURVE",
"352 250 OFFCURVE",
"350 250 CURVE SMOOTH",
"348 250 OFFCURVE",
"315 245 OFFCURVE",
"312 245 CURVE SMOOTH",
"310 245 OFFCURVE",
"311 247 OFFCURVE",
"309 248 CURVE",
"292 220 LINE",
"290 213 OFFCURVE",
"289 206 OFFCURVE",
"289 200 CURVE",
"296 197 LINE",
"297 198 OFFCURVE",
"314 197 OFFCURVE",
"315 197 CURVE SMOOTH",
"318 197 OFFCURVE",
"324 204 OFFCURVE",
"326 204 CURVE SMOOTH",
"329 204 OFFCURVE",
"326 203 OFFCURVE",
"328 203 CURVE SMOOTH",
"330 203 LINE",
"302 179 OFFCURVE",
"299 164 OFFCURVE",
"267 138 CURVE SMOOTH",
"156 42 LINE SMOOTH",
"78 -25 OFFCURVE",
"94 -5 OFFCURVE",
"32 -48 CURVE",
"18 -55 OFFCURVE",
"-27 -89 OFFCURVE",
"-41 -95 CURVE SMOOTH",
"-87 -119 OFFCURVE",
"-123 -126 OFFCURVE",
"-170 -144 CURVE SMOOTH",
"-182 -149 OFFCURVE",
"-202 -149 OFFCURVE",
"-212 -156 CURVE",
"-221 -156 OFFCURVE",
"-229 -161 OFFCURVE",
"-237 -162 CURVE SMOOTH",
"-253 -166 OFFCURVE",
"-271 -168 OFFCURVE",
"-286 -173 CURVE",
"-286 -172 OFFCURVE",
"-287 -172 OFFCURVE",
"-288 -171 CURVE",
"-289 -174 OFFCURVE",
"-304 -172 OFFCURVE",
"-308 -174 CURVE",
"-310 -173 LINE",
"-326 -176 LINE",
"-331 -176 OFFCURVE",
"-336 -175 OFFCURVE",
"-340 -174 CURVE",
"-358 -173 OFFCURVE",
"-378 -175 OFFCURVE",
"-390 -166 CURVE SMOOTH",
"-396 -162 OFFCURVE",
"-398 -155 OFFCURVE",
"-402 -150 CURVE",
"-403 -146 LINE",
"-407 -148 LINE",
"-408 -153 OFFCURVE",
"-397 -164 OFFCURVE",
"-396 -169 CURVE",
"-386 -175 LINE SMOOTH",
"-379 -180 OFFCURVE",
"-371 -183 OFFCURVE",
"-362 -186 CURVE SMOOTH",
"-359 -187 OFFCURVE",
"-357 -189 OFFCURVE",
"-354 -188 CURVE SMOOTH",
"-353 -188 LINE",
"-347 -190 LINE SMOOTH",
"-341 -192 OFFCURVE",
"-315 -196 OFFCURVE",
"-309 -193 CURVE",
"-306 -193 LINE",
"-289 -195 LINE",
"-285 -194 OFFCURVE",
"-280 -195 OFFCURVE",
"-275 -194 CURVE SMOOTH",
"-243 -187 LINE",
"-237 -187 OFFCURVE",
"-213 -182 OFFCURVE",
"-209 -179 CURVE",
"-201 -180 OFFCURVE",
"-194 -176 OFFCURVE",
"-186 -174 CURVE SMOOTH",
"-177 -172 OFFCURVE",
"-168 -169 OFFCURVE",
"-159 -166 CURVE SMOOTH",
"-153 -164 OFFCURVE",
"-147 -162 OFFCURVE",
"-141 -161 CURVE",
"-122 -152 LINE",
"-117 -152 OFFCURVE",
"-100 -143 OFFCURVE",
"-94 -140 CURVE SMOOTH",
"-69 -128 OFFCURVE",
"-43 -115 OFFCURVE",
"-19 -100 CURVE SMOOTH",
"43 -61 OFFCURVE",
"-2 -95 OFFCURVE",
"81 -42 CURVE SMOOTH",
"105 -27 OFFCURVE",
"132 -3 OFFCURVE",
"162 18 CURVE SMOOTH",
"183 33 OFFCURVE",
"210 55 OFFCURVE",
"220 63 CURVE SMOOTH",
"227 69 OFFCURVE",
"235 75 OFFCURVE",
"242 82 CURVE SMOOTH",
"274 112 LINE",
"285 119 LINE",
"301 134 LINE",
"315 145 LINE SMOOTH",
"328 154 OFFCURVE",
"338 166 OFFCURVE",
"350 176 CURVE SMOOTH",
"374 196 LINE SMOOTH",
"384 204 OFFCURVE",
"389 213 OFFCURVE",
"399 222 CURVE",
"503 222 LINE SMOOTH",
"506 222 OFFCURVE",
"510 225 OFFCURVE",
"512 225 CURVE",
"513 226 LINE",
"515 226 OFFCURVE",
"516 224 OFFCURVE",
"518 224 CURVE SMOOTH",
"519 224 LINE SMOOTH",
"526 225 OFFCURVE",
"541 225 OFFCURVE",
"556 225 CURVE",
"558 213 OFFCURVE",
"552 211 OFFCURVE",
"548 197 CURVE SMOOTH",
"545 187 OFFCURVE",
"540 167 OFFCURVE",
"535 159 CURVE",
"536 152 LINE SMOOTH",
"536 144 OFFCURVE",
"526 113 OFFCURVE",
"528 104 CURVE",
"528 102 OFFCURVE",
"529 100 OFFCURVE",
"530 98 CURVE",
"531 100 OFFCURVE",
"531 103 OFFCURVE",
"531 105 CURVE",
"532 106 LINE",
"532 105 OFFCURVE",
"532 105 OFFCURVE",
"533 105 CURVE",
"533 99 OFFCURVE",
"526 72 OFFCURVE",
"523 67 CURVE",
"524 66 LINE",
"523 66 LINE",
"521 76 OFFCURVE",
"525 83 OFFCURVE",
"525 93 CURVE",
"524 93 LINE",
"524 89 OFFCURVE",
"521 75 OFFCURVE",
"520 70 CURVE SMOOTH",
"517 46 OFFCURVE",
"527 33 OFFCURVE",
"531 12 CURVE SMOOTH",
"534 -7 OFFCURVE",
"543 5 OFFCURVE",
"553 -7 CURVE SMOOTH",
"556 -11 OFFCURVE",
"559 -16 OFFCURVE",
"562 -18 CURVE SMOOTH",
"569 -24 OFFCURVE",
"580 -26 OFFCURVE",
"583 -37 CURVE",
"587 -37 OFFCURVE",
"597 -51 OFFCURVE",
"610 -48 CURVE SMOOTH",
"622 -46 OFFCURVE",
"664 6 OFFCURVE",
"671 19 CURVE SMOOTH",
"674 25 OFFCURVE",
"692 57 OFFCURVE",
"694 58 CURVE",
"694 59 OFFCURVE",
"733 120 OFFCURVE",
"742 138 CURVE",
"736 139 LINE",
"732 138 OFFCURVE",
"727 125 OFFCURVE",
"724 121 CURVE",
"722 120 OFFCURVE",
"714 109 OFFCURVE",
"714 107 CURVE",
"710 105 OFFCURVE",
"686 64 OFFCURVE",
"676 53 CURVE SMOOTH",
"674 50 OFFCURVE",
"672 47 OFFCURVE",
"669 44 CURVE",
"664 36 OFFCURVE",
"658 30 OFFCURVE",
"653 23 CURVE SMOOTH",
"637 1 OFFCURVE",
"621 -17 OFFCURVE",
"596 -21 CURVE SMOOTH",
"585 -23 OFFCURVE",
"577 -25 OFFCURVE",
"574 -6 CURVE SMOOTH",
"572 2 OFFCURVE",
"573 11 OFFCURVE",
"573 19 CURVE SMOOTH",
"576 76 OFFCURVE",
"596 158 OFFCURVE",
"619 229 CURVE",
"623 229 OFFCURVE",
"633 228 OFFCURVE",
"639 228 CURVE",
"642 233 LINE",
"648 234 OFFCURVE",
"657 236 OFFCURVE",
"659 236 CURVE SMOOTH",
"661 236 OFFCURVE",
"660 233 OFFCURVE",
"662 233 CURVE",
"664 236 LINE",
"670 236 OFFCURVE",
"678 239 OFFCURVE",
"681 239 CURVE SMOOTH",
"683 239 OFFCURVE",
"682 237 OFFCURVE",
"684 237 CURVE SMOOTH",
"690 237 OFFCURVE",
"678 247 OFFCURVE",
"672 247 CURVE SMOOTH",
"670 247 OFFCURVE",
"670 249 OFFCURVE",
"669 249 CURVE SMOOTH",
"662 250 OFFCURVE",
"651 251 OFFCURVE",
"642 251 CURVE SMOOTH",
"626 251 LINE",
"642 299 OFFCURVE",
"658 340 OFFCURVE",
"670 362 CURVE SMOOTH",
"673 368 OFFCURVE",
"706 434 OFFCURVE",
"711 440 CURVE SMOOTH",
"714 444 OFFCURVE",
"716 450 OFFCURVE",
"719 454 CURVE SMOOTH",
"731 472 OFFCURVE",
"758 505 OFFCURVE",
"771 521 CURVE SMOOTH",
"776 527 OFFCURVE",
"794 546 OFFCURVE",
"795 551 CURVE",
"798 552 OFFCURVE",
"810 566 OFFCURVE",
"811 569 CURVE",
"817 570 OFFCURVE",
"821 577 OFFCURVE",
"827 583 CURVE",
"835 580 OFFCURVE",
"842 578 OFFCURVE",
"848 583 CURVE SMOOTH"
);
},
{
closed = 1;
nodes = (
"661 475 LINE",
"654 461 LINE",
"640 439 OFFCURVE",
"627 410 OFFCURVE",
"615 385 CURVE SMOOTH",
"609 371 OFFCURVE",
"605 357 OFFCURVE",
"599 343 CURVE SMOOTH",
"596 338 OFFCURVE",
"593 333 OFFCURVE",
"591 327 CURVE SMOOTH",
"581 304 OFFCURVE",
"571 277 OFFCURVE",
"563 252 CURVE",
"548 253 OFFCURVE",
"533 254 OFFCURVE",
"532 251 CURVE",
"531 250 LINE",
"439 250 LINE",
"441 252 LINE",
"470 284 LINE",
"475 291 LINE SMOOTH",
"480 296 OFFCURVE",
"488 300 OFFCURVE",
"493 304 CURVE",
"652 467 LINE SMOOTH",
"656 472 OFFCURVE",
"661 476 OFFCURVE",
"665 480 CURVE"
);
},
{
closed = 1;
nodes = (
"976 751 OFFCURVE",
"967 761 OFFCURVE",
"964 761 CURVE SMOOTH",
"962 761 OFFCURVE",
"962 764 OFFCURVE",
"961 764 CURVE SMOOTH",
"957 765 OFFCURVE",
"949 766 OFFCURVE",
"944 766 CURVE SMOOTH",
"935 766 OFFCURVE",
"925 767 OFFCURVE",
"916 766 CURVE SMOOTH",
"912 766 LINE",
"911 762 OFFCURVE",
"875 772 OFFCURVE",
"874 765 CURVE",
"871 764 LINE",
"760 764 LINE SMOOTH",
"759 764 OFFCURVE",
"739 759 OFFCURVE",
"737 759 CURVE SMOOTH",
"736 759 OFFCURVE",
"736 761 OFFCURVE",
"735 762 CURVE",
"728 734 LINE",
"728 727 OFFCURVE",
"728 721 OFFCURVE",
"730 714 CURVE",
"734 712 LINE",
"746 712 LINE SMOOTH",
"748 712 OFFCURVE",
"751 719 OFFCURVE",
"752 719 CURVE SMOOTH",
"754 719 OFFCURVE",
"752 718 OFFCURVE",
"754 718 CURVE",
"758 725 OFFCURVE",
"782 718 OFFCURVE",
"786 724 CURVE SMOOTH",
"791 733 OFFCURVE",
"803 721 OFFCURVE",
"807 729 CURVE",
"861 736 LINE",
"866 740 LINE",
"867 740 LINE SMOOTH",
"868 740 OFFCURVE",
"869 739 OFFCURVE",
"870 739 CURVE SMOOTH",
"906 741 LINE",
"928 741 LINE",
"932 744 LINE",
"932 744 OFFCURVE",
"941 743 OFFCURVE",
"946 743 CURVE",
"946 745 OFFCURVE",
"946 747 OFFCURVE",
"947 747 CURVE",
"951 749 OFFCURVE",
"956 750 OFFCURVE",
"957 750 CURVE SMOOTH",
"958 750 OFFCURVE",
"958 748 OFFCURVE",
"960 748 CURVE",
"960 749 OFFCURVE",
"960 750 OFFCURVE",
"961 750 CURVE SMOOTH",
"964 750 OFFCURVE",
"969 753 OFFCURVE",
"970 753 CURVE SMOOTH",
"972 753 OFFCURVE",
"971 751 OFFCURVE",
"973 751 CURVE SMOOTH"
);
}
);
width = 731;
}
);
note = Amacron;
unicode = 0100;
},
{
color = 3;
glyphname = Aogonek;
lastChange = "2021-04-23 03:36:15 +0000";
layers = (
{
hints = (
{
horizontal = 1;
place = "{228, 23}";
type = Stem;
},
{
horizontal = 1;
place = "{606, 27}";
type = Stem;
},
{
place = "{455, 44}";
type = Stem;
},
{
horizontal = 1;
place = "{222, 28}";
type = Stem;
},
{
horizontal = 1;
place = "{606, 24}";
type = Stem;
},
{
horizontal = 1;
place = "{605, 30}";
type = Stem;
},
{
horizontal = 1;
place = "{225, 25}";
type = Stem;
}
);
layerId = "E8487A59-2E36-4739-8DF2-414A9818920F";
paths = (
{
closed = 1;
nodes = (
"666 -113 OFFCURVE",
"644 -126 OFFCURVE",
"633 -145 CURVE SMOOTH",
"629 -152 OFFCURVE",
"592 -187 OFFCURVE",
"581 -194 CURVE SMOOTH",
"557 -210 OFFCURVE",
"525 -214 OFFCURVE",
"514 -209 CURVE SMOOTH",
"486 -193 OFFCURVE",
"505 -174 OFFCURVE",
"497 -159 CURVE",
"499 -155 OFFCURVE",
"506 -149 OFFCURVE",
"504 -149 CURVE",
"504 -148 LINE",
"502 -148 OFFCURVE",
"506 -141 OFFCURVE",
"506 -140 CURVE",
"514 -131 LINE",
"520 -115 LINE",
"531 -102 LINE",
"535 -95 OFFCURVE",
"535 -87 OFFCURVE",
"544 -86 CURVE",
"544 -81 LINE",
"545 -81 LINE",
"545 -81 OFFCURVE",
"558 -71 OFFCURVE",
"560 -70 CURVE",
"557 -62 LINE",
"558 -62 LINE",
"565 -51 LINE",
"568 -48 OFFCURVE",
"570 -48 OFFCURVE",
"572 -45 CURVE",
"572 -46 OFFCURVE",
"573 -45 OFFCURVE",
"574 -45 CURVE SMOOTH",
"577 -44 OFFCURVE",
"580 -40 OFFCURVE",
"582 -36 CURVE",
"582 -36 OFFCURVE",
"583 -36 OFFCURVE",
"583 -37 CURVE",
"587 -37 OFFCURVE",
"597 -51 OFFCURVE",
"610 -48 CURVE SMOOTH",
"622 -46 OFFCURVE",
"664 6 OFFCURVE",
"671 19 CURVE SMOOTH",
"674 25 OFFCURVE",
"692 57 OFFCURVE",
"694 58 CURVE",
"694 59 OFFCURVE",
"733 120 OFFCURVE",
"742 138 CURVE",
"736 139 LINE",
"732 138 OFFCURVE",
"727 125 OFFCURVE",
"724 121 CURVE",
"722 120 OFFCURVE",
"714 109 OFFCURVE",
"714 107 CURVE",
"710 105 OFFCURVE",
"686 64 OFFCURVE",
"676 53 CURVE SMOOTH",
"674 50 OFFCURVE",
"672 47 OFFCURVE",
"669 44 CURVE",
"664 36 OFFCURVE",
"658 30 OFFCURVE",
"653 23 CURVE SMOOTH",
"637 1 OFFCURVE",
"621 -17 OFFCURVE",
"596 -21 CURVE SMOOTH",
"594 -21 LINE",
"590 -16 OFFCURVE",
"583 -14 OFFCURVE",
"576 -14 CURVE",
"575 -12 OFFCURVE",
"574 -9 OFFCURVE",
"574 -6 CURVE",
"572 2 OFFCURVE",
"573 11 OFFCURVE",
"573 19 CURVE SMOOTH",
"576 76 OFFCURVE",
"596 158 OFFCURVE",
"619 229 CURVE",
"623 229 OFFCURVE",
"633 228 OFFCURVE",
"639 228 CURVE",
"642 233 LINE",
"648 234 OFFCURVE",
"657 236 OFFCURVE",
"659 236 CURVE SMOOTH",
"661 236 OFFCURVE",
"660 233 OFFCURVE",
"662 233 CURVE",
"664 236 LINE",
"670 236 OFFCURVE",
"678 239 OFFCURVE",
"681 239 CURVE SMOOTH",
"683 239 OFFCURVE",
"682 237 OFFCURVE",
"684 237 CURVE SMOOTH",
"690 237 OFFCURVE",
"678 247 OFFCURVE",
"672 247 CURVE SMOOTH",
"670 247 OFFCURVE",
"670 249 OFFCURVE",
"669 249 CURVE SMOOTH",
"662 250 OFFCURVE",
"651 251 OFFCURVE",
"642 251 CURVE SMOOTH",
"626 251 LINE",
"642 299 OFFCURVE",
"658 340 OFFCURVE",
"670 362 CURVE SMOOTH",
"673 368 OFFCURVE",
"706 434 OFFCURVE",
"711 440 CURVE SMOOTH",
"714 444 OFFCURVE",
"716 450 OFFCURVE",
"719 454 CURVE SMOOTH",
"731 472 OFFCURVE",
"758 505 OFFCURVE",
"771 521 CURVE SMOOTH",
"776 527 OFFCURVE",
"794 546 OFFCURVE",
"795 551 CURVE",
"798 552 OFFCURVE",
"810 566 OFFCURVE",
"811 569 CURVE",
"817 570 OFFCURVE",
"821 577 OFFCURVE",
"827 583 CURVE",
"835 580 OFFCURVE",
"842 578 OFFCURVE",
"848 583 CURVE SMOOTH",
"894 623 OFFCURVE",
"845 628 OFFCURVE",
"845 628 CURVE",
"846 630 OFFCURVE",
"822 631 OFFCURVE",
"804 631 CURVE",
"811 651 OFFCURVE",
"792 652 OFFCURVE",
"766 643 CURVE",
"761 642 OFFCURVE",
"755 637 OFFCURVE",
"748 631 CURVE",
"742 631 LINE SMOOTH",
"739 631 OFFCURVE",
"737 631 OFFCURVE",
"735 629 CURVE",
"731 631 OFFCURVE",
"726 633 OFFCURVE",
"722 633 CURVE SMOOTH",
"720 633 OFFCURVE",
"717 632 OFFCURVE",
"714 630 CURVE",
"707 631 OFFCURVE",
"696 636 OFFCURVE",
"687 633 CURVE",
"681 634 OFFCURVE",
"675 635 OFFCURVE",
"669 635 CURVE SMOOTH",
"664 635 OFFCURVE",
"660 634 OFFCURVE",
"654 633 CURVE",
"648 634 OFFCURVE",
"640 636 OFFCURVE",
"632 632 CURVE",
"631 631 LINE",
"609 634 OFFCURVE",
"461 615 OFFCURVE",
"443 599 CURVE",
"442 599 LINE SMOOTH",
"416 602 OFFCURVE",
"333 561 OFFCURVE",
"307 553 CURVE",
"305 551 OFFCURVE",
"265 531 OFFCURVE",
"261 529 CURVE SMOOTH",
"239 516 OFFCURVE",
"216 505 OFFCURVE",
"194 490 CURVE SMOOTH",
"121 438 OFFCURVE",
"38 356 OFFCURVE",
"5 283 CURVE SMOOTH",
"-1 270 OFFCURVE",
"-8 250 OFFCURVE",
"0 242 CURVE",
"12 235 LINE",
"18 234 OFFCURVE",
"29 156 OFFCURVE",
"29 177 CURVE SMOOTH",
"29 340 OFFCURVE",
"262 550 OFFCURVE",
"455 583 CURVE",
"462 593 OFFCURVE",
"529 592 OFFCURVE",
"546 604 CURVE",
"591 606 OFFCURVE",
"668 605 OFFCURVE",
"706 605 CURVE SMOOTH",
"723 605 LINE",
"694 571 LINE SMOOTH",
"681 557 OFFCURVE",
"671 543 OFFCURVE",
"659 529 CURVE SMOOTH",
"652 521 OFFCURVE",
"564 438 OFFCURVE",
"559 430 CURVE",
"554 429 OFFCURVE",
"509 380 OFFCURVE",
"501 375 CURVE",
"473 353 OFFCURVE",
"462 331 OFFCURVE",
"435 309 CURVE SMOOTH",
"421 296 OFFCURVE",
"422 289 OFFCURVE",
"409 277 CURVE",
"407 276 OFFCURVE",
"402 268 OFFCURVE",
"398 266 CURVE SMOOTH",
"389 261 OFFCURVE",
"381 255 OFFCURVE",
"372 249 CURVE",
"371 249 LINE SMOOTH",
"367 249 OFFCURVE",
"352 250 OFFCURVE",
"350 250 CURVE SMOOTH",
"348 250 OFFCURVE",
"315 245 OFFCURVE",
"312 245 CURVE SMOOTH",
"310 245 OFFCURVE",
"311 247 OFFCURVE",
"309 248 CURVE",
"292 220 LINE",
"290 213 OFFCURVE",
"289 206 OFFCURVE",
"289 200 CURVE",
"296 197 LINE",
"297 198 OFFCURVE",
"314 197 OFFCURVE",
"315 197 CURVE SMOOTH",
"318 197 OFFCURVE",
"324 204 OFFCURVE",
"326 204 CURVE SMOOTH",
"329 204 OFFCURVE",
"326 203 OFFCURVE",
"328 203 CURVE SMOOTH",
"330 203 LINE",
"302 179 OFFCURVE",
"299 164 OFFCURVE",
"267 138 CURVE SMOOTH",
"156 42 LINE SMOOTH",
"78 -25 OFFCURVE",
"94 -5 OFFCURVE",
"32 -48 CURVE",
"18 -55 OFFCURVE",
"-27 -89 OFFCURVE",
"-41 -95 CURVE SMOOTH",
"-87 -119 OFFCURVE",
"-123 -126 OFFCURVE",
"-170 -144 CURVE SMOOTH",
"-182 -149 OFFCURVE",
"-202 -149 OFFCURVE",
"-212 -156 CURVE",
"-221 -156 OFFCURVE",
"-229 -161 OFFCURVE",
"-237 -162 CURVE SMOOTH",
"-253 -166 OFFCURVE",
"-271 -168 OFFCURVE",
"-286 -173 CURVE",
"-286 -172 OFFCURVE",
"-287 -172 OFFCURVE",
"-288 -171 CURVE",
"-289 -174 OFFCURVE",
"-304 -172 OFFCURVE",
"-308 -174 CURVE",
"-310 -173 LINE",
"-326 -176 LINE",
"-331 -176 OFFCURVE",
"-336 -175 OFFCURVE",
"-340 -174 CURVE",
"-358 -173 OFFCURVE",
"-378 -175 OFFCURVE",
"-390 -166 CURVE SMOOTH",
"-396 -162 OFFCURVE",
"-398 -155 OFFCURVE",
"-402 -150 CURVE",
"-403 -146 LINE",
"-407 -148 LINE",
"-408 -153 OFFCURVE",
"-397 -164 OFFCURVE",
"-396 -169 CURVE",
"-386 -175 LINE SMOOTH",
"-379 -180 OFFCURVE",
"-371 -183 OFFCURVE",
"-362 -186 CURVE SMOOTH",
"-359 -187 OFFCURVE",
"-357 -189 OFFCURVE",
"-354 -188 CURVE SMOOTH",
"-353 -188 LINE",
"-347 -190 LINE SMOOTH",
"-341 -192 OFFCURVE",
"-315 -196 OFFCURVE",
"-309 -193 CURVE",
"-306 -193 LINE",
"-289 -195 LINE",
"-285 -194 OFFCURVE",
"-280 -195 OFFCURVE",
"-275 -194 CURVE SMOOTH",
"-243 -187 LINE",
"-237 -187 OFFCURVE",
"-213 -182 OFFCURVE",
"-209 -179 CURVE",
"-201 -180 OFFCURVE",
"-194 -176 OFFCURVE",
"-186 -174 CURVE SMOOTH",
"-177 -172 OFFCURVE",
"-168 -169 OFFCURVE",
"-159 -166 CURVE SMOOTH",
"-153 -164 OFFCURVE",
"-147 -162 OFFCURVE",
"-141 -161 CURVE",
"-122 -152 LINE",
"-117 -152 OFFCURVE",
"-100 -143 OFFCURVE",
"-94 -140 CURVE SMOOTH",
"-69 -128 OFFCURVE",
"-43 -115 OFFCURVE",
"-19 -100 CURVE SMOOTH",
"43 -61 OFFCURVE",
"-2 -95 OFFCURVE",
"81 -42 CURVE SMOOTH",
"105 -27 OFFCURVE",
"132 -3 OFFCURVE",
"162 18 CURVE SMOOTH",
"183 33 OFFCURVE",
"210 55 OFFCURVE",
"220 63 CURVE SMOOTH",
"227 69 OFFCURVE",
"235 75 OFFCURVE",
"242 82 CURVE SMOOTH",
"274 112 LINE",
"285 119 LINE",
"301 134 LINE",
"315 145 LINE SMOOTH",
"328 154 OFFCURVE",
"338 166 OFFCURVE",
"350 176 CURVE SMOOTH",
"374 196 LINE SMOOTH",
"384 204 OFFCURVE",
"389 213 OFFCURVE",
"399 222 CURVE",
"503 222 LINE SMOOTH",
"506 222 OFFCURVE",
"510 225 OFFCURVE",
"512 225 CURVE",
"513 226 LINE",
"515 226 OFFCURVE",
"516 224 OFFCURVE",
"518 224 CURVE SMOOTH",
"519 224 LINE SMOOTH",
"526 225 OFFCURVE",
"541 225 OFFCURVE",
"556 225 CURVE",
"558 213 OFFCURVE",
"552 211 OFFCURVE",
"548 197 CURVE SMOOTH",
"545 187 OFFCURVE",
"540 167 OFFCURVE",
"535 159 CURVE",
"536 152 LINE SMOOTH",
"536 144 OFFCURVE",
"526 113 OFFCURVE",
"528 104 CURVE",
"528 102 OFFCURVE",
"529 100 OFFCURVE",
"530 98 CURVE",
"531 100 OFFCURVE",
"531 103 OFFCURVE",
"531 105 CURVE",
"532 106 LINE",
"532 105 OFFCURVE",
"532 105 OFFCURVE",
"533 105 CURVE",
"533 99 OFFCURVE",
"526 72 OFFCURVE",
"523 67 CURVE",
"524 66 LINE",
"523 66 LINE",
"521 76 OFFCURVE",
"525 83 OFFCURVE",
"525 93 CURVE",
"524 93 LINE",
"524 89 OFFCURVE",
"521 75 OFFCURVE",
"520 70 CURVE SMOOTH",
"517 46 OFFCURVE",
"527 33 OFFCURVE",
"531 12 CURVE SMOOTH",
"534 -7 OFFCURVE",
"543 5 OFFCURVE",
"553 -7 CURVE SMOOTH",
"555 -10 OFFCURVE",
"557 -14 OFFCURVE",
"560 -16 CURVE",
"557 -17 OFFCURVE",
"555 -19 OFFCURVE",
"554 -21 CURVE",
"529 -47 OFFCURVE",
"488 -102 OFFCURVE",
"471 -132 CURVE SMOOTH",
"464 -145 OFFCURVE",
"455 -158 OFFCURVE",
"455 -174 CURVE SMOOTH",
"454 -185 OFFCURVE",
"458 -193 OFFCURVE",
"462 -202 CURVE SMOOTH",
"466 -211 OFFCURVE",
"495 -229 OFFCURVE",
"505 -233 CURVE SMOOTH",
"519 -239 OFFCURVE",
"559 -231 OFFCURVE",
"572 -224 CURVE SMOOTH",
"584 -217 OFFCURVE",
"611 -201 OFFCURVE",
"627 -177 CURVE",
"640 -163 OFFCURVE",
"647 -152 OFFCURVE",
"654 -139 CURVE SMOOTH"
);
},
{
closed = 1;
nodes = (
"661 475 LINE",
"654 461 LINE",
"640 439 OFFCURVE",
"627 410 OFFCURVE",
"615 385 CURVE SMOOTH",
"609 371 OFFCURVE",
"605 357 OFFCURVE",
"599 343 CURVE SMOOTH",
"596 338 OFFCURVE",
"593 333 OFFCURVE",
"591 327 CURVE SMOOTH",
"581 304 OFFCURVE",
"571 277 OFFCURVE",
"563 252 CURVE",
"548 253 OFFCURVE",
"533 254 OFFCURVE",
"532 251 CURVE",
"531 250 LINE",
"439 250 LINE",
"441 252 LINE",
"470 284 LINE",
"475 291 LINE SMOOTH",
"480 296 OFFCURVE",
"488 300 OFFCURVE",
"493 304 CURVE",
"652 467 LINE SMOOTH",
"656 472 OFFCURVE",
"661 476 OFFCURVE",
"665 480 CURVE"
);
}
);
width = 731;
}
);
note = Aogonek;
unicode = 0104;
},
{
color = 3;
glyphname = Atilde;
lastChange = "2021-04-23 03:36:15 +0000";
layers = (
{
hints = (
{
horizontal = 1;
place = "{222, 28}";
type = Stem;
},
{
horizontal = 1;
place = "{606, 27}";
type = Stem;
},
{
horizontal = 1;
place = "{606, 24}";
type = Stem;
},
{
horizontal = 1;
place = "{605, 30}";
type = Stem;
},
{
horizontal = 1;
place = "{225, 25}";
type = Stem;
},
{
horizontal = 1;
place = "{228, 23}";
type = Stem;
}
);
layerId = "E8487A59-2E36-4739-8DF2-414A9818920F";
paths = (
{
closed = 1;
nodes = (
"894 623 OFFCURVE",
"845 628 OFFCURVE",
"845 628 CURVE",
"846 630 OFFCURVE",
"822 631 OFFCURVE",
"804 631 CURVE",
"811 651 OFFCURVE",
"792 652 OFFCURVE",
"766 643 CURVE",
"761 642 OFFCURVE",
"755 637 OFFCURVE",
"748 631 CURVE",
"742 631 LINE SMOOTH",
"739 631 OFFCURVE",
"737 631 OFFCURVE",
"735 629 CURVE",
"731 631 OFFCURVE",
"726 633 OFFCURVE",
"722 633 CURVE SMOOTH",
"720 633 OFFCURVE",
"717 632 OFFCURVE",
"714 630 CURVE",
"707 631 OFFCURVE",
"696 636 OFFCURVE",
"687 633 CURVE",
"681 634 OFFCURVE",
"675 635 OFFCURVE",
"669 635 CURVE SMOOTH",
"664 635 OFFCURVE",
"660 634 OFFCURVE",
"654 633 CURVE",
"648 634 OFFCURVE",
"640 636 OFFCURVE",
"632 632 CURVE",
"631 631 LINE",
"609 634 OFFCURVE",
"461 615 OFFCURVE",
"443 599 CURVE",
"442 599 LINE SMOOTH",
"416 602 OFFCURVE",
"333 561 OFFCURVE",
"307 553 CURVE",
"305 551 OFFCURVE",
"265 531 OFFCURVE",
"261 529 CURVE SMOOTH",
"239 516 OFFCURVE",
"216 505 OFFCURVE",
"194 490 CURVE SMOOTH",
"121 438 OFFCURVE",
"38 356 OFFCURVE",
"5 283 CURVE SMOOTH",
"-1 270 OFFCURVE",
"-8 250 OFFCURVE",
"0 242 CURVE",
"12 235 LINE",
"18 234 OFFCURVE",
"29 156 OFFCURVE",
"29 177 CURVE SMOOTH",
"29 340 OFFCURVE",
"262 550 OFFCURVE",
"455 583 CURVE",
"462 593 OFFCURVE",
"529 592 OFFCURVE",
"546 604 CURVE",
"591 606 OFFCURVE",
"668 605 OFFCURVE",
"706 605 CURVE SMOOTH",
"723 605 LINE",
"694 571 LINE SMOOTH",
"681 557 OFFCURVE",
"671 543 OFFCURVE",
"659 529 CURVE SMOOTH",
"652 521 OFFCURVE",
"564 438 OFFCURVE",
"559 430 CURVE",
"554 429 OFFCURVE",
"509 380 OFFCURVE",
"501 375 CURVE",
"473 353 OFFCURVE",
"462 331 OFFCURVE",
"435 309 CURVE SMOOTH",
"421 296 OFFCURVE",
"422 289 OFFCURVE",
"409 277 CURVE",
"407 276 OFFCURVE",
"402 268 OFFCURVE",
"398 266 CURVE SMOOTH",
"389 261 OFFCURVE",
"381 255 OFFCURVE",
"372 249 CURVE",
"371 249 LINE SMOOTH",
"367 249 OFFCURVE",
"352 250 OFFCURVE",
"350 250 CURVE SMOOTH",
"348 250 OFFCURVE",
"315 245 OFFCURVE",
"312 245 CURVE SMOOTH",
"310 245 OFFCURVE",
"311 247 OFFCURVE",
"309 248 CURVE",
"292 220 LINE",
"290 213 OFFCURVE",
"289 206 OFFCURVE",
"289 200 CURVE",
"296 197 LINE",
"297 198 OFFCURVE",
"314 197 OFFCURVE",
"315 197 CURVE SMOOTH",
"318 197 OFFCURVE",
"324 204 OFFCURVE",
"326 204 CURVE SMOOTH",
"329 204 OFFCURVE",
"326 203 OFFCURVE",
"328 203 CURVE SMOOTH",
"330 203 LINE",
"302 179 OFFCURVE",
"299 164 OFFCURVE",
"267 138 CURVE SMOOTH",
"156 42 LINE SMOOTH",
"78 -25 OFFCURVE",
"94 -5 OFFCURVE",
"32 -48 CURVE",
"18 -55 OFFCURVE",
"-27 -89 OFFCURVE",
"-41 -95 CURVE SMOOTH",
"-87 -119 OFFCURVE",
"-123 -126 OFFCURVE",
"-170 -144 CURVE SMOOTH",
"-182 -149 OFFCURVE",
"-202 -149 OFFCURVE",
"-212 -156 CURVE",
"-221 -156 OFFCURVE",
"-229 -161 OFFCURVE",
"-237 -162 CURVE SMOOTH",
"-253 -166 OFFCURVE",
"-271 -168 OFFCURVE",
"-286 -173 CURVE",
"-286 -172 OFFCURVE",
"-287 -172 OFFCURVE",
"-288 -171 CURVE",
"-289 -174 OFFCURVE",
"-304 -172 OFFCURVE",
"-308 -174 CURVE",
"-310 -173 LINE",
"-326 -176 LINE",
"-331 -176 OFFCURVE",
"-336 -175 OFFCURVE",
"-340 -174 CURVE",
"-358 -173 OFFCURVE",
"-378 -175 OFFCURVE",
"-390 -166 CURVE SMOOTH",
"-396 -162 OFFCURVE",
"-398 -155 OFFCURVE",
"-402 -150 CURVE",
"-403 -146 LINE",
"-407 -148 LINE",
"-408 -153 OFFCURVE",
"-397 -164 OFFCURVE",
"-396 -169 CURVE",
"-386 -175 LINE SMOOTH",
"-379 -180 OFFCURVE",
"-371 -183 OFFCURVE",
"-362 -186 CURVE SMOOTH",
"-359 -187 OFFCURVE",
"-357 -189 OFFCURVE",
"-354 -188 CURVE SMOOTH",
"-353 -188 LINE",
"-347 -190 LINE SMOOTH",
"-341 -192 OFFCURVE",
"-315 -196 OFFCURVE",
"-309 -193 CURVE",
"-306 -193 LINE",
"-289 -195 LINE",
"-285 -194 OFFCURVE",
"-280 -195 OFFCURVE",
"-275 -194 CURVE SMOOTH",
"-243 -187 LINE",
"-237 -187 OFFCURVE",
"-213 -182 OFFCURVE",
"-209 -179 CURVE",
"-201 -180 OFFCURVE",
"-194 -176 OFFCURVE",
"-186 -174 CURVE SMOOTH",
"-177 -172 OFFCURVE",
"-168 -169 OFFCURVE",
"-159 -166 CURVE SMOOTH",
"-153 -164 OFFCURVE",
"-147 -162 OFFCURVE",
"-141 -161 CURVE",
"-122 -152 LINE",
"-117 -152 OFFCURVE",
"-100 -143 OFFCURVE",
"-94 -140 CURVE SMOOTH",
"-69 -128 OFFCURVE",
"-43 -115 OFFCURVE",
"-19 -100 CURVE SMOOTH",
"43 -61 OFFCURVE",
"-2 -95 OFFCURVE",
"81 -42 CURVE SMOOTH",
"105 -27 OFFCURVE",
"132 -3 OFFCURVE",
"162 18 CURVE SMOOTH",
"183 33 OFFCURVE",
"210 55 OFFCURVE",
"220 63 CURVE SMOOTH",
"227 69 OFFCURVE",
"235 75 OFFCURVE",
"242 82 CURVE SMOOTH",
"274 112 LINE",
"285 119 LINE",
"301 134 LINE",
"315 145 LINE SMOOTH",
"328 154 OFFCURVE",
"338 166 OFFCURVE",
"350 176 CURVE SMOOTH",
"374 196 LINE SMOOTH",
"384 204 OFFCURVE",
"389 213 OFFCURVE",
"399 222 CURVE",
"503 222 LINE SMOOTH",
"506 222 OFFCURVE",
"510 225 OFFCURVE",
"512 225 CURVE",
"513 226 LINE",
"515 226 OFFCURVE",
"516 224 OFFCURVE",
"518 224 CURVE SMOOTH",
"519 224 LINE SMOOTH",
"526 225 OFFCURVE",
"541 225 OFFCURVE",
"556 225 CURVE",
"558 213 OFFCURVE",
"552 211 OFFCURVE",
"548 197 CURVE SMOOTH",
"545 187 OFFCURVE",
"540 167 OFFCURVE",
"535 159 CURVE",
"536 152 LINE SMOOTH",
"536 144 OFFCURVE",
"526 113 OFFCURVE",
"528 104 CURVE",
"528 102 OFFCURVE",
"529 100 OFFCURVE",
"530 98 CURVE",
"531 100 OFFCURVE",
"531 103 OFFCURVE",
"531 105 CURVE",
"532 106 LINE",
"532 105 OFFCURVE",
"532 105 OFFCURVE",
"533 105 CURVE",
"533 99 OFFCURVE",
"526 72 OFFCURVE",
"523 67 CURVE",
"524 66 LINE",
"523 66 LINE",
"521 76 OFFCURVE",
"525 83 OFFCURVE",
"525 93 CURVE",
"524 93 LINE",
"524 89 OFFCURVE",
"521 75 OFFCURVE",
"520 70 CURVE SMOOTH",
"517 46 OFFCURVE",
"527 33 OFFCURVE",
"531 12 CURVE SMOOTH",
"534 -7 OFFCURVE",
"543 5 OFFCURVE",
"553 -7 CURVE SMOOTH",
"556 -11 OFFCURVE",
"559 -16 OFFCURVE",
"562 -18 CURVE SMOOTH",
"569 -24 OFFCURVE",
"580 -26 OFFCURVE",
"583 -37 CURVE",
"587 -37 OFFCURVE",
"597 -51 OFFCURVE",
"610 -48 CURVE SMOOTH",
"622 -46 OFFCURVE",
"664 6 OFFCURVE",
"671 19 CURVE SMOOTH",
"674 25 OFFCURVE",
"692 57 OFFCURVE",
"694 58 CURVE",
"694 59 OFFCURVE",
"733 120 OFFCURVE",
"742 138 CURVE",
"736 139 LINE",
"732 138 OFFCURVE",
"727 125 OFFCURVE",
"724 121 CURVE",
"722 120 OFFCURVE",
"714 109 OFFCURVE",
"714 107 CURVE",
"710 105 OFFCURVE",
"686 64 OFFCURVE",
"676 53 CURVE SMOOTH",
"674 50 OFFCURVE",
"672 47 OFFCURVE",
"669 44 CURVE",
"664 36 OFFCURVE",
"658 30 OFFCURVE",
"653 23 CURVE SMOOTH",
"637 1 OFFCURVE",
"621 -17 OFFCURVE",
"596 -21 CURVE SMOOTH",
"585 -23 OFFCURVE",
"577 -25 OFFCURVE",
"574 -6 CURVE SMOOTH",
"572 2 OFFCURVE",
"573 11 OFFCURVE",
"573 19 CURVE SMOOTH",
"576 76 OFFCURVE",
"596 158 OFFCURVE",
"619 229 CURVE",
"623 229 OFFCURVE",
"633 228 OFFCURVE",
"639 228 CURVE",
"642 233 LINE",
"648 234 OFFCURVE",
"657 236 OFFCURVE",
"659 236 CURVE SMOOTH",
"661 236 OFFCURVE",
"660 233 OFFCURVE",
"662 233 CURVE",
"664 236 LINE",
"670 236 OFFCURVE",
"678 239 OFFCURVE",
"681 239 CURVE SMOOTH",
"683 239 OFFCURVE",
"682 237 OFFCURVE",
"684 237 CURVE SMOOTH",
"690 237 OFFCURVE",
"678 247 OFFCURVE",
"672 247 CURVE SMOOTH",
"670 247 OFFCURVE",
"670 249 OFFCURVE",
"669 249 CURVE SMOOTH",
"662 250 OFFCURVE",
"651 251 OFFCURVE",
"642 251 CURVE SMOOTH",
"626 251 LINE",
"642 299 OFFCURVE",
"658 340 OFFCURVE",
"670 362 CURVE SMOOTH",
"673 368 OFFCURVE",
"706 434 OFFCURVE",
"711 440 CURVE SMOOTH",
"714 444 OFFCURVE",
"716 450 OFFCURVE",
"719 454 CURVE SMOOTH",
"731 472 OFFCURVE",
"758 505 OFFCURVE",
"771 521 CURVE SMOOTH",
"776 527 OFFCURVE",
"794 546 OFFCURVE",
"795 551 CURVE",
"798 552 OFFCURVE",
"810 566 OFFCURVE",
"811 569 CURVE",
"817 570 OFFCURVE",
"821 577 OFFCURVE",
"827 583 CURVE",
"835 580 OFFCURVE",
"842 578 OFFCURVE",
"848 583 CURVE SMOOTH"
);
},
{
closed = 1;
nodes = (
"661 475 LINE",
"654 461 LINE",
"640 439 OFFCURVE",
"627 410 OFFCURVE",
"615 385 CURVE SMOOTH",
"609 371 OFFCURVE",
"605 357 OFFCURVE",
"599 343 CURVE SMOOTH",
"596 338 OFFCURVE",
"593 333 OFFCURVE",
"591 327 CURVE SMOOTH",
"581 304 OFFCURVE",
"571 277 OFFCURVE",
"563 252 CURVE",
"548 253 OFFCURVE",
"533 254 OFFCURVE",
"532 251 CURVE",
"531 250 LINE",
"439 250 LINE",
"441 252 LINE",
"470 284 LINE",
"475 291 LINE SMOOTH",
"480 296 OFFCURVE",
"488 300 OFFCURVE",
"493 304 CURVE",
"652 467 LINE SMOOTH",
"656 472 OFFCURVE",
"661 476 OFFCURVE",
"665 480 CURVE"
);
},
{
closed = 1;
nodes = (
"992 776 OFFCURVE",
"990 782 OFFCURVE",
"985 764 CURVE SMOOTH",
"980 747 OFFCURVE",
"963 713 OFFCURVE",
"938 711 CURVE",
"937 708 OFFCURVE",
"922 721 OFFCURVE",
"919 717 CURVE",
"918 718 OFFCURVE",
"917 718 OFFCURVE",
"916 718 CURVE",
"916 717 OFFCURVE",
"910 718 OFFCURVE",
"909 718 CURVE SMOOTH",
"908 718 LINE",
"908 717 LINE",
"907 717 OFFCURVE",
"907 718 OFFCURVE",
"906 718 CURVE SMOOTH",
"904 718 LINE SMOOTH",
"903 718 OFFCURVE",
"902 719 OFFCURVE",
"901 719 CURVE",
"893 723 LINE",
"892 723 OFFCURVE",
"880 730 OFFCURVE",
"878 729 CURVE",
"872 732 OFFCURVE",
"866 736 OFFCURVE",
"860 738 CURVE",
"858 738 OFFCURVE",
"861 737 OFFCURVE",
"859 737 CURVE",
"859 736 LINE",
"858 737 OFFCURVE",
"859 739 OFFCURVE",
"855 740 CURVE",
"844 746 OFFCURVE",
"839 745 OFFCURVE",
"836 750 CURVE",
"836 750 OFFCURVE",
"836 749 OFFCURVE",
"835 749 CURVE",
"836 750 OFFCURVE",
"833 752 OFFCURVE",
"833 752 CURVE",
"828 753 OFFCURVE",
"823 757 OFFCURVE",
"819 760 CURVE",
"819 759 LINE",
"818 759 OFFCURVE",
"817 760 OFFCURVE",
"815 761 CURVE",
"814 760 LINE",
"814 761 OFFCURVE",
"813 762 OFFCURVE",
"812 762 CURVE",
"811 761 LINE",
"810 762 OFFCURVE",
"808 764 OFFCURVE",
"807 763 CURVE",
"804 765 LINE",
"803 765 OFFCURVE",
"802 765 OFFCURVE",
"801 764 CURVE",
"800 765 OFFCURVE",
"799 766 OFFCURVE",
"798 765 CURVE",
"794 766 OFFCURVE",
"767 765 OFFCURVE",
"764 761 CURVE",
"745 748 LINE",
"741 750 OFFCURVE",
"726 735 OFFCURVE",
"722 734 CURVE",
"721 733 OFFCURVE",
"715 728 OFFCURVE",
"714 728 CURVE",
"710 725 OFFCURVE",
"706 722 OFFCURVE",
"703 718 CURVE SMOOTH",
"691 705 OFFCURVE",
"701 707 OFFCURVE",
"695 686 CURVE SMOOTH",
"692 673 OFFCURVE",
"694 666 OFFCURVE",
"699 684 CURVE SMOOTH",
"704 702 OFFCURVE",
"721 735 OFFCURVE",
"746 738 CURVE",
"747 740 OFFCURVE",
"758 738 OFFCURVE",
"761 741 CURVE",
"762 740 OFFCURVE",
"763 741 OFFCURVE",
"764 740 CURVE",
"764 742 OFFCURVE",
"770 741 OFFCURVE",
"771 741 CURVE SMOOTH",
"772 741 LINE",
"772 742 LINE",
"773 741 OFFCURVE",
"774 741 OFFCURVE",
"774 741 CURVE",
"776 741 LINE SMOOTH",
"777 741 OFFCURVE",
"778 740 OFFCURVE",
"779 740 CURVE",
"787 736 LINE",
"789 736 OFFCURVE",
"789 735 OFFCURVE",
"791 734 CURVE",
"792 736 LINE",
"792 735 LINE",
"793 735 LINE",
"793 734 LINE",
"794 733 OFFCURVE",
"795 732 OFFCURVE",
"796 732 CURVE SMOOTH",
"797 732 OFFCURVE",
"798 732 OFFCURVE",
"799 733 CURVE",
"799 731 LINE",
"801 731 LINE",
"801 730 LINE",
"802 730 OFFCURVE",
"802 729 OFFCURVE",
"802 729 CURVE",
"803 731 LINE",
"803 728 LINE",
"803 728 OFFCURVE",
"804 728 OFFCURVE",
"805 729 CURVE",
"806 729 OFFCURVE",
"806 725 OFFCURVE",
"807 725 CURVE SMOOTH",
"808 725 LINE",
"813 722 LINE",
"813 722 OFFCURVE",
"814 721 OFFCURVE",
"814 720 CURVE",
"815 722 LINE",
"816 721 LINE",
"815 719 LINE",
"818 717 LINE",
"818 720 LINE",
"819 719 OFFCURVE",
"820 714 OFFCURVE",
"822 714 CURVE SMOOTH",
"823 714 LINE",
"823 713 OFFCURVE",
"840 706 OFFCURVE",
"841 704 CURVE",
"871 684 OFFCURVE",
"890 684 OFFCURVE",
"892 684 CURVE SMOOTH",
"895 684 LINE SMOOTH",
"912 682 OFFCURVE",
"935 696 OFFCURVE",
"938 700 CURVE",
"939 700 LINE",
"943 698 OFFCURVE",
"958 713 OFFCURVE",
"962 714 CURVE",
"963 715 OFFCURVE",
"969 720 OFFCURVE",
"970 720 CURVE",
"981 730 LINE",
"993 744 OFFCURVE",
"983 741 OFFCURVE",
"989 763 CURVE SMOOTH"
);
}
);
width = 731;
}
);
note = Atilde;
unicode = 00C3;
},
{
color = 3;
glyphname = AE;
lastChange = "2021-04-23 03:36:15 +0000";
layers = (
{
hints = (
{
horizontal = 1;
place = "{222, 28}";
type = Stem;
},
{
horizontal = 1;
place = "{298, 30}";
type = Stem;
},
{
horizontal = 1;
place = "{505, 49}";
type = Stem;
},
{
horizontal = 1;
place = "{606, 27}";
type = Stem;
},
{
horizontal = 1;
place = "{606, 24}";
type = Stem;
},
{
horizontal = 1;
place = "{605, 30}";
type = Stem;
},
{
horizontal = 1;
place = "{225, 25}";
type = Stem;
},
{
horizontal = 1;
place = "{228, 23}";
type = Stem;
}
);
layerId = "E8487A59-2E36-4739-8DF2-414A9818920F";
paths = (
{
closed = 1;
nodes = (
"1457 613 OFFCURVE",
"1453 603 OFFCURVE",
"1448 598 CURVE SMOOTH",
"1421 571 OFFCURVE",
"1361 556 OFFCURVE",
"1330 554 CURVE SMOOTH",
"1326 554 OFFCURVE",
"1321 557 OFFCURVE",
"1318 554 CURVE",
"1302 556 OFFCURVE",
"1287 562 OFFCURVE",
"1271 561 CURVE",
"1268 560 OFFCURVE",
"1264 560 OFFCURVE",
"1260 557 CURVE",
"1260 556 LINE",
"1257 557 OFFCURVE",
"1259 562 OFFCURVE",
"1251 563 CURVE SMOOTH",
"1243 564 OFFCURVE",
"1239 569 OFFCURVE",
"1230 568 CURVE SMOOTH",
"1229 568 OFFCURVE",
"1223 568 OFFCURVE",
"1222 567 CURVE",
"1221 568 LINE",
"1222 573 LINE",
"1216 574 OFFCURVE",
"1215 572 OFFCURVE",
"1210 573 CURVE",
"1203 571 LINE",
"1203 569 LINE",
"1202 570 LINE",
"1198 571 OFFCURVE",
"1197 577 OFFCURVE",
"1193 576 CURVE",
"1193 576 OFFCURVE",
"1192 576 OFFCURVE",
"1191 575 CURVE",
"1191 576 OFFCURVE",
"1190 575 OFFCURVE",
"1190 574 CURVE",
"1187 575 OFFCURVE",
"1185 579 OFFCURVE",
"1183 581 CURVE",
"1182 576 LINE",
"1181 576 OFFCURVE",
"1181 576 OFFCURVE",
"1181 575 CURVE SMOOTH",
"1180 580 LINE",
"1177 580 LINE SMOOTH",
"1174 580 OFFCURVE",
"1170 578 OFFCURVE",
"1169 584 CURVE",
"1164 580 LINE",
"1164 585 LINE",
"1161 585 LINE",
"1160 580 LINE",
"1154 581 OFFCURVE",
"1136 588 OFFCURVE",
"1126 585 CURVE",
"1109 586 LINE",
"1067 591 LINE",
"1065 598 LINE",
"1061 598 LINE",
"1061 595 OFFCURVE",
"1059 594 OFFCURVE",
"1058 594 CURVE SMOOTH",
"1053 594 OFFCURVE",
"1036 599 OFFCURVE",
"1032 602 CURVE",
"1030 600 LINE",
"1030 599 LINE",
"1019 601 OFFCURVE",
"1009 610 OFFCURVE",
"999 609 CURVE SMOOTH",
"998 609 OFFCURVE",
"995 607 OFFCURVE",
"995 608 CURVE SMOOTH",
"995 611 OFFCURVE",
"979 612 OFFCURVE",
"975 614 CURVE",
"974 614 OFFCURVE",
"972 611 OFFCURVE",
"972 612 CURVE SMOOTH",
"972 616 OFFCURVE",
"958 618 OFFCURVE",
"956 618 CURVE SMOOTH",
"934 617 OFFCURVE",
"908 624 OFFCURVE",
"887 629 CURVE",
"886 625 LINE",
"880 626 OFFCURVE",
"874 629 OFFCURVE",
"868 629 CURVE SMOOTH",
"867 629 OFFCURVE",
"865 628 OFFCURVE",
"863 627 CURVE",
"861 628 OFFCURVE",
"856 630 OFFCURVE",
"853 629 CURVE",
"851 629 OFFCURVE",
"850 629 OFFCURVE",
"848 627 CURVE",
"846 628 OFFCURVE",
"845 628 OFFCURVE",
"845 628 CURVE",
"846 630 OFFCURVE",
"822 631 OFFCURVE",
"804 631 CURVE",
"811 651 OFFCURVE",
"792 652 OFFCURVE",
"766 643 CURVE",
"761 642 OFFCURVE",
"755 637 OFFCURVE",
"748 631 CURVE",
"742 631 LINE SMOOTH",
"739 631 OFFCURVE",
"737 631 OFFCURVE",
"735 629 CURVE",
"731 631 OFFCURVE",
"726 633 OFFCURVE",
"722 633 CURVE SMOOTH",
"720 633 OFFCURVE",
"717 632 OFFCURVE",
"714 630 CURVE",
"707 631 OFFCURVE",
"696 636 OFFCURVE",
"687 633 CURVE",
"681 634 OFFCURVE",
"675 635 OFFCURVE",
"669 635 CURVE SMOOTH",
"664 635 OFFCURVE",
"660 634 OFFCURVE",
"654 633 CURVE",
"648 634 OFFCURVE",
"640 636 OFFCURVE",
"632 632 CURVE",
"631 631 LINE",
"609 634 OFFCURVE",
"461 615 OFFCURVE",
"443 599 CURVE",
"442 599 LINE SMOOTH",
"416 602 OFFCURVE",
"333 561 OFFCURVE",
"307 553 CURVE",
"305 551 OFFCURVE",
"265 531 OFFCURVE",
"261 529 CURVE SMOOTH",
"239 516 OFFCURVE",
"216 505 OFFCURVE",
"194 490 CURVE SMOOTH",
"121 438 OFFCURVE",
"38 356 OFFCURVE",
"5 283 CURVE SMOOTH",
"-1 270 OFFCURVE",
"-8 250 OFFCURVE",
"0 242 CURVE",
"12 235 LINE",
"18 234 OFFCURVE",
"29 156 OFFCURVE",
"29 177 CURVE SMOOTH",
"29 340 OFFCURVE",
"262 550 OFFCURVE",
"455 583 CURVE",
"462 593 OFFCURVE",
"529 592 OFFCURVE",
"546 604 CURVE",
"591 606 OFFCURVE",
"668 605 OFFCURVE",
"706 605 CURVE SMOOTH",
"723 605 LINE",
"694 571 LINE SMOOTH",
"681 557 OFFCURVE",
"671 543 OFFCURVE",
"659 529 CURVE SMOOTH",
"652 521 OFFCURVE",
"564 438 OFFCURVE",
"559 430 CURVE",
"554 429 OFFCURVE",
"509 380 OFFCURVE",
"501 375 CURVE",
"473 353 OFFCURVE",
"462 331 OFFCURVE",
"435 309 CURVE SMOOTH",
"421 296 OFFCURVE",
"422 289 OFFCURVE",
"409 277 CURVE",
"407 276 OFFCURVE",
"402 268 OFFCURVE",
"398 266 CURVE SMOOTH",
"389 261 OFFCURVE",
"381 255 OFFCURVE",
"372 249 CURVE",
"371 249 LINE SMOOTH",
"367 249 OFFCURVE",
"352 250 OFFCURVE",
"350 250 CURVE SMOOTH",
"348 250 OFFCURVE",
"315 245 OFFCURVE",
"312 245 CURVE SMOOTH",
"310 245 OFFCURVE",
"311 247 OFFCURVE",
"309 248 CURVE",
"292 220 LINE",
"290 213 OFFCURVE",
"289 206 OFFCURVE",
"289 200 CURVE",
"296 197 LINE",
"297 198 OFFCURVE",
"314 197 OFFCURVE",
"315 197 CURVE SMOOTH",
"318 197 OFFCURVE",
"324 204 OFFCURVE",
"326 204 CURVE SMOOTH",
"329 204 OFFCURVE",
"326 203 OFFCURVE",
"328 203 CURVE SMOOTH",
"330 203 LINE",
"302 179 OFFCURVE",
"299 164 OFFCURVE",
"267 138 CURVE SMOOTH",
"156 42 LINE SMOOTH",
"78 -25 OFFCURVE",
"94 -5 OFFCURVE",
"32 -48 CURVE",
"18 -55 OFFCURVE",
"-27 -89 OFFCURVE",
"-41 -95 CURVE SMOOTH",
"-87 -119 OFFCURVE",
"-123 -126 OFFCURVE",
"-170 -144 CURVE SMOOTH",
"-182 -149 OFFCURVE",
"-202 -149 OFFCURVE",
"-212 -156 CURVE",
"-221 -156 OFFCURVE",
"-229 -161 OFFCURVE",
"-237 -162 CURVE SMOOTH",
"-253 -166 OFFCURVE",
"-271 -168 OFFCURVE",
"-286 -173 CURVE",
"-286 -172 OFFCURVE",
"-287 -172 OFFCURVE",
"-288 -171 CURVE",
"-289 -174 OFFCURVE",
"-304 -172 OFFCURVE",
"-308 -174 CURVE",
"-310 -173 LINE",
"-326 -176 LINE",
"-331 -176 OFFCURVE",
"-336 -175 OFFCURVE",
"-340 -174 CURVE",
"-358 -173 OFFCURVE",
"-378 -175 OFFCURVE",
"-390 -166 CURVE SMOOTH",
"-396 -162 OFFCURVE",
"-398 -155 OFFCURVE",
"-402 -150 CURVE",
"-403 -146 LINE",
"-407 -148 LINE",
"-408 -153 OFFCURVE",
"-397 -164 OFFCURVE",
"-396 -169 CURVE",
"-386 -175 LINE SMOOTH",
"-379 -180 OFFCURVE",
"-371 -183 OFFCURVE",
"-362 -186 CURVE SMOOTH",
"-359 -187 OFFCURVE",
"-357 -189 OFFCURVE",
"-354 -188 CURVE SMOOTH",
"-353 -188 LINE",
"-347 -190 LINE SMOOTH",
"-341 -192 OFFCURVE",
"-315 -196 OFFCURVE",
"-309 -193 CURVE",
"-306 -193 LINE",
"-289 -195 LINE",
"-285 -194 OFFCURVE",
"-280 -195 OFFCURVE",
"-275 -194 CURVE SMOOTH",
"-243 -187 LINE",
"-237 -187 OFFCURVE",
"-213 -182 OFFCURVE",
"-209 -179 CURVE",
"-201 -180 OFFCURVE",
"-194 -176 OFFCURVE",
"-186 -174 CURVE SMOOTH",
"-177 -172 OFFCURVE",
"-168 -169 OFFCURVE",
"-159 -166 CURVE SMOOTH",
"-153 -164 OFFCURVE",
"-147 -162 OFFCURVE",
"-141 -161 CURVE",
"-122 -152 LINE",
"-117 -152 OFFCURVE",
"-100 -143 OFFCURVE",
"-94 -140 CURVE SMOOTH",
"-69 -128 OFFCURVE",
"-43 -115 OFFCURVE",
"-19 -100 CURVE SMOOTH",
"43 -61 OFFCURVE",
"-2 -95 OFFCURVE",
"81 -42 CURVE SMOOTH",
"105 -27 OFFCURVE",
"132 -3 OFFCURVE",
"162 18 CURVE SMOOTH",
"183 33 OFFCURVE",
"210 55 OFFCURVE",
"220 63 CURVE SMOOTH",
"227 69 OFFCURVE",
"235 75 OFFCURVE",
"242 82 CURVE SMOOTH",
"274 112 LINE",
"285 119 LINE",
"301 134 LINE",
"315 145 LINE SMOOTH",
"328 154 OFFCURVE",
"338 166 OFFCURVE",
"350 176 CURVE SMOOTH",
"374 196 LINE SMOOTH",
"384 204 OFFCURVE",
"389 213 OFFCURVE",
"399 222 CURVE",
"503 222 LINE SMOOTH",
"506 222 OFFCURVE",
"510 225 OFFCURVE",
"512 225 CURVE",
"513 226 LINE",
"515 226 OFFCURVE",
"516 224 OFFCURVE",
"518 224 CURVE SMOOTH",
"519 224 LINE SMOOTH",
"526 225 OFFCURVE",
"541 225 OFFCURVE",
"556 225 CURVE",
"558 213 OFFCURVE",
"552 211 OFFCURVE",
"548 197 CURVE SMOOTH",
"545 187 OFFCURVE",
"540 167 OFFCURVE",
"535 159 CURVE",
"536 152 LINE SMOOTH",
"536 144 OFFCURVE",
"526 113 OFFCURVE",
"528 104 CURVE",
"528 102 OFFCURVE",
"529 100 OFFCURVE",
"530 98 CURVE",
"531 100 OFFCURVE",
"531 103 OFFCURVE",
"531 105 CURVE",
"532 106 LINE",
"532 105 OFFCURVE",
"532 105 OFFCURVE",
"533 105 CURVE",
"533 99 OFFCURVE",
"526 72 OFFCURVE",
"523 67 CURVE",
"524 66 LINE",
"523 66 LINE",
"521 76 OFFCURVE",
"525 83 OFFCURVE",
"525 93 CURVE",
"524 93 LINE",
"524 89 OFFCURVE",
"521 75 OFFCURVE",
"520 70 CURVE SMOOTH",
"518 50 OFFCURVE",
"517 29 OFFCURVE",
"519 11 CURVE",
"516 10 OFFCURVE",
"513 10 OFFCURVE",
"512 10 CURVE SMOOTH",
"481 5 OFFCURVE",
"501 -20 OFFCURVE",
"542 -16 CURVE",
"625 3 OFFCURVE",
"648 21 OFFCURVE",
"740 30 CURVE SMOOTH",
"749 31 OFFCURVE",
"758 32 OFFCURVE",
"767 34 CURVE",
"819 34 OFFCURVE",
"927 41 OFFCURVE",
"977 39 CURVE SMOOTH",
"991 39 OFFCURVE",
"1003 27 OFFCURVE",
"1022 32 CURVE",
"1027 27 OFFCURVE",
"1037 16 OFFCURVE",
"1045 14 CURVE SMOOTH",
"1060 10 OFFCURVE",
"1075 14 OFFCURVE",
"1093 13 CURVE",
"1092 11 OFFCURVE",
"1092 10 OFFCURVE",
"1092 9 CURVE",
"1097 13 OFFCURVE",
"1103 0 OFFCURVE",
"1109 1 CURVE",
"1107 -2 LINE",
"1123 -7 LINE",
"1125 -10 OFFCURVE",
"1126 -14 OFFCURVE",
"1129 -17 CURVE SMOOTH",
"1138 -29 OFFCURVE",
"1154 -38 OFFCURVE",
"1146 -59 CURVE SMOOTH",
"1143 -68 OFFCURVE",
"1133 -79 OFFCURVE",
"1128 -88 CURVE",
"1121 -96 LINE",
"1128 -95 LINE",
"1135 -89 OFFCURVE",
"1148 -65 OFFCURVE",
"1154 -58 CURVE",
"1156 -53 OFFCURVE",
"1157 -48 OFFCURVE",
"1158 -43 CURVE SMOOTH",
"1161 -32 OFFCURVE",
"1161 -24 OFFCURVE",
"1160 -14 CURVE SMOOTH",
"1160 -11 OFFCURVE",
"1162 -7 OFFCURVE",
"1159 -5 CURVE",
"1158 -6 LINE",
"1158 1 LINE SMOOTH",
"1157 7 OFFCURVE",
"1148 29 OFFCURVE",
"1139 28 CURVE",
"1137 29 LINE",
"1131 43 LINE",
"1126 43 OFFCURVE",
"1124 48 OFFCURVE",
"1120 49 CURVE SMOOTH",
"1089 58 LINE",
"1085 61 OFFCURVE",
"1063 68 OFFCURVE",
"1056 67 CURVE",
"1052 72 OFFCURVE",
"1042 72 OFFCURVE",
"1035 73 CURVE SMOOTH",
"1025 75 OFFCURVE",
"1015 76 OFFCURVE",
"1005 77 CURVE SMOOTH",
"998 78 OFFCURVE",
"990 67 OFFCURVE",
"983 68 CURVE",
"960 79 LINE",
"957 82 OFFCURVE",
"931 78 OFFCURVE",
"923 78 CURVE SMOOTH",
"888 75 OFFCURVE",
"807 64 OFFCURVE",
"768 57 CURVE SMOOTH",
"723 49 LINE",
"599 30 LINE",
"573 24 LINE",
"577 81 OFFCURVE",
"597 160 OFFCURVE",
"619 229 CURVE",
"623 229 OFFCURVE",
"633 228 OFFCURVE",
"639 228 CURVE",
"642 233 LINE",
"648 234 OFFCURVE",
"657 236 OFFCURVE",
"659 236 CURVE SMOOTH",
"661 236 OFFCURVE",
"660 233 OFFCURVE",
"662 233 CURVE",
"664 236 LINE",
"670 236 OFFCURVE",
"678 239 OFFCURVE",
"681 239 CURVE SMOOTH",
"683 239 OFFCURVE",
"682 237 OFFCURVE",
"684 237 CURVE SMOOTH",
"690 237 OFFCURVE",
"678 247 OFFCURVE",
"672 247 CURVE SMOOTH",
"670 247 OFFCURVE",
"670 249 OFFCURVE",
"669 249 CURVE SMOOTH",
"662 250 OFFCURVE",
"651 251 OFFCURVE",
"642 251 CURVE SMOOTH",
"626 251 LINE",
"638 286 LINE",
"641 283 LINE",
"644 283 OFFCURVE",
"662 289 OFFCURVE",
"666 288 CURVE",
"667 289 OFFCURVE",
"692 288 OFFCURVE",
"693 288 CURVE SMOOTH",
"696 288 OFFCURVE",
"700 295 OFFCURVE",
"703 295 CURVE SMOOTH",
"707 295 OFFCURVE",
"703 293 OFFCURVE",
"707 294 CURVE SMOOTH",
"743 298 LINE",
"768 298 LINE SMOOTH",
"772 298 OFFCURVE",
"776 301 OFFCURVE",
"778 302 CURVE",
"787 304 OFFCURVE",
"810 307 OFFCURVE",
"813 307 CURVE SMOOTH",
"816 307 OFFCURVE",
"819 306 OFFCURVE",
"821 306 CURVE",
"824 308 OFFCURVE",
"829 309 OFFCURVE",
"829 309 CURVE",
"837 311 LINE",
"837 311 OFFCURVE",
"859 310 OFFCURVE",
"868 310 CURVE",
"868 312 OFFCURVE",
"868 314 OFFCURVE",
"870 314 CURVE",
"877 316 OFFCURVE",
"887 317 OFFCURVE",
"890 317 CURVE SMOOTH",
"893 317 OFFCURVE",
"895 315 OFFCURVE",
"897 315 CURVE",
"897 316 OFFCURVE",
"897 316 OFFCURVE",
"898 317 CURVE",
"905 317 OFFCURVE",
"915 320 OFFCURVE",
"918 320 CURVE SMOOTH",
"922 320 OFFCURVE",
"921 318 OFFCURVE",
"925 318 CURVE SMOOTH",
"928 318 OFFCURVE",
"950 322 OFFCURVE",
"962 325 CURVE",
"962 326 OFFCURVE",
"961 327 OFFCURVE",
"961 327 CURVE",
"945 325 LINE SMOOTH",
"944 325 OFFCURVE",
"943 327 OFFCURVE",
"943 328 CURVE",
"941 327 OFFCURVE",
"940 326 OFFCURVE",
"936 326 CURVE SMOOTH",
"933 326 OFFCURVE",
"904 327 OFFCURVE",
"900 327 CURVE SMOOTH",
"897 327 OFFCURVE",
"896 329 OFFCURVE",
"894 330 CURVE",
"883 330 OFFCURVE",
"867 331 OFFCURVE",
"855 331 CURVE SMOOTH",
"850 331 OFFCURVE",
"840 333 OFFCURVE",
"837 333 CURVE SMOOTH",
"834 333 OFFCURVE",
"820 330 OFFCURVE",
"817 330 CURVE SMOOTH",
"813 330 LINE SMOOTH",
"809 330 OFFCURVE",
"796 332 OFFCURVE",
"793 332 CURVE SMOOTH",
"789 332 OFFCURVE",
"777 328 OFFCURVE",
"773 328 CURVE SMOOTH",
"722 328 OFFCURVE",
"717 328 OFFCURVE",
"687 329 CURVE SMOOTH",
"685 329 OFFCURVE",
"667 327 OFFCURVE",
"654 326 CURVE",
"660 341 OFFCURVE",
"665 353 OFFCURVE",
"670 362 CURVE SMOOTH",
"673 368 OFFCURVE",
"706 434 OFFCURVE",
"711 440 CURVE SMOOTH",
"714 444 OFFCURVE",
"716 450 OFFCURVE",
"719 454 CURVE SMOOTH",
"731 472 OFFCURVE",
"758 505 OFFCURVE",
"771 521 CURVE SMOOTH",
"776 527 OFFCURVE",
"794 546 OFFCURVE",
"795 551 CURVE",
"798 552 OFFCURVE",
"810 566 OFFCURVE",
"811 569 CURVE",
"817 570 OFFCURVE",
"821 577 OFFCURVE",
"827 583 CURVE",
"835 580 OFFCURVE",
"842 578 OFFCURVE",
"848 583 CURVE SMOOTH",
"856 590 OFFCURVE",
"861 596 OFFCURVE",
"864 601 CURVE",
"866 600 OFFCURVE",
"868 600 OFFCURVE",
"871 600 CURVE",
"872 605 LINE",
"873 603 LINE",
"875 603 OFFCURVE",
"877 603 OFFCURVE",
"878 605 CURVE",
"879 599 LINE",
"885 598 OFFCURVE",
"892 597 OFFCURVE",
"898 597 CURVE SMOOTH",
"902 597 OFFCURVE",
"906 598 OFFCURVE",
"910 601 CURVE",
"910 602 LINE",
"911 602 LINE",
"910 596 LINE",
"916 596 LINE",
"918 599 LINE",
"923 595 LINE",
"925 595 OFFCURVE",
"926 593 OFFCURVE",
"928 593 CURVE",
"928 599 LINE",
"931 598 LINE",
"930 590 LINE",
"933 590 OFFCURVE",
"937 593 OFFCURVE",
"939 596 CURVE",
"944 595 OFFCURVE",
"949 584 OFFCURVE",
"956 585 CURVE SMOOTH",
"957 585 OFFCURVE",
"958 586 OFFCURVE",
"960 587 CURVE",
"968 582 OFFCURVE",
"976 583 OFFCURVE",
"985 581 CURVE",
"987 579 OFFCURVE",
"989 577 OFFCURVE",
"991 576 CURVE",
"993 582 LINE",
"1001 579 LINE",
"1001 578 LINE",
"998 578 LINE",
"998 574 LINE",
"1010 568 LINE",
"1011 572 OFFCURVE",
"1009 575 OFFCURVE",
"1007 576 CURVE",
"1008 577 LINE",
"1017 576 OFFCURVE",
"1024 561 OFFCURVE",
"1034 562 CURVE SMOOTH",
"1036 562 OFFCURVE",
"1037 563 OFFCURVE",
"1039 564 CURVE",
"1039 558 OFFCURVE",
"1099 546 OFFCURVE",
"1102 545 CURVE",
"1101 538 OFFCURVE",
"1143 534 OFFCURVE",
"1146 534 CURVE SMOOTH",
"1150 535 LINE",
"1153 534 OFFCURVE",
"1160 532 OFFCURVE",
"1162 529 CURVE",
"1163 529 LINE",
"1164 527 LINE",
"1198 524 OFFCURVE",
"1230 507 OFFCURVE",
"1264 509 CURVE SMOOTH",
"1266 509 OFFCURVE",
"1268 509 OFFCURVE",
"1269 510 CURVE",
"1271 510 LINE",
"1271 509 OFFCURVE",
"1273 508 OFFCURVE",
"1273 508 CURVE",
"1282 505 OFFCURVE",
"1292 508 OFFCURVE",
"1301 506 CURVE SMOOTH",
"1308 505 OFFCURVE",
"1315 504 OFFCURVE",
"1321 505 CURVE SMOOTH",
"1364 508 OFFCURVE",
"1451 548 OFFCURVE",
"1465 613 CURVE"
);
},
{
closed = 1;
nodes = (
"661 475 LINE",
"654 461 LINE",
"640 439 OFFCURVE",
"627 410 OFFCURVE",
"615 385 CURVE SMOOTH",
"609 371 OFFCURVE",
"605 357 OFFCURVE",
"599 343 CURVE SMOOTH",
"596 338 OFFCURVE",
"593 333 OFFCURVE",
"591 327 CURVE SMOOTH",
"581 304 OFFCURVE",
"571 277 OFFCURVE",
"563 252 CURVE",
"548 253 OFFCURVE",
"533 254 OFFCURVE",
"532 251 CURVE",
"531 250 LINE",
"439 250 LINE",
"441 252 LINE",
"470 284 LINE",
"475 291 LINE SMOOTH",
"480 296 OFFCURVE",
"488 300 OFFCURVE",
"493 304 CURVE",
"652 467 LINE SMOOTH",
"656 472 OFFCURVE",
"661 476 OFFCURVE",
"665 480 CURVE"
);
}
);
width = 1181;
}
);
note = AE;
unicode = 00C6;
},
{
color = 3;
glyphname = B;
lastChange = "2021-04-23 03:36:15 +0000";
layers = (
{
hints = (
{
horizontal = 1;
place = "{-120, 40}";
type = Stem;
},
{
horizontal = 1;
place = "{217, 51}";
type = Stem;
}
);
layerId = "E8487A59-2E36-4739-8DF2-414A9818920F";
paths = (
{
closed = 1;
nodes = (
"1114 593 LINE",
"1113 599 OFFCURVE",
"1093 615 OFFCURVE",
"1088 621 CURVE",
"1073 630 LINE SMOOTH",
"1060 636 OFFCURVE",
"1049 640 OFFCURVE",
"1036 644 CURVE SMOOTH",
"1032 645 OFFCURVE",
"1028 648 OFFCURVE",
"1023 648 CURVE",
"1023 647 LINE",
"1013 650 LINE SMOOTH",
"1005 652 OFFCURVE",
"967 658 OFFCURVE",
"961 654 CURVE",
"958 654 LINE SMOOTH",
"932 657 OFFCURVE",
"934 665 OFFCURVE",
"910 649 CURVE",
"900 650 OFFCURVE",
"892 645 OFFCURVE",
"883 642 CURVE SMOOTH",
"872 639 OFFCURVE",
"862 635 OFFCURVE",
"851 631 CURVE SMOOTH",
"844 628 OFFCURVE",
"837 626 OFFCURVE",
"830 624 CURVE",
"809 612 LINE",
"802 612 OFFCURVE",
"785 599 OFFCURVE",
"779 595 CURVE SMOOTH",
"770 590 LINE",
"752 604 LINE",
"700 621 LINE",
"692 622 OFFCURVE",
"686 626 OFFCURVE",
"678 626 CURVE SMOOTH",
"664 626 OFFCURVE",
"662 631 OFFCURVE",
"655 631 CURVE SMOOTH",
"653 631 OFFCURVE",
"650 630 OFFCURVE",
"648 628 CURVE",
"640 629 OFFCURVE",
"628 634 OFFCURVE",
"619 631 CURVE",
"613 632 OFFCURVE",
"607 633 OFFCURVE",
"601 633 CURVE SMOOTH",
"597 633 OFFCURVE",
"592 632 OFFCURVE",
"587 631 CURVE",
"580 632 OFFCURVE",
"559 638 OFFCURVE",
"552 634 CURVE",
"503 630 LINE",
"480 633 OFFCURVE",
"362 608 OFFCURVE",
"349 592 CURVE",
"347 591 LINE",
"321 595 OFFCURVE",
"255 541 OFFCURVE",
"232 534 CURVE",
"230 532 OFFCURVE",
"195 512 OFFCURVE",
"192 510 CURVE SMOOTH",
"174 497 OFFCURVE",
"153 485 OFFCURVE",
"136 470 CURVE SMOOTH",
"77 419 OFFCURVE",
"16 337 OFFCURVE",
"3 264 CURVE SMOOTH",
"1 251 OFFCURVE",
"-1 231 OFFCURVE",
"10 223 CURVE",
"14 225 LINE",
"21 225 OFFCURVE",
"19 214 OFFCURVE",
"25 211 CURVE",
"26 211 OFFCURVE",
"27 212 OFFCURVE",
"28 213 CURVE",
"29 222 OFFCURVE",
"24 243 OFFCURVE",
"27 261 CURVE SMOOTH",
"54 416 OFFCURVE",
"226 538 OFFCURVE",
"372 563 CURVE",
"376 573 OFFCURVE",
"443 572 OFFCURVE",
"456 585 CURVE",
"463 584 OFFCURVE",
"469 585 OFFCURVE",
"476 585 CURVE",
"478 590 OFFCURVE",
"513 591 OFFCURVE",
"519 591 CURVE SMOOTH",
"522 591 LINE",
"524 595 LINE",
"529 594 OFFCURVE",
"534 593 OFFCURVE",
"538 593 CURVE SMOOTH",
"542 593 OFFCURVE",
"545 593 OFFCURVE",
"548 596 CURVE",
"555 594 OFFCURVE",
"562 592 OFFCURVE",
"569 592 CURVE SMOOTH",
"585 592 OFFCURVE",
"603 592 OFFCURVE",
"618 590 CURVE SMOOTH",
"663 584 OFFCURVE",
"683 575 OFFCURVE",
"696 562 CURVE",
"693 560 LINE SMOOTH",
"684 552 OFFCURVE",
"656 536 OFFCURVE",
"646 528 CURVE SMOOTH",
"635 518 OFFCURVE",
"626 507 OFFCURVE",
"615 498 CURVE SMOOTH",
"609 493 OFFCURVE",
"596 486 OFFCURVE",
"593 479 CURVE",
"589 479 OFFCURVE",
"558 443 OFFCURVE",
"552 439 CURVE SMOOTH",
"531 423 OFFCURVE",
"522 404 OFFCURVE",
"502 385 CURVE SMOOTH",
"449 334 OFFCURVE",
"403 271 OFFCURVE",
"356 214 CURVE SMOOTH",
"340 195 OFFCURVE",
"334 177 OFFCURVE",
"318 157 CURVE SMOOTH",
"310 147 OFFCURVE",
"293 124 OFFCURVE",
"282 116 CURVE",
"283 112 OFFCURVE",
"272 101 OFFCURVE",
"271 96 CURVE",
"269 96 OFFCURVE",
"236 57 OFFCURVE",
"233 52 CURVE SMOOTH",
"229 43 LINE",
"229 43 OFFCURVE",
"198 15 OFFCURVE",
"204 10 CURVE",
"192 -5 OFFCURVE",
"172 -12 OFFCURVE",
"169 -25 CURVE",
"158 -32 OFFCURVE",
"136 -56 OFFCURVE",
"128 -64 CURVE SMOOTH",
"113 -79 OFFCURVE",
"110 -80 OFFCURVE",
"98 -96 CURVE",
"97 -95 OFFCURVE",
"94 -97 OFFCURVE",
"93 -97 CURVE",
"96 -100 OFFCURVE",
"74 -110 OFFCURVE",
"71 -115 CURVE",
"68 -115 LINE",
"52 -131 LINE",
"46 -134 OFFCURVE",
"39 -137 OFFCURVE",
"33 -141 CURVE SMOOTH",
"11 -154 OFFCURVE",
"-12 -172 OFFCURVE",
"-37 -174 CURVE SMOOTH",
"-48 -175 OFFCURVE",
"-57 -171 OFFCURVE",
"-68 -170 CURVE",
"-74 -168 LINE",
"-76 -173 LINE",
"-73 -177 OFFCURVE",
"-47 -178 OFFCURVE",
"-40 -180 CURVE",
"-22 -178 LINE SMOOTH",
"-7 -175 OFFCURVE",
"5 -172 OFFCURVE",
"19 -167 CURVE SMOOTH",
"23 -165 OFFCURVE",
"28 -165 OFFCURVE",
"32 -162 CURVE",
"42 -158 LINE SMOOTH",
"51 -155 OFFCURVE",
"88 -137 OFFCURVE",
"91 -130 CURVE",
"95 -128 LINE",
"118 -116 LINE",
"122 -112 OFFCURVE",
"129 -108 OFFCURVE",
"134 -104 CURVE",
"175 -83 LINE SMOOTH",
"182 -79 OFFCURVE",
"205 -56 OFFCURVE",
"208 -50 CURVE",
"218 -44 OFFCURVE",
"233 -36 OFFCURVE",
"240 -29 CURVE SMOOTH",
"269 3 LINE",
"270 6 OFFCURVE",
"336 81 OFFCURVE",
"338 84 CURVE",
"344 84 OFFCURVE",
"389 148 OFFCURVE",
"396 158 CURVE SMOOTH",
"401 164 OFFCURVE",
"405 170 OFFCURVE",
"409 176 CURVE SMOOTH",
"415 187 LINE",
"422 194 LINE",
"431 208 LINE",
"441 218 LINE",
"462 246 LINE",
"478 264 LINE SMOOTH",
"487 275 OFFCURVE",
"495 286 OFFCURVE",
"503 297 CURVE",
"516 308 LINE",
"523 319 LINE",
"538 335 LINE",
"541 342 LINE",
"544 346 OFFCURVE",
"551 348 OFFCURVE",
"555 351 CURVE",
"559 358 LINE",
"571 368 OFFCURVE",
"580 379 OFFCURVE",
"587 392 CURVE",
"587 393 OFFCURVE",
"590 391 OFFCURVE",
"591 390 CURVE",
"592 390 LINE",
"592 392 LINE",
"595 398 OFFCURVE",
"603 402 OFFCURVE",
"608 408 CURVE SMOOTH",
"617 418 OFFCURVE",
"627 427 OFFCURVE",
"637 437 CURVE",
"643 448 LINE",
"658 461 LINE",
"664 460 LINE",
"666 463 LINE",
"675 473 LINE",
"678 473 OFFCURVE",
"680 473 OFFCURVE",
"682 474 CURVE",
"698 490 LINE",
"712 499 OFFCURVE",
"708 511 OFFCURVE",
"721 521 CURVE SMOOTH",
"748 540 LINE",
"762 531 OFFCURVE",
"763 521 OFFCURVE",
"773 511 CURVE SMOOTH",
"775 509 OFFCURVE",
"779 509 OFFCURVE",
"781 507 CURVE SMOOTH",
"783 505 OFFCURVE",
"788 503 OFFCURVE",
"791 499 CURVE SMOOTH",
"793 496 OFFCURVE",
"792 490 OFFCURVE",
"794 488 CURVE",
"797 483 OFFCURVE",
"802 469 OFFCURVE",
"805 464 CURVE SMOOTH",
"806 462 OFFCURVE",
"802 456 OFFCURVE",
"803 454 CURVE SMOOTH",
"804 451 OFFCURVE",
"807 449 OFFCURVE",
"808 446 CURVE SMOOTH",
"819 404 OFFCURVE",
"804 357 OFFCURVE",
"761 310 CURVE",
"733 291 OFFCURVE",
"710 278 OFFCURVE",
"690 268 CURVE",
"650 272 OFFCURVE",
"611 267 OFFCURVE",
"590 253 CURVE",
"530 195 LINE",
"533 192 LINE",
"580 228 OFFCURVE",
"713 227 OFFCURVE",
"748 184 CURVE SMOOTH",
"777 150 OFFCURVE",
"761 106 OFFCURVE",
"733 66 CURVE SMOOTH",
"725 54 OFFCURVE",
"714 42 OFFCURVE",
"704 31 CURVE",
"701 31 OFFCURVE",
"698 25 OFFCURVE",
"696 24 CURVE SMOOTH",
"688 21 OFFCURVE",
"684 18 OFFCURVE",
"678 14 CURVE SMOOTH",
"672 10 OFFCURVE",
"670 3 OFFCURVE",
"666 0 CURVE SMOOTH",
"657 -6 OFFCURVE",
"647 -7 OFFCURVE",
"645 -8 CURVE",
"638 -14 LINE",
"593 -39 OFFCURVE",
"545 -57 OFFCURVE",
"498 -73 CURVE",
"446 -83 OFFCURVE",
"388 -90 OFFCURVE",
"398 -41 CURVE SMOOTH",
"404 -10 OFFCURVE",
"462 40 OFFCURVE",
"479 53 CURVE SMOOTH",
"500 69 OFFCURVE",
"568 115 OFFCURVE",
"678 149 CURVE",
"704 147 OFFCURVE",
"704 166 OFFCURVE",
"677 162 CURVE SMOOTH",
"580 148 OFFCURVE",
"489 79 OFFCURVE",
"461 75 CURVE",
"461 74 LINE",
"460 73 OFFCURVE",
"458 69 OFFCURVE",
"457 69 CURVE",
"456 68 OFFCURVE",
"455 68 OFFCURVE",
"454 68 CURVE",
"448 66 OFFCURVE",
"429 52 OFFCURVE",
"423 47 CURVE",
"423 45 LINE",
"414 46 OFFCURVE",
"414 35 OFFCURVE",
"407 24 CURVE",
"396 18 OFFCURVE",
"387 8 OFFCURVE",
"377 1 CURVE SMOOTH",
"368 -5 OFFCURVE",
"357 -18 OFFCURVE",
"355 -34 CURVE SMOOTH",
"351 -53 OFFCURVE",
"346 -63 OFFCURVE",
"369 -89 CURVE SMOOTH",
"372 -92 OFFCURVE",
"375 -94 OFFCURVE",
"378 -96 CURVE",
"378 -102 OFFCURVE",
"379 -107 OFFCURVE",
"381 -109 CURVE SMOOTH",
"397 -124 OFFCURVE",
"445 -123 OFFCURVE",
"486 -110 CURVE",
"529 -106 OFFCURVE",
"558 -93 OFFCURVE",
"578 -81 CURVE SMOOTH",
"590 -74 OFFCURVE",
"596 -74 OFFCURVE",
"608 -65 CURVE SMOOTH",
"672 -17 LINE SMOOTH",
"677 -14 OFFCURVE",
"682 -8 OFFCURVE",
"687 -5 CURVE SMOOTH",
"696 2 OFFCURVE",
"706 22 OFFCURVE",
"717 28 CURVE",
"726 35 OFFCURVE",
"727 40 OFFCURVE",
"735 48 CURVE SMOOTH",
"747 59 OFFCURVE",
"760 73 OFFCURVE",
"772 89 CURVE SMOOTH",
"775 93 OFFCURVE",
"775 97 OFFCURVE",
"778 101 CURVE SMOOTH",
"779 103 OFFCURVE",
"782 102 OFFCURVE",
"784 104 CURVE",
"786 105 OFFCURVE",
"787 110 OFFCURVE",
"788 111 CURVE",
"812 150 OFFCURVE",
"825 193 OFFCURVE",
"798 227 CURVE SMOOTH",
"782 246 OFFCURVE",
"750 259 OFFCURVE",
"714 265 CURVE",
"723 271 OFFCURVE",
"730 281 OFFCURVE",
"741 286 CURVE SMOOTH",
"775 302 LINE",
"791 329 LINE SMOOTH",
"794 334 OFFCURVE",
"800 336 OFFCURVE",
"804 339 CURVE SMOOTH",
"811 345 OFFCURVE",
"812 339 OFFCURVE",
"818 346 CURVE SMOOTH",
"850 382 OFFCURVE",
"867 436 OFFCURVE",
"862 472 CURVE SMOOTH",
"862 474 OFFCURVE",
"856 476 OFFCURVE",
"856 478 CURVE SMOOTH",
"855 484 OFFCURVE",
"856 490 OFFCURVE",
"854 496 CURVE SMOOTH",
"852 501 OFFCURVE",
"848 504 OFFCURVE",
"845 509 CURVE SMOOTH",
"844 511 OFFCURVE",
"845 516 OFFCURVE",
"844 518 CURVE SMOOTH",
"840 526 OFFCURVE",
"835 533 OFFCURVE",
"829 539 CURVE SMOOTH",
"821 549 OFFCURVE",
"812 558 OFFCURVE",
"802 566 CURVE",
"827 578 OFFCURVE",
"852 590 OFFCURVE",
"877 601 CURVE SMOOTH",
"920 621 OFFCURVE",
"898 608 OFFCURVE",
"941 627 CURVE",
"941 625 OFFCURVE",
"944 625 OFFCURVE",
"945 624 CURVE",
"944 628 OFFCURVE",
"966 625 OFFCURVE",
"970 628 CURVE",
"974 626 LINE",
"993 631 LINE",
"1013 628 LINE",
"1036 627 OFFCURVE",
"1063 630 OFFCURVE",
"1083 617 CURVE SMOOTH",
"1092 611 OFFCURVE",
"1098 602 OFFCURVE",
"1106 596 CURVE",
"1110 589 LINE"
);
}
);
width = 822;
}
);
note = B;
unicode = 0042;
},
{
color = 3;
glyphname = C;
lastChange = "2021-04-23 03:36:15 +0000";
layers = (
{
hints = (
{
horizontal = 1;
place = "{-58, 36}";
type = Stem;
},
{
horizontal = 1;
place = "{556, 47}";
type = Stem;
},
{
place = "{675, 35}";
type = Stem;
},
{
horizontal = 1;
place = "{423, 180}";
type = Stem;
}
);
layerId = "E8487A59-2E36-4739-8DF2-414A9818920F";
paths = (
{
closed = 1;
nodes = (
"710 545 OFFCURVE",
"665 572 OFFCURVE",
"649 587 CURVE SMOOTH",
"638 598 OFFCURVE",
"629 603 OFFCURVE",
"613 603 CURVE SMOOTH",
"594 603 OFFCURVE",
"565 591 OFFCURVE",
"546 584 CURVE SMOOTH",
"523 576 OFFCURVE",
"500 568 OFFCURVE",
"479 557 CURVE SMOOTH",
"460 547 OFFCURVE",
"439 540 OFFCURVE",
"421 529 CURVE SMOOTH",
"394 512 OFFCURVE",
"368 494 OFFCURVE",
"341 476 CURVE SMOOTH",
"334 472 OFFCURVE",
"327 468 OFFCURVE",
"320 463 CURVE SMOOTH",
"293 445 OFFCURVE",
"270 419 OFFCURVE",
"246 396 CURVE SMOOTH",
"232 384 OFFCURVE",
"219 371 OFFCURVE",
"206 359 CURVE SMOOTH",
"201 354 OFFCURVE",
"195 350 OFFCURVE",
"189 345 CURVE",
"167 322 OFFCURVE",
"149 296 OFFCURVE",
"128 272 CURVE",
"127 267 LINE",
"130 268 LINE",
"130 259 OFFCURVE",
"119 260 OFFCURVE",
"114 256 CURVE SMOOTH",
"108 250 OFFCURVE",
"108 242 OFFCURVE",
"104 236 CURVE SMOOTH",
"101 231 OFFCURVE",
"95 230 OFFCURVE",
"91 226 CURVE SMOOTH",
"84 217 OFFCURVE",
"78 198 OFFCURVE",
"68 191 CURVE",
"68 184 LINE",
"65 177 OFFCURVE",
"56 170 OFFCURVE",
"56 161 CURVE SMOOTH",
"56 159 OFFCURVE",
"57 157 OFFCURVE",
"58 155 CURVE",
"60 157 OFFCURVE",
"60 160 OFFCURVE",
"61 162 CURVE",
"63 162 LINE",
"63 162 OFFCURVE",
"63 161 OFFCURVE",
"64 161 CURVE",
"63 155 OFFCURVE",
"44 130 OFFCURVE",
"39 126 CURVE",
"39 135 OFFCURVE",
"46 142 OFFCURVE",
"48 151 CURVE",
"47 151 LINE",
"46 147 OFFCURVE",
"37 134 OFFCURVE",
"35 129 CURVE SMOOTH",
"24 107 OFFCURVE",
"13 74 OFFCURVE",
"13 49 CURVE SMOOTH",
"13 25 OFFCURVE",
"20 21 OFFCURVE",
"33 3 CURVE SMOOTH",
"37 -2 OFFCURVE",
"40 -8 OFFCURVE",
"45 -12 CURVE SMOOTH",
"54 -20 OFFCURVE",
"70 -25 OFFCURVE",
"73 -39 CURVE",
"78 -39 OFFCURVE",
"90 -58 OFFCURVE",
"112 -58 CURVE SMOOTH",
"131 -58 OFFCURVE",
"212 -5 OFFCURVE",
"227 10 CURVE SMOOTH",
"234 16 OFFCURVE",
"271 51 OFFCURVE",
"275 52 CURVE",
"275 53 OFFCURVE",
"322 100 OFFCURVE",
"329 117 CURVE",
"329 118 LINE",
"323 118 OFFCURVE",
"312 103 OFFCURVE",
"306 99 CURVE",
"303 98 OFFCURVE",
"300 92 OFFCURVE",
"299 90 CURVE",
"295 89 OFFCURVE",
"263 59 OFFCURVE",
"255 54 CURVE",
"254 54 LINE",
"253 55 LINE",
"253 54 LINE",
"246 48 OFFCURVE",
"251 53 OFFCURVE",
"245 50 CURVE SMOOTH",
"240 47 OFFCURVE",
"236 43 OFFCURVE",
"232 40 CURVE SMOOTH",
"221 32 OFFCURVE",
"210 26 OFFCURVE",
"199 18 CURVE SMOOTH",
"168 -4 OFFCURVE",
"137 -23 OFFCURVE",
"97 -23 CURVE SMOOTH",
"79 -23 OFFCURVE",
"66 -22 OFFCURVE",
"66 1 CURVE SMOOTH",
"66 11 OFFCURVE",
"69 21 OFFCURVE",
"72 31 CURVE SMOOTH",
"99 119 OFFCURVE",
"144 173 OFFCURVE",
"199 242 CURVE SMOOTH",
"208 253 OFFCURVE",
"221 274 OFFCURVE",
"234 281 CURVE",
"236 292 OFFCURVE",
"354 396 OFFCURVE",
"371 405 CURVE",
"371 405 OFFCURVE",
"404 432 OFFCURVE",
"407 433 CURVE",
"433 447 LINE",
"438 451 OFFCURVE",
"444 456 OFFCURVE",
"449 459 CURVE SMOOTH",
"472 475 OFFCURVE",
"496 488 OFFCURVE",
"520 501 CURVE SMOOTH",
"528 506 OFFCURVE",
"561 521 OFFCURVE",
"565 526 CURVE",
"575 526 OFFCURVE",
"582 537 OFFCURVE",
"592 537 CURVE",
"593 540 LINE",
"607 540 OFFCURVE",
"620 556 OFFCURVE",
"645 556 CURVE SMOOTH",
"656 556 OFFCURVE",
"675 550 OFFCURVE",
"675 537 CURVE SMOOTH",
"675 509 OFFCURVE",
"587 443 OFFCURVE",
"563 426 CURVE SMOOTH",
"532 405 OFFCURVE",
"503 380 OFFCURVE",
"471 360 CURVE",
"470 358 LINE",
"471 358 LINE SMOOTH",
"473 358 OFFCURVE",
"482 364 OFFCURVE",
"484 365 CURVE SMOOTH",
"490 368 OFFCURVE",
"496 366 OFFCURVE",
"500 371 CURVE",
"503 370 LINE",
"504 370 LINE",
"505 374 OFFCURVE",
"510 375 OFFCURVE",
"512 378 CURVE",
"516 378 OFFCURVE",
"519 380 OFFCURVE",
"521 383 CURVE",
"527 383 OFFCURVE",
"532 388 OFFCURVE",
"539 389 CURVE",
"539 390 LINE",
"540 391 OFFCURVE",
"543 396 OFFCURVE",
"545 397 CURVE",
"546 397 OFFCURVE",
"548 397 OFFCURVE",
"549 398 CURVE",
"559 401 OFFCURVE",
"574 414 OFFCURVE",
"583 421 CURVE",
"583 423 LINE",
"598 423 OFFCURVE",
"628 440 OFFCURVE",
"636 453 CURVE",
"653 462 OFFCURVE",
"665 474 OFFCURVE",
"680 484 CURVE SMOOTH",
"694 492 OFFCURVE",
"710 505 OFFCURVE",
"710 523 CURVE SMOOTH"
);
}
);
width = 409;
}
);
note = C;
unicode = 0043;
},
{
color = 3;
glyphname = Cacute;
lastChange = "2021-04-23 03:36:15 +0000";
layers = (
{
hints = (
{
horizontal = 1;
place = "{-58, 36}";
type = Stem;
},
{
horizontal = 1;
place = "{556, 47}";
type = Stem;
},
{
horizontal = 1;
place = "{669, 21}";
target = up;
type = BottomGhost;
},
{
place = "{675, 35}";
type = Stem;
},
{
horizontal = 1;
place = "{423, 180}";
type = Stem;
}
);
layerId = "E8487A59-2E36-4739-8DF2-414A9818920F";
paths = (
{
closed = 1;
nodes = (
"710 545 OFFCURVE",
"665 572 OFFCURVE",
"649 587 CURVE SMOOTH",
"638 598 OFFCURVE",
"629 603 OFFCURVE",
"613 603 CURVE SMOOTH",
"594 603 OFFCURVE",
"565 591 OFFCURVE",
"546 584 CURVE SMOOTH",
"523 576 OFFCURVE",
"500 568 OFFCURVE",
"479 557 CURVE SMOOTH",
"460 547 OFFCURVE",
"439 540 OFFCURVE",
"421 529 CURVE SMOOTH",
"394 512 OFFCURVE",
"368 494 OFFCURVE",
"341 476 CURVE SMOOTH",
"334 472 OFFCURVE",
"327 468 OFFCURVE",
"320 463 CURVE SMOOTH",
"293 445 OFFCURVE",
"270 419 OFFCURVE",
"246 396 CURVE SMOOTH",
"232 384 OFFCURVE",
"219 371 OFFCURVE",
"206 359 CURVE SMOOTH",
"201 354 OFFCURVE",
"195 350 OFFCURVE",
"189 345 CURVE",
"167 322 OFFCURVE",
"149 296 OFFCURVE",
"128 272 CURVE",
"127 267 LINE",
"130 268 LINE",
"130 259 OFFCURVE",
"119 260 OFFCURVE",
"114 256 CURVE SMOOTH",
"108 250 OFFCURVE",
"108 242 OFFCURVE",
"104 236 CURVE SMOOTH",
"101 231 OFFCURVE",
"95 230 OFFCURVE",
"91 226 CURVE SMOOTH",
"84 217 OFFCURVE",
"78 198 OFFCURVE",
"68 191 CURVE",
"68 184 LINE",
"65 177 OFFCURVE",
"56 170 OFFCURVE",
"56 161 CURVE SMOOTH",
"56 159 OFFCURVE",
"57 157 OFFCURVE",
"58 155 CURVE",
"60 157 OFFCURVE",
"60 160 OFFCURVE",
"61 162 CURVE",
"63 162 LINE",
"63 162 OFFCURVE",
"63 161 OFFCURVE",
"64 161 CURVE",
"63 155 OFFCURVE",
"44 130 OFFCURVE",
"39 126 CURVE",
"39 135 OFFCURVE",
"46 142 OFFCURVE",
"48 151 CURVE",
"47 151 LINE",
"46 147 OFFCURVE",
"37 134 OFFCURVE",
"35 129 CURVE SMOOTH",
"24 107 OFFCURVE",
"13 74 OFFCURVE",
"13 49 CURVE SMOOTH",
"13 25 OFFCURVE",
"20 21 OFFCURVE",
"33 3 CURVE SMOOTH",
"37 -2 OFFCURVE",
"40 -8 OFFCURVE",
"45 -12 CURVE SMOOTH",
"54 -20 OFFCURVE",
"70 -25 OFFCURVE",
"73 -39 CURVE",
"78 -39 OFFCURVE",
"90 -58 OFFCURVE",
"112 -58 CURVE SMOOTH",
"131 -58 OFFCURVE",
"212 -5 OFFCURVE",
"227 10 CURVE SMOOTH",
"234 16 OFFCURVE",
"271 51 OFFCURVE",
"275 52 CURVE",
"275 53 OFFCURVE",
"322 100 OFFCURVE",
"329 117 CURVE",
"329 118 LINE",
"323 118 OFFCURVE",
"312 103 OFFCURVE",
"306 99 CURVE",
"303 98 OFFCURVE",
"300 92 OFFCURVE",
"299 90 CURVE",
"295 89 OFFCURVE",
"263 59 OFFCURVE",
"255 54 CURVE",
"254 54 LINE",
"253 55 LINE",
"253 54 LINE",
"246 48 OFFCURVE",
"251 53 OFFCURVE",
"245 50 CURVE SMOOTH",
"240 47 OFFCURVE",
"236 43 OFFCURVE",
"232 40 CURVE SMOOTH",
"221 32 OFFCURVE",
"210 26 OFFCURVE",
"199 18 CURVE SMOOTH",
"168 -4 OFFCURVE",
"137 -23 OFFCURVE",
"97 -23 CURVE SMOOTH",
"79 -23 OFFCURVE",
"66 -22 OFFCURVE",
"66 1 CURVE SMOOTH",
"66 11 OFFCURVE",
"69 21 OFFCURVE",
"72 31 CURVE SMOOTH",
"99 119 OFFCURVE",
"144 173 OFFCURVE",
"199 242 CURVE SMOOTH",
"208 253 OFFCURVE",
"221 274 OFFCURVE",
"234 281 CURVE",
"236 292 OFFCURVE",
"354 396 OFFCURVE",
"371 405 CURVE",
"371 405 OFFCURVE",
"404 432 OFFCURVE",
"407 433 CURVE",
"433 447 LINE",
"438 451 OFFCURVE",
"444 456 OFFCURVE",
"449 459 CURVE SMOOTH",
"472 475 OFFCURVE",
"496 488 OFFCURVE",
"520 501 CURVE SMOOTH",
"528 506 OFFCURVE",
"561 521 OFFCURVE",
"565 526 CURVE",
"575 526 OFFCURVE",
"582 537 OFFCURVE",
"592 537 CURVE",
"593 540 LINE",
"607 540 OFFCURVE",
"620 556 OFFCURVE",
"645 556 CURVE SMOOTH",
"656 556 OFFCURVE",
"675 550 OFFCURVE",
"675 537 CURVE SMOOTH",
"675 509 OFFCURVE",
"587 443 OFFCURVE",
"563 426 CURVE SMOOTH",
"532 405 OFFCURVE",
"503 380 OFFCURVE",
"471 360 CURVE",
"470 358 LINE",
"471 358 LINE SMOOTH",
"473 358 OFFCURVE",
"482 364 OFFCURVE",
"484 365 CURVE SMOOTH",
"490 368 OFFCURVE",
"496 366 OFFCURVE",
"500 371 CURVE",
"503 370 LINE",
"504 370 LINE",
"505 374 OFFCURVE",
"510 375 OFFCURVE",
"512 378 CURVE",
"516 378 OFFCURVE",
"519 380 OFFCURVE",
"521 383 CURVE",
"527 383 OFFCURVE",
"532 388 OFFCURVE",
"539 389 CURVE",
"539 390 LINE",
"540 391 OFFCURVE",
"543 396 OFFCURVE",
"545 397 CURVE",
"546 397 OFFCURVE",
"548 397 OFFCURVE",
"549 398 CURVE",
"559 401 OFFCURVE",
"574 414 OFFCURVE",
"583 421 CURVE",
"583 423 LINE",
"598 423 OFFCURVE",
"628 440 OFFCURVE",
"636 453 CURVE",
"653 462 OFFCURVE",
"665 474 OFFCURVE",
"680 484 CURVE SMOOTH",
"694 492 OFFCURVE",
"710 505 OFFCURVE",
"710 523 CURVE SMOOTH"
);
},
{
closed = 1;
nodes = (
"779 748 OFFCURVE",
"779 766 OFFCURVE",
"773 784 CURVE",
"770 788 OFFCURVE",
"767 801 OFFCURVE",
"759 798 CURVE SMOOTH",
"757 797 OFFCURVE",
"756 795 OFFCURVE",
"756 793 CURVE",
"750 790 OFFCURVE",
"745 786 OFFCURVE",
"740 783 CURVE SMOOTH",
"705 763 OFFCURVE",
"675 739 OFFCURVE",
"644 713 CURVE SMOOTH",
"633 704 OFFCURVE",
"622 696 OFFCURVE",
"614 686 CURVE",
"606 672 OFFCURVE",
"612 669 OFFCURVE",
"612 669 CURVE",
"613 669 OFFCURVE",
"614 668 OFFCURVE",
"614 670 CURVE",
"618 671 OFFCURVE",
"621 671 OFFCURVE",
"625 673 CURVE SMOOTH",
"632 676 OFFCURVE",
"639 686 OFFCURVE",
"647 687 CURVE SMOOTH",
"648 687 OFFCURVE",
"650 686 OFFCURVE",
"650 688 CURVE",
"656 691 OFFCURVE",
"677 708 OFFCURVE",
"683 707 CURVE",
"683 708 OFFCURVE",
"683 711 OFFCURVE",
"684 711 CURVE SMOOTH",
"694 711 OFFCURVE",
"698 719 OFFCURVE",
"706 724 CURVE SMOOTH",
"713 728 OFFCURVE",
"721 728 OFFCURVE",
"728 732 CURVE SMOOTH",
"733 735 OFFCURVE",
"737 739 OFFCURVE",
"743 742 CURVE SMOOTH",
"753 746 OFFCURVE",
"764 737 OFFCURVE",
"774 739 CURVE",
"779 739 OFFCURVE",
"780 748 OFFCURVE",
"779 748 CURVE"
);
}
);
width = 409;
}
);
note = Cacute;
unicode = 0106;
},
{
color = 3;
glyphname = Ccaron;
lastChange = "2021-04-23 03:36:15 +0000";
layers = (
{
hints = (
{
horizontal = 1;
place = "{-58, 36}";
type = Stem;
},
{
horizontal = 1;
place = "{556, 47}";
type = Stem;
},
{
place = "{675, 35}";
type = Stem;
},
{
horizontal = 1;
place = "{423, 180}";
type = Stem;
}
);
layerId = "E8487A59-2E36-4739-8DF2-414A9818920F";
paths = (
{
closed = 1;
nodes = (
"710 545 OFFCURVE",
"665 572 OFFCURVE",
"649 587 CURVE SMOOTH",
"638 598 OFFCURVE",
"629 603 OFFCURVE",
"613 603 CURVE SMOOTH",
"594 603 OFFCURVE",
"565 591 OFFCURVE",
"546 584 CURVE SMOOTH",
"523 576 OFFCURVE",
"500 568 OFFCURVE",
"479 557 CURVE SMOOTH",
"460 547 OFFCURVE",
"439 540 OFFCURVE",
"421 529 CURVE SMOOTH",
"394 512 OFFCURVE",
"368 494 OFFCURVE",
"341 476 CURVE SMOOTH",
"334 472 OFFCURVE",
"327 468 OFFCURVE",
"320 463 CURVE SMOOTH",
"293 445 OFFCURVE",
"270 419 OFFCURVE",
"246 396 CURVE SMOOTH",
"232 384 OFFCURVE",
"219 371 OFFCURVE",
"206 359 CURVE SMOOTH",
"201 354 OFFCURVE",
"195 350 OFFCURVE",
"189 345 CURVE",
"167 322 OFFCURVE",
"149 296 OFFCURVE",
"128 272 CURVE",
"127 267 LINE",
"130 268 LINE",
"130 259 OFFCURVE",
"119 260 OFFCURVE",
"114 256 CURVE SMOOTH",
"108 250 OFFCURVE",
"108 242 OFFCURVE",
"104 236 CURVE SMOOTH",
"101 231 OFFCURVE",
"95 230 OFFCURVE",
"91 226 CURVE SMOOTH",
"84 217 OFFCURVE",
"78 198 OFFCURVE",
"68 191 CURVE",
"68 184 LINE",
"65 177 OFFCURVE",
"56 170 OFFCURVE",
"56 161 CURVE SMOOTH",
"56 159 OFFCURVE",
"57 157 OFFCURVE",
"58 155 CURVE",
"60 157 OFFCURVE",
"60 160 OFFCURVE",
"61 162 CURVE",
"63 162 LINE",
"63 162 OFFCURVE",
"63 161 OFFCURVE",
"64 161 CURVE",
"63 155 OFFCURVE",
"44 130 OFFCURVE",
"39 126 CURVE",
"39 135 OFFCURVE",
"46 142 OFFCURVE",
"48 151 CURVE",
"47 151 LINE",
"46 147 OFFCURVE",
"37 134 OFFCURVE",
"35 129 CURVE SMOOTH",
"24 107 OFFCURVE",
"13 74 OFFCURVE",
"13 49 CURVE SMOOTH",
"13 25 OFFCURVE",
"20 21 OFFCURVE",
"33 3 CURVE SMOOTH",
"37 -2 OFFCURVE",
"40 -8 OFFCURVE",
"45 -12 CURVE SMOOTH",
"54 -20 OFFCURVE",
"70 -25 OFFCURVE",
"73 -39 CURVE",
"78 -39 OFFCURVE",
"90 -58 OFFCURVE",
"112 -58 CURVE SMOOTH",
"131 -58 OFFCURVE",
"212 -5 OFFCURVE",
"227 10 CURVE SMOOTH",
"234 16 OFFCURVE",
"271 51 OFFCURVE",
"275 52 CURVE",
"275 53 OFFCURVE",
"322 100 OFFCURVE",
"329 117 CURVE",
"329 118 LINE",
"323 118 OFFCURVE",
"312 103 OFFCURVE",
"306 99 CURVE",
"303 98 OFFCURVE",
"300 92 OFFCURVE",
"299 90 CURVE",
"295 89 OFFCURVE",
"263 59 OFFCURVE",
"255 54 CURVE",
"254 54 LINE",
"253 55 LINE",
"253 54 LINE",
"246 48 OFFCURVE",
"251 53 OFFCURVE",
"245 50 CURVE SMOOTH",
"240 47 OFFCURVE",
"236 43 OFFCURVE",
"232 40 CURVE SMOOTH",
"221 32 OFFCURVE",
"210 26 OFFCURVE",
"199 18 CURVE SMOOTH",
"168 -4 OFFCURVE",
"137 -23 OFFCURVE",
"97 -23 CURVE SMOOTH",
"79 -23 OFFCURVE",
"66 -22 OFFCURVE",
"66 1 CURVE SMOOTH",
"66 11 OFFCURVE",
"69 21 OFFCURVE",
"72 31 CURVE SMOOTH",
"99 119 OFFCURVE",
"144 173 OFFCURVE",
"199 242 CURVE SMOOTH",
"208 253 OFFCURVE",
"221 274 OFFCURVE",
"234 281 CURVE",
"236 292 OFFCURVE",
"354 396 OFFCURVE",
"371 405 CURVE",
"371 405 OFFCURVE",
"404 432 OFFCURVE",
"407 433 CURVE",
"433 447 LINE",
"438 451 OFFCURVE",
"444 456 OFFCURVE",
"449 459 CURVE SMOOTH",
"472 475 OFFCURVE",
"496 488 OFFCURVE",
"520 501 CURVE SMOOTH",
"528 506 OFFCURVE",
"561 521 OFFCURVE",
"565 526 CURVE",
"575 526 OFFCURVE",
"582 537 OFFCURVE",
"592 537 CURVE",
"593 540 LINE",
"607 540 OFFCURVE",
"620 556 OFFCURVE",
"645 556 CURVE SMOOTH",
"656 556 OFFCURVE",
"675 550 OFFCURVE",
"675 537 CURVE SMOOTH",
"675 509 OFFCURVE",
"587 443 OFFCURVE",
"563 426 CURVE SMOOTH",
"532 405 OFFCURVE",
"503 380 OFFCURVE",
"471 360 CURVE",
"470 358 LINE",
"471 358 LINE SMOOTH",
"473 358 OFFCURVE",
"482 364 OFFCURVE",
"484 365 CURVE SMOOTH",
"490 368 OFFCURVE",
"496 366 OFFCURVE",
"500 371 CURVE",
"503 370 LINE",
"504 370 LINE",
"505 374 OFFCURVE",
"510 375 OFFCURVE",
"512 378 CURVE",
"516 378 OFFCURVE",
"519 380 OFFCURVE",
"521 383 CURVE",
"527 383 OFFCURVE",
"532 388 OFFCURVE",
"539 389 CURVE",
"539 390 LINE",
"540 391 OFFCURVE",
"543 396 OFFCURVE",
"545 397 CURVE",
"546 397 OFFCURVE",
"548 397 OFFCURVE",
"549 398 CURVE",
"559 401 OFFCURVE",
"574 414 OFFCURVE",
"583 421 CURVE",
"583 423 LINE",
"598 423 OFFCURVE",
"628 440 OFFCURVE",
"636 453 CURVE",
"653 462 OFFCURVE",
"665 474 OFFCURVE",
"680 484 CURVE SMOOTH",
"694 492 OFFCURVE",
"710 505 OFFCURVE",
"710 523 CURVE SMOOTH"
);
},
{
closed = 1;
nodes = (
"823 822 OFFCURVE",
"824 821 OFFCURVE",
"823 820 CURVE",
"822 820 OFFCURVE",
"816 818 OFFCURVE",
"812 816 CURVE",
"811 816 OFFCURVE",
"812 817 OFFCURVE",
"812 817 CURVE",
"810 816 OFFCURVE",
"811 815 OFFCURVE",
"810 815 CURVE",
"799 810 LINE",
"799 810 OFFCURVE",
"799 811 OFFCURVE",
"798 812 CURVE",
"794 809 OFFCURVE",
"785 802 OFFCURVE",
"785 802 CURVE",
"780 801 LINE",
"759 787 LINE",
"724 766 LINE",
"722 762 LINE",
"721 762 LINE SMOOTH",
"720 762 OFFCURVE",
"717 762 OFFCURVE",
"716 761 CURVE",
"716 761 OFFCURVE",
"667 736 OFFCURVE",
"638 715 CURVE",
"623 736 OFFCURVE",
"596 761 OFFCURVE",
"596 761 CURVE",
"594 762 OFFCURVE",
"592 762 OFFCURVE",
"591 762 CURVE SMOOTH",
"590 762 LINE",
"590 766 LINE",
"569 787 LINE",
"563 795 OFFCURVE",
"558 801 OFFCURVE",
"558 801 CURVE",
"555 802 LINE",
"555 802 OFFCURVE",
"550 809 OFFCURVE",
"548 812 CURVE",
"547 811 OFFCURVE",
"545 810 OFFCURVE",
"545 810 CURVE",
"538 815 LINE",
"537 815 OFFCURVE",
"538 816 OFFCURVE",
"538 817 CURVE",
"537 817 OFFCURVE",
"536 816 OFFCURVE",
"536 816 CURVE",
"534 818 OFFCURVE",
"530 820 OFFCURVE",
"529 820 CURVE",
"528 821 OFFCURVE",
"529 822 OFFCURVE",
"529 823 CURVE",
"527 826 OFFCURVE",
"527 814 OFFCURVE",
"529 812 CURVE SMOOTH",
"530 811 OFFCURVE",
"528 809 OFFCURVE",
"528 809 CURVE",
"537 796 LINE SMOOTH",
"542 790 OFFCURVE",
"546 784 OFFCURVE",
"551 779 CURVE SMOOTH",
"554 776 LINE",
"555 778 OFFCURVE",
"570 749 OFFCURVE",
"574 752 CURVE",
"574 753 OFFCURVE",
"574 753 OFFCURVE",
"575 753 CURVE",
"576 751 LINE",
"576 751 OFFCURVE",
"603 676 OFFCURVE",
"620 664 CURVE",
"647 676 OFFCURVE",
"728 751 OFFCURVE",
"728 751 CURVE",
"732 753 LINE",
"732 752 LINE SMOOTH",
"733 749 OFFCURVE",
"766 778 OFFCURVE",
"768 776 CURVE",
"772 779 LINE",
"799 796 LINE SMOOTH",
"804 800 OFFCURVE",
"811 805 OFFCURVE",
"815 809 CURVE",
"816 809 OFFCURVE",
"816 811 OFFCURVE",
"817 812 CURVE",
"821 814 OFFCURVE",
"829 826 OFFCURVE",
"825 823 CURVE SMOOTH"
);
}
);
width = 409;
}
);
note = Ccaron;
unicode = 010C;
},
{
color = 3;
glyphname = D;
lastChange = "2021-04-23 03:36:15 +0000";
layers = (
{
hints = (
{
horizontal = 1;
place = "{-91, 23}";
type = Stem;
},
{
horizontal = 1;
place = "{593, 44}";
type = Stem;
},
{
place = "{-2, 24}";
type = Stem;
},
{
place = "{342, 55}";
type = Stem;
},
{
place = "{768, 52}";
type = Stem;
},
{
place = "{768, 64}";
type = Stem;
}
);
layerId = "E8487A59-2E36-4739-8DF2-414A9818920F";
paths = (
{
closed = 1;
nodes = (
"1119 593 LINE",
"1118 599 OFFCURVE",
"1097 615 OFFCURVE",
"1093 621 CURVE",
"1077 630 LINE SMOOTH",
"1065 636 OFFCURVE",
"1053 640 OFFCURVE",
"1040 644 CURVE SMOOTH",
"1036 645 OFFCURVE",
"1032 648 OFFCURVE",
"1027 648 CURVE",
"1027 647 LINE",
"1018 650 LINE SMOOTH",
"1009 652 OFFCURVE",
"972 658 OFFCURVE",
"966 654 CURVE",
"962 654 LINE SMOOTH",
"937 657 OFFCURVE",
"938 665 OFFCURVE",
"914 649 CURVE",
"904 650 OFFCURVE",
"896 645 OFFCURVE",
"887 642 CURVE SMOOTH",
"876 639 OFFCURVE",
"866 635 OFFCURVE",
"856 631 CURVE SMOOTH",
"849 628 OFFCURVE",
"841 626 OFFCURVE",
"834 624 CURVE",
"814 612 LINE",
"807 612 OFFCURVE",
"761 601 OFFCURVE",
"755 598 CURVE SMOOTH",
"742 593 OFFCURVE",
"734 589 OFFCURVE",
"728 584 CURVE",
"688 604 LINE",
"633 621 LINE",
"625 622 OFFCURVE",
"618 626 OFFCURVE",
"610 626 CURVE SMOOTH",
"596 626 OFFCURVE",
"593 637 OFFCURVE",
"587 637 CURVE SMOOTH",
"584 637 OFFCURVE",
"582 636 OFFCURVE",
"580 634 CURVE",
"572 635 OFFCURVE",
"558 640 OFFCURVE",
"551 637 CURVE",
"545 638 OFFCURVE",
"538 639 OFFCURVE",
"532 639 CURVE SMOOTH",
"527 639 OFFCURVE",
"523 638 OFFCURVE",
"519 637 CURVE",
"512 638 OFFCURVE",
"489 638 OFFCURVE",
"483 634 CURVE",
"435 630 LINE",
"411 633 OFFCURVE",
"297 608 OFFCURVE",
"287 592 CURVE SMOOTH",
"286 591 LINE",
"258 595 OFFCURVE",
"202 541 OFFCURVE",
"180 534 CURVE",
"179 532 OFFCURVE",
"147 512 OFFCURVE",
"145 510 CURVE SMOOTH",
"128 497 OFFCURVE",
"110 485 OFFCURVE",
"95 470 CURVE SMOOTH",
"45 419 OFFCURVE",
"-2 337 OFFCURVE",
"-2 264 CURVE SMOOTH",
"-2 251 OFFCURVE",
"-1 231 OFFCURVE",
"12 223 CURVE",
"15 225 LINE",
"23 225 OFFCURVE",
"22 214 OFFCURVE",
"29 211 CURVE",
"30 211 OFFCURVE",
"31 212 OFFCURVE",
"31 213 CURVE SMOOTH",
"31 222 OFFCURVE",
"22 243 OFFCURVE",
"22 261 CURVE SMOOTH",
"22 416 OFFCURVE",
"173 538 OFFCURVE",
"315 563 CURVE",
"317 573 OFFCURVE",
"385 572 OFFCURVE",
"396 585 CURVE",
"402 584 OFFCURVE",
"409 585 OFFCURVE",
"415 585 CURVE",
"416 590 OFFCURVE",
"452 591 OFFCURVE",
"457 591 CURVE SMOOTH",
"460 591 LINE",
"462 595 LINE",
"467 594 OFFCURVE",
"471 593 OFFCURVE",
"476 593 CURVE SMOOTH",
"480 593 OFFCURVE",
"483 593 OFFCURVE",
"486 596 CURVE",
"493 594 OFFCURVE",
"500 592 OFFCURVE",
"507 592 CURVE SMOOTH",
"523 592 OFFCURVE",
"539 586 OFFCURVE",
"556 586 CURVE SMOOTH",
"568 586 OFFCURVE",
"568 574 OFFCURVE",
"580 572 CURVE",
"582 577 LINE",
"582 576 LINE",
"585 575 OFFCURVE",
"587 574 OFFCURVE",
"590 576 CURVE",
"591 571 LINE",
"598 570 OFFCURVE",
"623 550 OFFCURVE",
"638 546 CURVE SMOOTH",
"654 541 LINE",
"655 542 OFFCURVE",
"658 539 OFFCURVE",
"662 536 CURVE",
"657 533 OFFCURVE",
"653 530 OFFCURVE",
"651 528 CURVE SMOOTH",
"640 518 OFFCURVE",
"630 507 OFFCURVE",
"619 498 CURVE SMOOTH",
"613 493 OFFCURVE",
"600 486 OFFCURVE",
"597 479 CURVE",
"593 479 OFFCURVE",
"563 443 OFFCURVE",
"557 439 CURVE SMOOTH",
"536 423 OFFCURVE",
"526 404 OFFCURVE",
"507 385 CURVE SMOOTH",
"454 334 OFFCURVE",
"408 271 OFFCURVE",
"360 214 CURVE SMOOTH",
"344 195 OFFCURVE",
"338 177 OFFCURVE",
"323 157 CURVE SMOOTH",
"315 147 OFFCURVE",
"297 124 OFFCURVE",
"287 116 CURVE",
"288 112 OFFCURVE",
"277 101 OFFCURVE",
"275 96 CURVE",
"274 96 OFFCURVE",
"241 57 OFFCURVE",
"238 52 CURVE SMOOTH",
"233 43 LINE",
"234 43 OFFCURVE",
"202 15 OFFCURVE",
"208 10 CURVE",
"196 -5 OFFCURVE",
"177 -12 OFFCURVE",
"173 -25 CURVE",
"163 -32 OFFCURVE",
"140 -56 OFFCURVE",
"132 -64 CURVE SMOOTH",
"117 -79 OFFCURVE",
"115 -80 OFFCURVE",
"102 -96 CURVE",
"101 -95 OFFCURVE",
"99 -97 OFFCURVE",
"97 -97 CURVE",
"100 -100 OFFCURVE",
"78 -110 OFFCURVE",
"76 -115 CURVE",
"72 -115 LINE",
"56 -131 LINE",
"50 -134 OFFCURVE",
"43 -137 OFFCURVE",
"37 -141 CURVE SMOOTH",
"15 -154 OFFCURVE",
"-8 -172 OFFCURVE",
"-33 -174 CURVE SMOOTH",
"-43 -175 OFFCURVE",
"-53 -171 OFFCURVE",
"-63 -170 CURVE",
"-70 -168 LINE",
"-72 -173 LINE",
"-68 -177 OFFCURVE",
"-43 -178 OFFCURVE",
"-36 -180 CURVE",
"-17 -178 LINE SMOOTH",
"-3 -175 OFFCURVE",
"9 -172 OFFCURVE",
"23 -167 CURVE SMOOTH",
"27 -165 OFFCURVE",
"32 -165 OFFCURVE",
"36 -162 CURVE",
"46 -158 LINE SMOOTH",
"55 -155 OFFCURVE",
"92 -137 OFFCURVE",
"96 -130 CURVE",
"99 -128 LINE",
"122 -116 LINE",
"126 -112 OFFCURVE",
"133 -108 OFFCURVE",
"138 -104 CURVE",
"179 -83 LINE SMOOTH",
"186 -79 OFFCURVE",
"209 -56 OFFCURVE",
"212 -50 CURVE",
"222 -44 OFFCURVE",
"237 -36 OFFCURVE",
"244 -29 CURVE SMOOTH",
"273 3 LINE",
"274 6 OFFCURVE",
"341 81 OFFCURVE",
"342 84 CURVE",
"348 84 OFFCURVE",
"393 148 OFFCURVE",
"401 158 CURVE SMOOTH",
"405 164 OFFCURVE",
"409 170 OFFCURVE",
"414 176 CURVE",
"419 187 LINE",
"427 194 LINE",
"436 208 LINE",
"445 218 LINE",
"466 246 LINE",
"482 264 LINE",
"508 297 LINE",
"521 308 LINE",
"527 319 LINE",
"542 335 LINE",
"545 342 LINE",
"548 346 OFFCURVE",
"555 348 OFFCURVE",
"559 351 CURVE",
"564 358 LINE",
"575 368 OFFCURVE",
"584 379 OFFCURVE",
"592 392 CURVE",
"591 393 OFFCURVE",
"595 391 OFFCURVE",
"595 390 CURVE",
"596 390 LINE",
"596 392 LINE",
"600 398 OFFCURVE",
"607 402 OFFCURVE",
"612 408 CURVE SMOOTH",
"622 418 OFFCURVE",
"632 427 OFFCURVE",
"641 437 CURVE",
"648 448 LINE",
"663 461 LINE",
"669 460 LINE",
"670 463 LINE",
"679 473 LINE",
"682 473 OFFCURVE",
"684 473 OFFCURVE",
"687 474 CURVE",
"702 490 LINE",
"707 492 OFFCURVE",
"709 496 OFFCURVE",
"711 499 CURVE",
"716 495 LINE SMOOTH",
"723 488 OFFCURVE",
"728 481 OFFCURVE",
"730 474 CURVE SMOOTH",
"758 399 OFFCURVE",
"778 396 OFFCURVE",
"763 324 CURVE SMOOTH",
"760 312 OFFCURVE",
"770 250 OFFCURVE",
"764 242 CURVE",
"752 185 OFFCURVE",
"709 116 OFFCURVE",
"698 107 CURVE",
"698 107 OFFCURVE",
"679 78 OFFCURVE",
"677 77 CURVE",
"671 72 OFFCURVE",
"667 55 OFFCURVE",
"662 51 CURVE",
"651 39 LINE SMOOTH",
"636 25 OFFCURVE",
"620 13 OFFCURVE",
"604 0 CURVE SMOOTH",
"564 -32 OFFCURVE",
"391 -118 OFFCURVE",
"396 -29 CURVE SMOOTH",
"398 2 OFFCURVE",
"454 64 OFFCURVE",
"470 79 CURVE SMOOTH",
"490 99 OFFCURVE",
"602 186 OFFCURVE",
"696 229 CURVE",
"688 231 LINE",
"582 194 OFFCURVE",
"502 139 OFFCURVE",
"468 115 CURVE",
"464 113 OFFCURVE",
"465 117 OFFCURVE",
"462 112 CURVE",
"456 110 LINE",
"456 110 OFFCURVE",
"451 104 OFFCURVE",
"450 103 CURVE",
"448 103 OFFCURVE",
"446 100 OFFCURVE",
"444 98 CURVE",
"440 97 OFFCURVE",
"437 93 OFFCURVE",
"433 92 CURVE",
"433 91 LINE",
"431 90 OFFCURVE",
"430 86 OFFCURVE",
"429 85 CURVE",
"428 85 OFFCURVE",
"427 84 OFFCURVE",
"426 84 CURVE",
"419 80 OFFCURVE",
"410 69 OFFCURVE",
"404 62 CURVE",
"404 60 LINE",
"394 60 OFFCURVE",
"396 52 OFFCURVE",
"390 41 CURVE",
"379 33 OFFCURVE",
"371 21 OFFCURVE",
"361 12 CURVE SMOOTH",
"352 4 OFFCURVE",
"342 -10 OFFCURVE",
"342 -26 CURVE SMOOTH",
"341 -46 OFFCURVE",
"343 -61 OFFCURVE",
"373 -81 CURVE SMOOTH",
"417 -113 OFFCURVE",
"562 -60 OFFCURVE",
"602 -29 CURVE SMOOTH",
"614 -20 OFFCURVE",
"628 -13 OFFCURVE",
"640 -3 CURVE SMOOTH",
"658 14 OFFCURVE",
"675 31 OFFCURVE",
"693 47 CURVE SMOOTH",
"706 59 LINE SMOOTH",
"724 76 OFFCURVE",
"739 101 OFFCURVE",
"755 121 CURVE SMOOTH",
"764 132 OFFCURVE",
"759 148 OFFCURVE",
"768 159 CURVE SMOOTH",
"771 164 OFFCURVE",
"775 168 OFFCURVE",
"779 173 CURVE SMOOTH",
"790 187 OFFCURVE",
"800 237 OFFCURVE",
"823 271 CURVE SMOOTH",
"828 278 OFFCURVE",
"823 302 OFFCURVE",
"826 309 CURVE SMOOTH",
"829 314 OFFCURVE",
"833 316 OFFCURVE",
"835 321 CURVE",
"841 331 OFFCURVE",
"826 336 OFFCURVE",
"832 345 CURVE",
"832 377 OFFCURVE",
"812 386 OFFCURVE",
"823 416 CURVE SMOOTH",
"832 439 OFFCURVE",
"801 449 OFFCURVE",
"802 471 CURVE SMOOTH",
"804 493 OFFCURVE",
"799 494 OFFCURVE",
"792 506 CURVE SMOOTH",
"789 510 OFFCURVE",
"788 514 OFFCURVE",
"785 517 CURVE SMOOTH",
"780 521 OFFCURVE",
"768 534 OFFCURVE",
"765 545 CURVE",
"779 552 OFFCURVE",
"789 560 OFFCURVE",
"806 566 CURVE",
"831 578 OFFCURVE",
"856 590 OFFCURVE",
"882 601 CURVE SMOOTH",
"925 621 OFFCURVE",
"902 608 OFFCURVE",
"945 627 CURVE",
"946 625 OFFCURVE",
"948 625 OFFCURVE",
"949 624 CURVE",
"949 628 OFFCURVE",
"971 625 OFFCURVE",
"975 628 CURVE",
"978 626 LINE",
"997 631 LINE",
"1017 628 LINE",
"1041 627 OFFCURVE",
"1067 630 OFFCURVE",
"1087 617 CURVE SMOOTH",
"1097 611 OFFCURVE",
"1103 602 OFFCURVE",
"1110 596 CURVE",
"1114 589 LINE"
);
}
);
width = 793;
}
);
note = D;
unicode = 0044;
},
{
color = 3;
glyphname = Eth;
lastChange = "2021-04-23 03:36:15 +0000";
layers = (
{
hints = (
{
horizontal = 1;
place = "{-91, 23}";
type = Stem;
},
{
horizontal = 1;
place = "{197, 21}";
target = up;
type = BottomGhost;
},
{
horizontal = 1;
place = "{593, 44}";
type = Stem;
},
{
place = "{-2, 24}";
type = Stem;
},
{
place = "{342, 55}";
type = Stem;
},
{
place = "{768, 52}";
type = Stem;
},
{
place = "{768, 64}";
type = Stem;
}
);
layerId = "E8487A59-2E36-4739-8DF2-414A9818920F";
paths = (
{
closed = 1;
nodes = (
"460 157 OFFCURVE",
"451 167 OFFCURVE",
"448 167 CURVE SMOOTH",
"446 167 OFFCURVE",
"446 169 OFFCURVE",
"445 169 CURVE SMOOTH",
"441 170 OFFCURVE",
"433 171 OFFCURVE",
"428 171 CURVE SMOOTH",
"410 171 LINE",
"414 176 LINE",
"419 187 LINE",
"427 194 LINE",
"436 208 LINE",
"445 218 LINE",
"466 246 LINE",
"482 264 LINE",
"508 297 LINE",
"521 308 LINE",
"527 319 LINE",
"542 335 LINE",
"545 342 LINE",
"548 346 OFFCURVE",
"555 348 OFFCURVE",
"559 351 CURVE",
"564 358 LINE",
"575 368 OFFCURVE",
"584 379 OFFCURVE",
"592 392 CURVE",
"591 393 OFFCURVE",
"595 391 OFFCURVE",
"595 390 CURVE",
"596 390 LINE",
"596 392 LINE",
"600 398 OFFCURVE",
"607 402 OFFCURVE",
"612 408 CURVE SMOOTH",
"622 418 OFFCURVE",
"632 427 OFFCURVE",
"641 437 CURVE",
"648 448 LINE",
"663 461 LINE",
"669 460 LINE",
"670 463 LINE",
"679 473 LINE",
"682 473 OFFCURVE",
"684 473 OFFCURVE",
"687 474 CURVE",
"702 490 LINE",
"707 492 OFFCURVE",
"709 496 OFFCURVE",
"711 499 CURVE",
"716 495 LINE SMOOTH",
"723 488 OFFCURVE",
"728 481 OFFCURVE",
"730 474 CURVE SMOOTH",
"758 399 OFFCURVE",
"778 396 OFFCURVE",
"763 324 CURVE SMOOTH",
"760 312 OFFCURVE",
"770 250 OFFCURVE",
"764 242 CURVE",
"752 185 OFFCURVE",
"709 116 OFFCURVE",
"698 107 CURVE",
"698 107 OFFCURVE",
"679 78 OFFCURVE",
"677 77 CURVE",
"671 72 OFFCURVE",
"667 55 OFFCURVE",
"662 51 CURVE",
"651 39 LINE SMOOTH",
"636 25 OFFCURVE",
"620 13 OFFCURVE",
"604 0 CURVE SMOOTH",
"564 -32 OFFCURVE",
"391 -118 OFFCURVE",
"396 -29 CURVE SMOOTH",
"398 2 OFFCURVE",
"454 64 OFFCURVE",
"470 79 CURVE SMOOTH",
"490 99 OFFCURVE",
"602 186 OFFCURVE",
"696 229 CURVE",
"688 231 LINE",
"582 194 OFFCURVE",
"502 139 OFFCURVE",
"468 115 CURVE",
"464 113 OFFCURVE",
"465 117 OFFCURVE",
"462 112 CURVE",
"456 110 LINE",
"456 110 OFFCURVE",
"451 104 OFFCURVE",
"450 103 CURVE",
"448 103 OFFCURVE",
"446 100 OFFCURVE",
"444 98 CURVE",
"440 97 OFFCURVE",
"437 93 OFFCURVE",
"433 92 CURVE",
"433 91 LINE",
"431 90 OFFCURVE",
"430 86 OFFCURVE",
"429 85 CURVE",
"428 85 OFFCURVE",
"427 84 OFFCURVE",
"426 84 CURVE",
"419 80 OFFCURVE",
"410 69 OFFCURVE",
"404 62 CURVE",
"404 60 LINE",
"394 60 OFFCURVE",
"396 52 OFFCURVE",
"390 41 CURVE",
"379 33 OFFCURVE",
"371 21 OFFCURVE",
"361 12 CURVE SMOOTH",
"352 4 OFFCURVE",
"342 -10 OFFCURVE",
"342 -26 CURVE SMOOTH",
"341 -46 OFFCURVE",
"343 -61 OFFCURVE",
"373 -81 CURVE SMOOTH",
"417 -113 OFFCURVE",
"562 -60 OFFCURVE",
"602 -29 CURVE SMOOTH",
"614 -20 OFFCURVE",
"628 -13 OFFCURVE",
"640 -3 CURVE SMOOTH",
"658 14 OFFCURVE",
"675 31 OFFCURVE",
"693 47 CURVE SMOOTH",
"706 59 LINE SMOOTH",
"724 76 OFFCURVE",
"739 101 OFFCURVE",
"755 121 CURVE SMOOTH",
"764 132 OFFCURVE",
"759 148 OFFCURVE",
"768 159 CURVE SMOOTH",
"771 164 OFFCURVE",
"775 168 OFFCURVE",
"779 173 CURVE SMOOTH",
"790 187 OFFCURVE",
"800 237 OFFCURVE",
"823 271 CURVE SMOOTH",
"828 278 OFFCURVE",
"823 302 OFFCURVE",
"826 309 CURVE SMOOTH",
"829 314 OFFCURVE",
"833 316 OFFCURVE",
"835 321 CURVE",
"841 331 OFFCURVE",
"826 336 OFFCURVE",
"832 345 CURVE",
"832 377 OFFCURVE",
"812 386 OFFCURVE",
"823 416 CURVE SMOOTH",
"832 439 OFFCURVE",
"801 449 OFFCURVE",
"802 471 CURVE SMOOTH",
"804 493 OFFCURVE",
"799 494 OFFCURVE",
"792 506 CURVE SMOOTH",
"789 510 OFFCURVE",
"788 514 OFFCURVE",
"785 517 CURVE SMOOTH",
"780 521 OFFCURVE",
"768 534 OFFCURVE",
"765 545 CURVE",
"779 552 OFFCURVE",
"789 560 OFFCURVE",
"806 566 CURVE",
"831 578 OFFCURVE",
"856 590 OFFCURVE",
"882 601 CURVE SMOOTH",
"925 621 OFFCURVE",
"902 608 OFFCURVE",
"945 627 CURVE",
"946 625 OFFCURVE",
"948 625 OFFCURVE",
"949 624 CURVE",
"949 628 OFFCURVE",
"971 625 OFFCURVE",
"975 628 CURVE",
"978 626 LINE",
"997 631 LINE",
"1017 628 LINE",
"1041 627 OFFCURVE",
"1067 630 OFFCURVE",
"1087 617 CURVE SMOOTH",
"1097 611 OFFCURVE",
"1103 602 OFFCURVE",
"1110 596 CURVE",
"1114 589 LINE",
"1119 593 LINE",
"1118 599 OFFCURVE",
"1097 615 OFFCURVE",
"1093 621 CURVE",
"1077 630 LINE SMOOTH",
"1065 636 OFFCURVE",
"1053 640 OFFCURVE",
"1040 644 CURVE SMOOTH",
"1036 645 OFFCURVE",
"1032 648 OFFCURVE",
"1027 648 CURVE",
"1027 647 LINE",
"1018 650 LINE SMOOTH",
"1009 652 OFFCURVE",
"972 658 OFFCURVE",
"966 654 CURVE",
"962 654 LINE SMOOTH",
"937 657 OFFCURVE",
"938 665 OFFCURVE",
"914 649 CURVE",
"904 650 OFFCURVE",
"896 645 OFFCURVE",
"887 642 CURVE SMOOTH",
"876 639 OFFCURVE",
"866 635 OFFCURVE",
"856 631 CURVE SMOOTH",
"849 628 OFFCURVE",
"841 626 OFFCURVE",
"834 624 CURVE",
"814 612 LINE",
"807 612 OFFCURVE",
"761 601 OFFCURVE",
"755 598 CURVE SMOOTH",
"742 593 OFFCURVE",
"734 589 OFFCURVE",
"728 584 CURVE",
"688 604 LINE",
"633 621 LINE",
"625 622 OFFCURVE",
"618 626 OFFCURVE",
"610 626 CURVE SMOOTH",
"596 626 OFFCURVE",
"593 637 OFFCURVE",
"587 637 CURVE SMOOTH",
"584 637 OFFCURVE",
"582 636 OFFCURVE",
"580 634 CURVE",
"572 635 OFFCURVE",
"558 640 OFFCURVE",
"551 637 CURVE",
"545 638 OFFCURVE",
"538 639 OFFCURVE",
"532 639 CURVE SMOOTH",
"527 639 OFFCURVE",
"523 638 OFFCURVE",
"519 637 CURVE",
"512 638 OFFCURVE",
"489 638 OFFCURVE",
"483 634 CURVE",
"435 630 LINE",
"411 633 OFFCURVE",
"297 608 OFFCURVE",
"287 592 CURVE SMOOTH",
"286 591 LINE",
"258 595 OFFCURVE",
"202 541 OFFCURVE",
"180 534 CURVE",
"179 532 OFFCURVE",
"147 512 OFFCURVE",
"145 510 CURVE SMOOTH",
"128 497 OFFCURVE",
"110 485 OFFCURVE",
"95 470 CURVE SMOOTH",
"45 419 OFFCURVE",
"-2 337 OFFCURVE",
"-2 264 CURVE SMOOTH",
"-2 251 OFFCURVE",
"-1 231 OFFCURVE",
"12 223 CURVE",
"15 225 LINE",
"23 225 OFFCURVE",
"22 214 OFFCURVE",
"29 211 CURVE",
"30 211 OFFCURVE",
"31 212 OFFCURVE",
"31 213 CURVE SMOOTH",
"31 222 OFFCURVE",
"22 243 OFFCURVE",
"22 261 CURVE SMOOTH",
"22 416 OFFCURVE",
"173 538 OFFCURVE",
"315 563 CURVE",
"317 573 OFFCURVE",
"385 572 OFFCURVE",
"396 585 CURVE",
"402 584 OFFCURVE",
"409 585 OFFCURVE",
"415 585 CURVE",
"416 590 OFFCURVE",
"452 591 OFFCURVE",
"457 591 CURVE SMOOTH",
"460 591 LINE",
"462 595 LINE",
"467 594 OFFCURVE",
"471 593 OFFCURVE",
"476 593 CURVE SMOOTH",
"480 593 OFFCURVE",
"483 593 OFFCURVE",
"486 596 CURVE",
"493 594 OFFCURVE",
"500 592 OFFCURVE",
"507 592 CURVE SMOOTH",
"523 592 OFFCURVE",
"539 586 OFFCURVE",
"556 586 CURVE SMOOTH",
"568 586 OFFCURVE",
"568 574 OFFCURVE",
"580 572 CURVE",
"582 577 LINE",
"582 576 LINE",
"585 575 OFFCURVE",
"587 574 OFFCURVE",
"590 576 CURVE",
"591 571 LINE",
"598 570 OFFCURVE",
"623 550 OFFCURVE",
"638 546 CURVE SMOOTH",
"654 541 LINE",
"655 542 OFFCURVE",
"658 539 OFFCURVE",
"662 536 CURVE",
"657 533 OFFCURVE",
"653 530 OFFCURVE",
"651 528 CURVE SMOOTH",
"640 518 OFFCURVE",
"630 507 OFFCURVE",
"619 498 CURVE SMOOTH",
"613 493 OFFCURVE",
"600 486 OFFCURVE",
"597 479 CURVE",
"593 479 OFFCURVE",
"563 443 OFFCURVE",
"557 439 CURVE SMOOTH",
"536 423 OFFCURVE",
"526 404 OFFCURVE",
"507 385 CURVE SMOOTH",
"454 334 OFFCURVE",
"408 271 OFFCURVE",
"360 214 CURVE SMOOTH",
"347 199 OFFCURVE",
"341 185 OFFCURVE",
"332 170 CURVE",
"244 170 LINE SMOOTH",
"243 170 OFFCURVE",
"223 165 OFFCURVE",
"221 165 CURVE SMOOTH",
"220 165 OFFCURVE",
"220 167 OFFCURVE",
"219 168 CURVE",
"212 140 LINE",
"212 133 OFFCURVE",
"212 126 OFFCURVE",
"214 120 CURVE",
"218 117 LINE",
"219 118 OFFCURVE",
"230 117 OFFCURVE",
"230 117 CURVE",
"232 117 OFFCURVE",
"235 124 OFFCURVE",
"236 124 CURVE SMOOTH",
"238 124 OFFCURVE",
"236 123 OFFCURVE",
"238 123 CURVE",
"242 130 OFFCURVE",
"266 123 OFFCURVE",
"270 130 CURVE SMOOTH",
"275 138 OFFCURVE",
"287 126 OFFCURVE",
"291 135 CURVE",
"307 137 LINE",
"300 128 OFFCURVE",
"292 120 OFFCURVE",
"287 116 CURVE",
"288 112 OFFCURVE",
"277 101 OFFCURVE",
"275 96 CURVE",
"274 96 OFFCURVE",
"241 57 OFFCURVE",
"238 52 CURVE SMOOTH",
"233 43 LINE",
"234 43 OFFCURVE",
"202 15 OFFCURVE",
"208 10 CURVE",
"196 -5 OFFCURVE",
"177 -12 OFFCURVE",
"173 -25 CURVE",
"163 -32 OFFCURVE",
"140 -56 OFFCURVE",
"132 -64 CURVE SMOOTH",
"117 -79 OFFCURVE",
"115 -80 OFFCURVE",
"102 -96 CURVE",
"101 -95 OFFCURVE",
"99 -97 OFFCURVE",
"97 -97 CURVE",
"100 -100 OFFCURVE",
"78 -110 OFFCURVE",
"76 -115 CURVE",
"72 -115 LINE",
"56 -131 LINE",
"50 -134 OFFCURVE",
"43 -137 OFFCURVE",
"37 -141 CURVE SMOOTH",
"15 -154 OFFCURVE",
"-8 -172 OFFCURVE",
"-33 -174 CURVE SMOOTH",
"-43 -175 OFFCURVE",
"-53 -171 OFFCURVE",
"-63 -170 CURVE",
"-70 -168 LINE",
"-72 -173 LINE",
"-68 -177 OFFCURVE",
"-43 -178 OFFCURVE",
"-36 -180 CURVE",
"-17 -178 LINE SMOOTH",
"-3 -175 OFFCURVE",
"9 -172 OFFCURVE",
"23 -167 CURVE SMOOTH",
"27 -165 OFFCURVE",
"32 -165 OFFCURVE",
"36 -162 CURVE",
"46 -158 LINE SMOOTH",
"55 -155 OFFCURVE",
"92 -137 OFFCURVE",
"96 -130 CURVE",
"99 -128 LINE",
"122 -116 LINE",
"126 -112 OFFCURVE",
"133 -108 OFFCURVE",
"138 -104 CURVE",
"179 -83 LINE SMOOTH",
"186 -79 OFFCURVE",
"209 -56 OFFCURVE",
"212 -50 CURVE",
"222 -44 OFFCURVE",
"237 -36 OFFCURVE",
"244 -29 CURVE SMOOTH",
"273 3 LINE",
"274 6 OFFCURVE",
"341 81 OFFCURVE",
"342 84 CURVE",
"347 84 OFFCURVE",
"376 124 OFFCURVE",
"392 146 CURVE",
"403 147 OFFCURVE",
"412 147 OFFCURVE",
"412 147 CURVE",
"416 149 LINE",
"416 149 OFFCURVE",
"425 148 OFFCURVE",
"430 148 CURVE",
"430 150 OFFCURVE",
"430 152 OFFCURVE",
"431 153 CURVE",
"435 154 OFFCURVE",
"440 156 OFFCURVE",
"441 156 CURVE SMOOTH",
"442 156 OFFCURVE",
"442 153 OFFCURVE",
"444 153 CURVE",
"444 154 OFFCURVE",
"444 155 OFFCURVE",
"445 156 CURVE",
"448 156 OFFCURVE",
"453 159 OFFCURVE",
"454 159 CURVE SMOOTH",
"456 159 OFFCURVE",
"455 157 OFFCURVE",
"457 157 CURVE SMOOTH"
);
}
);
width = 793;
}
);
note = Eth;
unicode = 00D0;
},
{
color = 3;
glyphname = Dcaron;
lastChange = "2021-04-23 03:36:15 +0000";
layers = (
{
hints = (
{
horizontal = 1;
place = "{-91, 23}";
type = Stem;
},
{
horizontal = 1;
place = "{593, 44}";
type = Stem;
},
{
place = "{-2, 24}";
type = Stem;
},
{
place = "{342, 55}";
type = Stem;
},
{
place = "{768, 52}";
type = Stem;
},
{
place = "{768, 64}";
type = Stem;
}
);
layerId = "E8487A59-2E36-4739-8DF2-414A9818920F";
paths = (
{
closed = 1;
nodes = (
"1119 593 LINE",
"1118 599 OFFCURVE",
"1097 615 OFFCURVE",
"1093 621 CURVE",
"1077 630 LINE SMOOTH",
"1065 636 OFFCURVE",
"1053 640 OFFCURVE",
"1040 644 CURVE SMOOTH",
"1036 645 OFFCURVE",
"1032 648 OFFCURVE",
"1027 648 CURVE",
"1027 647 LINE",
"1018 650 LINE SMOOTH",
"1009 652 OFFCURVE",
"972 658 OFFCURVE",
"966 654 CURVE",
"962 654 LINE SMOOTH",
"937 657 OFFCURVE",
"938 665 OFFCURVE",
"914 649 CURVE",
"904 650 OFFCURVE",
"896 645 OFFCURVE",
"887 642 CURVE SMOOTH",
"876 639 OFFCURVE",
"866 635 OFFCURVE",
"856 631 CURVE SMOOTH",
"849 628 OFFCURVE",
"841 626 OFFCURVE",
"834 624 CURVE",
"814 612 LINE",
"807 612 OFFCURVE",
"761 601 OFFCURVE",
"755 598 CURVE SMOOTH",
"742 593 OFFCURVE",
"734 589 OFFCURVE",
"728 584 CURVE",
"688 604 LINE",
"633 621 LINE",
"625 622 OFFCURVE",
"618 626 OFFCURVE",
"610 626 CURVE SMOOTH",
"596 626 OFFCURVE",
"593 637 OFFCURVE",
"587 637 CURVE SMOOTH",
"584 637 OFFCURVE",
"582 636 OFFCURVE",
"580 634 CURVE",
"572 635 OFFCURVE",
"558 640 OFFCURVE",
"551 637 CURVE",
"545 638 OFFCURVE",
"538 639 OFFCURVE",
"532 639 CURVE SMOOTH",
"527 639 OFFCURVE",
"523 638 OFFCURVE",
"519 637 CURVE",
"512 638 OFFCURVE",
"489 638 OFFCURVE",
"483 634 CURVE",
"435 630 LINE",
"411 633 OFFCURVE",
"297 608 OFFCURVE",
"287 592 CURVE SMOOTH",
"286 591 LINE",
"258 595 OFFCURVE",
"202 541 OFFCURVE",
"180 534 CURVE",
"179 532 OFFCURVE",
"147 512 OFFCURVE",
"145 510 CURVE SMOOTH",
"128 497 OFFCURVE",
"110 485 OFFCURVE",
"95 470 CURVE SMOOTH",
"45 419 OFFCURVE",
"-2 337 OFFCURVE",
"-2 264 CURVE SMOOTH",
"-2 251 OFFCURVE",
"-1 231 OFFCURVE",
"12 223 CURVE",
"15 225 LINE",
"23 225 OFFCURVE",
"22 214 OFFCURVE",
"29 211 CURVE",
"30 211 OFFCURVE",
"31 212 OFFCURVE",
"31 213 CURVE SMOOTH",
"31 222 OFFCURVE",
"22 243 OFFCURVE",
"22 261 CURVE SMOOTH",
"22 416 OFFCURVE",
"173 538 OFFCURVE",
"315 563 CURVE",
"317 573 OFFCURVE",
"385 572 OFFCURVE",
"396 585 CURVE",
"402 584 OFFCURVE",
"409 585 OFFCURVE",
"415 585 CURVE",
"416 590 OFFCURVE",
"452 591 OFFCURVE",
"457 591 CURVE SMOOTH",
"460 591 LINE",
"462 595 LINE",
"467 594 OFFCURVE",
"471 593 OFFCURVE",
"476 593 CURVE SMOOTH",
"480 593 OFFCURVE",
"483 593 OFFCURVE",
"486 596 CURVE",
"493 594 OFFCURVE",
"500 592 OFFCURVE",
"507 592 CURVE SMOOTH",
"523 592 OFFCURVE",
"539 586 OFFCURVE",
"556 586 CURVE SMOOTH",
"568 586 OFFCURVE",
"568 574 OFFCURVE",
"580 572 CURVE",
"582 577 LINE",
"582 576 LINE",
"585 575 OFFCURVE",
"587 574 OFFCURVE",
"590 576 CURVE",
"591 571 LINE",
"598 570 OFFCURVE",
"623 550 OFFCURVE",
"638 546 CURVE SMOOTH",
"654 541 LINE",
"655 542 OFFCURVE",
"658 539 OFFCURVE",
"662 536 CURVE",
"657 533 OFFCURVE",
"653 530 OFFCURVE",
"651 528 CURVE SMOOTH",
"640 518 OFFCURVE",
"630 507 OFFCURVE",
"619 498 CURVE SMOOTH",
"613 493 OFFCURVE",
"600 486 OFFCURVE",
"597 479 CURVE",
"593 479 OFFCURVE",
"563 443 OFFCURVE",
"557 439 CURVE SMOOTH",
"536 423 OFFCURVE",
"526 404 OFFCURVE",
"507 385 CURVE SMOOTH",
"454 334 OFFCURVE",
"408 271 OFFCURVE",
"360 214 CURVE SMOOTH",
"344 195 OFFCURVE",
"338 177 OFFCURVE",
"323 157 CURVE SMOOTH",
"315 147 OFFCURVE",
"297 124 OFFCURVE",
"287 116 CURVE",
"288 112 OFFCURVE",
"277 101 OFFCURVE",
"275 96 CURVE",
"274 96 OFFCURVE",
"241 57 OFFCURVE",
"238 52 CURVE SMOOTH",
"233 43 LINE",
"234 43 OFFCURVE",
"202 15 OFFCURVE",
"208 10 CURVE",
"196 -5 OFFCURVE",
"177 -12 OFFCURVE",
"173 -25 CURVE",
"163 -32 OFFCURVE",
"140 -56 OFFCURVE",
"132 -64 CURVE SMOOTH",
"117 -79 OFFCURVE",
"115 -80 OFFCURVE",
"102 -96 CURVE",
"101 -95 OFFCURVE",
"99 -97 OFFCURVE",
"97 -97 CURVE",
"100 -100 OFFCURVE",
"78 -110 OFFCURVE",
"76 -115 CURVE",
"72 -115 LINE",
"56 -131 LINE",
"50 -134 OFFCURVE",
"43 -137 OFFCURVE",
"37 -141 CURVE SMOOTH",
"15 -154 OFFCURVE",
"-8 -172 OFFCURVE",
"-33 -174 CURVE SMOOTH",
"-43 -175 OFFCURVE",
"-53 -171 OFFCURVE",
"-63 -170 CURVE",
"-70 -168 LINE",
"-72 -173 LINE",
"-68 -177 OFFCURVE",
"-43 -178 OFFCURVE",
"-36 -180 CURVE",
"-17 -178 LINE SMOOTH",
"-3 -175 OFFCURVE",
"9 -172 OFFCURVE",
"23 -167 CURVE SMOOTH",
"27 -165 OFFCURVE",
"32 -165 OFFCURVE",
"36 -162 CURVE",
"46 -158 LINE SMOOTH",
"55 -155 OFFCURVE",
"92 -137 OFFCURVE",
"96 -130 CURVE",
"99 -128 LINE",
"122 -116 LINE",
"126 -112 OFFCURVE",
"133 -108 OFFCURVE",
"138 -104 CURVE",
"179 -83 LINE SMOOTH",
"186 -79 OFFCURVE",
"209 -56 OFFCURVE",
"212 -50 CURVE",
"222 -44 OFFCURVE",
"237 -36 OFFCURVE",
"244 -29 CURVE SMOOTH",
"273 3 LINE",
"274 6 OFFCURVE",
"341 81 OFFCURVE",
"342 84 CURVE",
"348 84 OFFCURVE",
"393 148 OFFCURVE",
"401 158 CURVE SMOOTH",
"405 164 OFFCURVE",
"409 170 OFFCURVE",
"414 176 CURVE",
"419 187 LINE",
"427 194 LINE",
"436 208 LINE",
"445 218 LINE",
"466 246 LINE",
"482 264 LINE",
"508 297 LINE",
"521 308 LINE",
"527 319 LINE",
"542 335 LINE",
"545 342 LINE",
"548 346 OFFCURVE",
"555 348 OFFCURVE",
"559 351 CURVE",
"564 358 LINE",
"575 368 OFFCURVE",
"584 379 OFFCURVE",
"592 392 CURVE",
"591 393 OFFCURVE",
"595 391 OFFCURVE",
"595 390 CURVE",
"596 390 LINE",
"596 392 LINE",
"600 398 OFFCURVE",
"607 402 OFFCURVE",
"612 408 CURVE SMOOTH",
"622 418 OFFCURVE",
"632 427 OFFCURVE",
"641 437 CURVE",
"648 448 LINE",
"663 461 LINE",
"669 460 LINE",
"670 463 LINE",
"679 473 LINE",
"682 473 OFFCURVE",
"684 473 OFFCURVE",
"687 474 CURVE",
"702 490 LINE",
"707 492 OFFCURVE",
"709 496 OFFCURVE",
"711 499 CURVE",
"716 495 LINE SMOOTH",
"723 488 OFFCURVE",
"728 481 OFFCURVE",
"730 474 CURVE SMOOTH",
"758 399 OFFCURVE",
"778 396 OFFCURVE",
"763 324 CURVE SMOOTH",
"760 312 OFFCURVE",
"770 250 OFFCURVE",
"764 242 CURVE",
"752 185 OFFCURVE",
"709 116 OFFCURVE",
"698 107 CURVE",
"698 107 OFFCURVE",
"679 78 OFFCURVE",
"677 77 CURVE",
"671 72 OFFCURVE",
"667 55 OFFCURVE",
"662 51 CURVE",
"651 39 LINE SMOOTH",
"636 25 OFFCURVE",
"620 13 OFFCURVE",
"604 0 CURVE SMOOTH",
"564 -32 OFFCURVE",
"391 -118 OFFCURVE",
"396 -29 CURVE SMOOTH",
"398 2 OFFCURVE",
"454 64 OFFCURVE",
"470 79 CURVE SMOOTH",
"490 99 OFFCURVE",
"602 186 OFFCURVE",
"696 229 CURVE",
"688 231 LINE",
"582 194 OFFCURVE",
"502 139 OFFCURVE",
"468 115 CURVE",
"464 113 OFFCURVE",
"465 117 OFFCURVE",
"462 112 CURVE",
"456 110 LINE",
"456 110 OFFCURVE",
"451 104 OFFCURVE",
"450 103 CURVE",
"448 103 OFFCURVE",
"446 100 OFFCURVE",
"444 98 CURVE",
"440 97 OFFCURVE",
"437 93 OFFCURVE",
"433 92 CURVE",
"433 91 LINE",
"431 90 OFFCURVE",
"430 86 OFFCURVE",
"429 85 CURVE",
"428 85 OFFCURVE",
"427 84 OFFCURVE",
"426 84 CURVE",
"419 80 OFFCURVE",
"410 69 OFFCURVE",
"404 62 CURVE",
"404 60 LINE",
"394 60 OFFCURVE",
"396 52 OFFCURVE",
"390 41 CURVE",
"379 33 OFFCURVE",
"371 21 OFFCURVE",
"361 12 CURVE SMOOTH",
"352 4 OFFCURVE",
"342 -10 OFFCURVE",
"342 -26 CURVE SMOOTH",
"341 -46 OFFCURVE",
"343 -61 OFFCURVE",
"373 -81 CURVE SMOOTH",
"417 -113 OFFCURVE",
"562 -60 OFFCURVE",
"602 -29 CURVE SMOOTH",
"614 -20 OFFCURVE",
"628 -13 OFFCURVE",
"640 -3 CURVE SMOOTH",
"658 14 OFFCURVE",
"675 31 OFFCURVE",
"693 47 CURVE SMOOTH",
"706 59 LINE SMOOTH",
"724 76 OFFCURVE",
"739 101 OFFCURVE",
"755 121 CURVE SMOOTH",
"764 132 OFFCURVE",
"759 148 OFFCURVE",
"768 159 CURVE SMOOTH",
"771 164 OFFCURVE",
"775 168 OFFCURVE",
"779 173 CURVE SMOOTH",
"790 187 OFFCURVE",
"800 237 OFFCURVE",
"823 271 CURVE SMOOTH",
"828 278 OFFCURVE",
"823 302 OFFCURVE",
"826 309 CURVE SMOOTH",
"829 314 OFFCURVE",
"833 316 OFFCURVE",
"835 321 CURVE",
"841 331 OFFCURVE",
"826 336 OFFCURVE",
"832 345 CURVE",
"832 377 OFFCURVE",
"812 386 OFFCURVE",
"823 416 CURVE SMOOTH",
"832 439 OFFCURVE",
"801 449 OFFCURVE",
"802 471 CURVE SMOOTH",
"804 493 OFFCURVE",
"799 494 OFFCURVE",
"792 506 CURVE SMOOTH",
"789 510 OFFCURVE",
"788 514 OFFCURVE",
"785 517 CURVE SMOOTH",
"780 521 OFFCURVE",
"768 534 OFFCURVE",
"765 545 CURVE",
"779 552 OFFCURVE",
"789 560 OFFCURVE",
"806 566 CURVE",
"831 578 OFFCURVE",
"856 590 OFFCURVE",
"882 601 CURVE SMOOTH",
"925 621 OFFCURVE",
"902 608 OFFCURVE",
"945 627 CURVE",
"946 625 OFFCURVE",
"948 625 OFFCURVE",
"949 624 CURVE",
"949 628 OFFCURVE",
"971 625 OFFCURVE",
"975 628 CURVE",
"978 626 LINE",
"997 631 LINE",
"1017 628 LINE",
"1041 627 OFFCURVE",
"1067 630 OFFCURVE",
"1087 617 CURVE SMOOTH",
"1097 611 OFFCURVE",
"1103 602 OFFCURVE",
"1110 596 CURVE",
"1114 589 LINE"
);
},
{
closed = 1;
nodes = (
"1019 851 OFFCURVE",
"1020 850 OFFCURVE",
"1019 849 CURVE",
"1018 849 OFFCURVE",
"1012 847 OFFCURVE",
"1008 845 CURVE",
"1007 845 LINE",
"1006 844 OFFCURVE",
"1007 844 OFFCURVE",
"1006 844 CURVE",
"995 839 LINE",
"995 839 OFFCURVE",
"995 840 OFFCURVE",
"994 841 CURVE",
"990 838 OFFCURVE",
"981 831 OFFCURVE",
"981 831 CURVE",
"976 830 LINE",
"955 816 LINE",
"920 795 LINE",
"918 791 LINE",
"917 791 LINE SMOOTH",
"916 791 OFFCURVE",
"913 791 OFFCURVE",
"912 790 CURVE",
"912 790 OFFCURVE",
"863 765 OFFCURVE",
"834 744 CURVE",
"819 765 OFFCURVE",
"792 790 OFFCURVE",
"792 790 CURVE",
"790 791 OFFCURVE",
"788 791 OFFCURVE",
"787 791 CURVE SMOOTH",
"786 791 LINE",
"786 795 LINE",
"765 816 LINE",
"759 824 OFFCURVE",
"754 830 OFFCURVE",
"754 830 CURVE",
"751 831 LINE",
"751 831 OFFCURVE",
"746 838 OFFCURVE",
"744 841 CURVE",
"743 840 OFFCURVE",
"741 839 OFFCURVE",
"741 839 CURVE",
"734 844 LINE",
"733 844 OFFCURVE",
"734 845 OFFCURVE",
"734 846 CURVE",
"733 846 OFFCURVE",
"732 845 OFFCURVE",
"732 845 CURVE",
"730 847 OFFCURVE",
"726 849 OFFCURVE",
"725 849 CURVE",
"724 850 OFFCURVE",
"725 851 OFFCURVE",
"725 852 CURVE",
"723 855 OFFCURVE",
"723 843 OFFCURVE",
"725 841 CURVE SMOOTH",
"726 840 OFFCURVE",
"724 838 OFFCURVE",
"724 838 CURVE",
"733 825 LINE SMOOTH",
"738 819 OFFCURVE",
"742 813 OFFCURVE",
"747 808 CURVE SMOOTH",
"750 805 LINE",
"751 807 OFFCURVE",
"766 778 OFFCURVE",
"770 781 CURVE",
"770 782 OFFCURVE",
"770 782 OFFCURVE",
"771 782 CURVE",
"772 780 LINE",
"772 780 OFFCURVE",
"799 705 OFFCURVE",
"816 693 CURVE",
"843 705 OFFCURVE",
"924 780 OFFCURVE",
"924 780 CURVE",
"928 782 LINE",
"928 781 LINE SMOOTH",
"929 778 OFFCURVE",
"962 807 OFFCURVE",
"964 805 CURVE",
"968 808 LINE",
"995 825 LINE SMOOTH",
"1000 829 OFFCURVE",
"1007 834 OFFCURVE",
"1011 838 CURVE",
"1012 838 OFFCURVE",
"1012 840 OFFCURVE",
"1013 841 CURVE",
"1017 843 OFFCURVE",
"1025 855 OFFCURVE",
"1021 852 CURVE SMOOTH"
);
}
);
width = 793;
}
);
note = Dcaron;
unicode = 010E;
},
{
color = 3;
glyphname = E;
lastChange = "2021-04-23 03:36:15 +0000";
layers = (
{
hints = (
{
horizontal = 1;
place = "{-19, 300}";
type = Stem;
},
{
horizontal = 1;
place = "{456, 49}";
type = Stem;
},
{
horizontal = 1;
place = "{574, 47}";
type = Stem;
},
{
place = "{-37, 18}";
type = Stem;
},
{
horizontal = 1;
place = "{-9, 39}";
type = Stem;
},
{
horizontal = 1;
place = "{244, 39}";
type = Stem;
},
{
horizontal = 1;
place = "{260, 25}";
type = Stem;
},
{
horizontal = 1;
place = "{460, 59}";
type = Stem;
}
);
layerId = "E8487A59-2E36-4739-8DF2-414A9818920F";
paths = (
{
closed = 1;
nodes = (
"709 -60 OFFCURVE",
"710 -55 OFFCURVE",
"708 -53 CURVE",
"707 -54 LINE",
"707 -47 LINE SMOOTH",
"706 -41 OFFCURVE",
"697 -19 OFFCURVE",
"688 -21 CURVE",
"686 -19 LINE",
"679 -6 LINE",
"675 -5 OFFCURVE",
"673 -1 OFFCURVE",
"669 1 CURVE",
"637 9 LINE",
"634 13 OFFCURVE",
"612 19 OFFCURVE",
"605 19 CURVE",
"601 24 OFFCURVE",
"591 23 OFFCURVE",
"584 25 CURVE SMOOTH",
"574 27 OFFCURVE",
"564 28 OFFCURVE",
"554 29 CURVE SMOOTH",
"547 29 OFFCURVE",
"539 18 OFFCURVE",
"532 19 CURVE",
"509 31 LINE",
"506 34 OFFCURVE",
"480 30 OFFCURVE",
"472 29 CURVE SMOOTH",
"437 27 OFFCURVE",
"356 16 OFFCURVE",
"317 8 CURVE SMOOTH",
"302 5 OFFCURVE",
"287 4 OFFCURVE",
"272 1 CURVE SMOOTH",
"201 -11 LINE",
"202 -8 OFFCURVE",
"202 -4 OFFCURVE",
"199 1 CURVE",
"208 10 OFFCURVE",
"203 21 OFFCURVE",
"206 31 CURVE SMOOTH",
"231 114 OFFCURVE",
"273 168 OFFCURVE",
"324 231 CURVE",
"380 244 LINE",
"412 244 LINE SMOOTH",
"417 244 OFFCURVE",
"422 248 OFFCURVE",
"426 249 CURVE SMOOTH",
"437 252 OFFCURVE",
"467 256 OFFCURVE",
"471 256 CURVE SMOOTH",
"475 256 OFFCURVE",
"479 254 OFFCURVE",
"482 254 CURVE",
"486 256 OFFCURVE",
"493 258 OFFCURVE",
"493 258 CURVE",
"504 261 LINE",
"504 261 OFFCURVE",
"531 260 OFFCURVE",
"544 260 CURVE",
"544 262 OFFCURVE",
"544 265 OFFCURVE",
"546 265 CURVE SMOOTH",
"556 267 OFFCURVE",
"569 269 OFFCURVE",
"572 269 CURVE SMOOTH",
"576 269 OFFCURVE",
"579 266 OFFCURVE",
"582 266 CURVE",
"582 267 OFFCURVE",
"582 268 OFFCURVE",
"584 269 CURVE",
"593 269 OFFCURVE",
"606 273 OFFCURVE",
"610 273 CURVE SMOOTH",
"614 273 OFFCURVE",
"614 270 OFFCURVE",
"618 270 CURVE SMOOTH",
"622 270 OFFCURVE",
"651 275 OFFCURVE",
"667 279 CURVE",
"667 280 OFFCURVE",
"665 282 OFFCURVE",
"665 282 CURVE",
"658 281 OFFCURVE",
"650 281 OFFCURVE",
"645 278 CURVE",
"643 280 OFFCURVE",
"642 282 OFFCURVE",
"642 283 CURVE",
"640 282 OFFCURVE",
"638 281 OFFCURVE",
"633 281 CURVE SMOOTH",
"629 281 OFFCURVE",
"591 282 OFFCURVE",
"586 282 CURVE SMOOTH",
"581 282 OFFCURVE",
"580 285 OFFCURVE",
"578 285 CURVE SMOOTH",
"563 286 OFFCURVE",
"542 287 OFFCURVE",
"527 287 CURVE SMOOTH",
"520 287 OFFCURVE",
"507 289 OFFCURVE",
"504 289 CURVE SMOOTH",
"499 289 OFFCURVE",
"480 286 OFFCURVE",
"476 286 CURVE SMOOTH",
"471 286 LINE SMOOTH",
"467 286 OFFCURVE",
"449 288 OFFCURVE",
"445 288 CURVE SMOOTH",
"440 288 OFFCURVE",
"424 283 OFFCURVE",
"419 283 CURVE SMOOTH",
"369 284 LINE",
"382 303 OFFCURVE",
"488 396 OFFCURVE",
"504 405 CURVE",
"504 405 OFFCURVE",
"538 432 OFFCURVE",
"541 433 CURVE",
"566 447 LINE SMOOTH",
"572 451 OFFCURVE",
"577 456 OFFCURVE",
"582 459 CURVE SMOOTH",
"603 473 OFFCURVE",
"625 485 OFFCURVE",
"646 497 CURVE",
"651 496 LINE",
"650 490 OFFCURVE",
"692 486 OFFCURVE",
"695 486 CURVE SMOOTH",
"699 486 LINE SMOOTH",
"702 486 OFFCURVE",
"709 484 OFFCURVE",
"711 480 CURVE",
"712 480 LINE",
"713 479 LINE",
"747 476 OFFCURVE",
"779 458 OFFCURVE",
"813 461 CURVE SMOOTH",
"815 461 OFFCURVE",
"817 461 OFFCURVE",
"818 462 CURVE",
"820 462 LINE",
"820 460 OFFCURVE",
"822 460 OFFCURVE",
"822 460 CURVE",
"831 457 OFFCURVE",
"841 459 OFFCURVE",
"850 458 CURVE",
"857 456 OFFCURVE",
"864 456 OFFCURVE",
"870 456 CURVE SMOOTH",
"913 459 OFFCURVE",
"1000 499 OFFCURVE",
"1013 564 CURVE",
"1006 564 OFFCURVE",
"1002 554 OFFCURVE",
"997 549 CURVE SMOOTH",
"970 522 OFFCURVE",
"910 508 OFFCURVE",
"879 506 CURVE",
"875 505 OFFCURVE",
"870 508 OFFCURVE",
"867 505 CURVE",
"851 508 OFFCURVE",
"836 513 OFFCURVE",
"820 512 CURVE SMOOTH",
"816 512 OFFCURVE",
"812 511 OFFCURVE",
"809 509 CURVE",
"809 508 LINE",
"806 509 OFFCURVE",
"808 513 OFFCURVE",
"800 514 CURVE SMOOTH",
"791 516 OFFCURVE",
"788 520 OFFCURVE",
"779 519 CURVE SMOOTH",
"770 519 LINE",
"770 524 LINE",
"765 525 OFFCURVE",
"764 523 OFFCURVE",
"759 525 CURVE",
"752 523 LINE",
"751 521 LINE",
"751 522 LINE",
"747 523 OFFCURVE",
"746 528 OFFCURVE",
"742 528 CURVE SMOOTH",
"741 528 OFFCURVE",
"741 527 OFFCURVE",
"740 527 CURVE",
"740 527 OFFCURVE",
"739 527 OFFCURVE",
"739 526 CURVE",
"736 527 OFFCURVE",
"734 531 OFFCURVE",
"731 532 CURVE",
"731 527 LINE",
"730 528 OFFCURVE",
"730 527 OFFCURVE",
"730 527 CURVE",
"729 532 LINE",
"726 532 LINE SMOOTH",
"723 532 OFFCURVE",
"719 530 OFFCURVE",
"718 536 CURVE",
"720 537 OFFCURVE",
"723 537 OFFCURVE",
"725 537 CURVE",
"727 540 LINE",
"741 540 OFFCURVE",
"782 574 OFFCURVE",
"807 574 CURVE SMOOTH",
"833 574 OFFCURVE",
"845 567 OFFCURVE",
"851 548 CURVE",
"855 523 OFFCURVE",
"872 534 OFFCURVE",
"872 541 CURVE SMOOTH",
"872 563 OFFCURVE",
"827 590 OFFCURVE",
"811 605 CURVE SMOOTH",
"800 616 OFFCURVE",
"791 621 OFFCURVE",
"775 621 CURVE SMOOTH",
"756 621 OFFCURVE",
"714 617 OFFCURVE",
"705 608 CURVE SMOOTH",
"698 601 OFFCURVE",
"651 597 OFFCURVE",
"658 584 CURVE SMOOTH",
"661 578 OFFCURVE",
"651 574 OFFCURVE",
"645 574 CURVE SMOOTH",
"637 574 OFFCURVE",
"612 562 OFFCURVE",
"590 550 CURVE",
"586 551 OFFCURVE",
"583 553 OFFCURVE",
"581 554 CURVE",
"578 551 LINE",
"568 553 OFFCURVE",
"558 561 OFFCURVE",
"548 560 CURVE SMOOTH",
"547 560 OFFCURVE",
"544 559 OFFCURVE",
"544 559 CURVE",
"544 562 OFFCURVE",
"528 563 OFFCURVE",
"524 565 CURVE",
"523 565 OFFCURVE",
"521 563 OFFCURVE",
"521 563 CURVE",
"521 567 OFFCURVE",
"507 570 OFFCURVE",
"505 570 CURVE SMOOTH",
"483 568 OFFCURVE",
"457 576 OFFCURVE",
"436 580 CURVE",
"435 576 LINE",
"429 577 OFFCURVE",
"423 581 OFFCURVE",
"417 580 CURVE SMOOTH",
"416 580 OFFCURVE",
"414 580 OFFCURVE",
"412 578 CURVE",
"410 579 OFFCURVE",
"405 581 OFFCURVE",
"402 581 CURVE SMOOTH",
"400 581 OFFCURVE",
"398 580 OFFCURVE",
"397 578 CURVE",
"390 579 OFFCURVE",
"380 583 OFFCURVE",
"374 580 CURVE",
"369 580 OFFCURVE",
"364 581 OFFCURVE",
"360 581 CURVE SMOOTH",
"356 581 OFFCURVE",
"353 579 OFFCURVE",
"350 577 CURVE",
"344 578 OFFCURVE",
"337 580 OFFCURVE",
"332 576 CURVE",
"332 575 LINE",
"314 577 OFFCURVE",
"206 550 OFFCURVE",
"197 533 CURVE",
"197 532 LINE",
"176 534 OFFCURVE",
"125 488 OFFCURVE",
"108 479 CURVE",
"107 477 OFFCURVE",
"83 455 OFFCURVE",
"80 452 CURVE SMOOTH",
"67 437 OFFCURVE",
"53 425 OFFCURVE",
"41 408 CURVE SMOOTH",
"2 352 OFFCURVE",
"-36 263 OFFCURVE",
"-37 187 CURVE SMOOTH",
"-37 173 OFFCURVE",
"-36 152 OFFCURVE",
"-27 144 CURVE",
"-24 147 LINE",
"-19 147 OFFCURVE",
"-19 136 OFFCURVE",
"-14 132 CURVE",
"-13 132 OFFCURVE",
"-12 134 OFFCURVE",
"-12 135 CURVE SMOOTH",
"-12 144 OFFCURVE",
"-19 166 OFFCURVE",
"-18 185 CURVE SMOOTH",
"-16 347 OFFCURVE",
"103 482 OFFCURVE",
"212 516 CURVE",
"214 527 OFFCURVE",
"266 529 OFFCURVE",
"275 543 CURVE",
"280 542 OFFCURVE",
"285 544 OFFCURVE",
"290 544 CURVE",
"291 549 OFFCURVE",
"318 552 OFFCURVE",
"323 553 CURVE SMOOTH",
"325 553 LINE",
"326 557 LINE",
"330 556 OFFCURVE",
"334 555 OFFCURVE",
"337 555 CURVE SMOOTH",
"340 555 OFFCURVE",
"343 556 OFFCURVE",
"345 559 CURVE",
"350 558 OFFCURVE",
"355 556 OFFCURVE",
"361 556 CURVE SMOOTH",
"373 557 OFFCURVE",
"386 551 OFFCURVE",
"398 552 CURVE SMOOTH",
"408 553 OFFCURVE",
"411 553 OFFCURVE",
"419 551 CURVE",
"421 556 LINE",
"422 555 LINE",
"424 555 OFFCURVE",
"425 554 OFFCURVE",
"427 556 CURVE",
"428 551 LINE",
"434 549 OFFCURVE",
"441 548 OFFCURVE",
"447 549 CURVE SMOOTH",
"451 549 OFFCURVE",
"455 550 OFFCURVE",
"459 553 CURVE",
"459 554 LINE",
"460 554 LINE",
"459 547 LINE",
"465 547 LINE",
"467 550 LINE",
"472 546 LINE",
"473 546 OFFCURVE",
"475 545 OFFCURVE",
"476 544 CURVE",
"477 550 LINE",
"480 550 LINE",
"479 542 LINE",
"482 541 OFFCURVE",
"486 544 OFFCURVE",
"488 548 CURVE",
"493 546 OFFCURVE",
"498 536 OFFCURVE",
"505 536 CURVE SMOOTH",
"506 536 OFFCURVE",
"507 537 OFFCURVE",
"508 538 CURVE",
"517 534 OFFCURVE",
"525 534 OFFCURVE",
"534 533 CURVE",
"536 531 OFFCURVE",
"538 529 OFFCURVE",
"540 528 CURVE",
"542 534 LINE",
"550 530 LINE",
"549 529 LINE",
"547 529 LINE",
"547 525 LINE",
"548 525 LINE",
"474 476 LINE SMOOTH",
"468 472 OFFCURVE",
"460 468 OFFCURVE",
"454 463 CURVE SMOOTH",
"427 445 OFFCURVE",
"404 419 OFFCURVE",
"379 396 CURVE SMOOTH",
"340 359 LINE SMOOTH",
"334 354 OFFCURVE",
"328 350 OFFCURVE",
"323 345 CURVE SMOOTH",
"303 325 OFFCURVE",
"287 302 OFFCURVE",
"269 281 CURVE",
"256 280 OFFCURVE",
"244 278 OFFCURVE",
"242 278 CURVE SMOOTH",
"237 278 OFFCURVE",
"237 281 OFFCURVE",
"233 282 CURVE",
"231 248 LINE",
"237 236 LINE",
"234 231 OFFCURVE",
"228 230 OFFCURVE",
"225 226 CURVE SMOOTH",
"217 217 OFFCURVE",
"211 198 OFFCURVE",
"202 191 CURVE",
"202 184 LINE",
"199 177 OFFCURVE",
"189 170 OFFCURVE",
"189 161 CURVE SMOOTH",
"189 159 OFFCURVE",
"190 157 OFFCURVE",
"191 155 CURVE",
"193 157 OFFCURVE",
"194 160 OFFCURVE",
"194 162 CURVE",
"196 162 LINE",
"197 161 LINE",
"197 155 OFFCURVE",
"178 130 OFFCURVE",
"173 126 CURVE",
"173 125 LINE",
"172 125 LINE",
"172 135 OFFCURVE",
"179 142 OFFCURVE",
"182 151 CURVE",
"180 151 LINE",
"180 147 OFFCURVE",
"171 134 OFFCURVE",
"169 129 CURVE SMOOTH",
"158 107 OFFCURVE",
"147 74 OFFCURVE",
"147 49 CURVE SMOOTH",
"147 25 OFFCURVE",
"154 21 OFFCURVE",
"167 3 CURVE SMOOTH",
"171 -2 OFFCURVE",
"173 -8 OFFCURVE",
"178 -12 CURVE",
"179 -12 OFFCURVE",
"180 -13 OFFCURVE",
"181 -14 CURVE",
"148 -19 LINE SMOOTH",
"131 -22 OFFCURVE",
"69 -37 OFFCURVE",
"61 -39 CURVE SMOOTH",
"30 -44 OFFCURVE",
"50 -69 OFFCURVE",
"91 -65 CURVE",
"174 -46 OFFCURVE",
"197 -27 OFFCURVE",
"289 -19 CURVE SMOOTH",
"316 -15 LINE",
"368 -14 OFFCURVE",
"476 -7 OFFCURVE",
"526 -9 CURVE SMOOTH",
"540 -10 OFFCURVE",
"552 -22 OFFCURVE",
"571 -16 CURVE",
"576 -22 OFFCURVE",
"586 -33 OFFCURVE",
"594 -35 CURVE SMOOTH",
"609 -39 OFFCURVE",
"624 -35 OFFCURVE",
"642 -36 CURVE",
"641 -37 OFFCURVE",
"641 -39 OFFCURVE",
"641 -40 CURVE",
"646 -36 OFFCURVE",
"651 -49 OFFCURVE",
"658 -47 CURVE",
"656 -51 LINE",
"672 -55 LINE",
"674 -59 OFFCURVE",
"675 -63 OFFCURVE",
"678 -66 CURVE",
"686 -78 OFFCURVE",
"703 -87 OFFCURVE",
"695 -108 CURVE SMOOTH",
"692 -117 OFFCURVE",
"682 -127 OFFCURVE",
"677 -137 CURVE",
"670 -144 LINE",
"677 -143 LINE",
"684 -137 OFFCURVE",
"697 -114 OFFCURVE",
"703 -106 CURVE",
"707 -92 LINE SMOOTH",
"710 -80 OFFCURVE",
"710 -72 OFFCURVE",
"709 -63 CURVE SMOOTH"
);
}
);
width = 725;
}
);
note = E;
unicode = 0045;
},
{
color = 3;
glyphname = Eacute;
lastChange = "2021-04-23 03:36:15 +0000";
layers = (
{
hints = (
{
horizontal = 1;
place = "{-19, 300}";
type = Stem;
},
{
horizontal = 1;
place = "{456, 49}";
type = Stem;
},
{
horizontal = 1;
place = "{574, 47}";
type = Stem;
},
{
place = "{-37, 18}";
type = Stem;
},
{
horizontal = 1;
place = "{-9, 39}";
type = Stem;
},
{
horizontal = 1;
place = "{244, 39}";
type = Stem;
},
{
horizontal = 1;
place = "{260, 25}";
type = Stem;
},
{
horizontal = 1;
place = "{460, 59}";
type = Stem;
}
);
layerId = "E8487A59-2E36-4739-8DF2-414A9818920F";
paths = (
{
closed = 1;
nodes = (
"709 -60 OFFCURVE",
"710 -55 OFFCURVE",
"708 -53 CURVE",
"707 -54 LINE",
"707 -47 LINE SMOOTH",
"706 -41 OFFCURVE",
"697 -19 OFFCURVE",
"688 -21 CURVE",
"686 -19 LINE",
"679 -6 LINE",
"675 -5 OFFCURVE",
"673 -1 OFFCURVE",
"669 1 CURVE",
"637 9 LINE",
"634 13 OFFCURVE",
"612 19 OFFCURVE",
"605 19 CURVE",
"601 24 OFFCURVE",
"591 23 OFFCURVE",
"584 25 CURVE SMOOTH",
"574 27 OFFCURVE",
"564 28 OFFCURVE",
"554 29 CURVE SMOOTH",
"547 29 OFFCURVE",
"539 18 OFFCURVE",
"532 19 CURVE",
"509 31 LINE",
"506 34 OFFCURVE",
"480 30 OFFCURVE",
"472 29 CURVE SMOOTH",
"437 27 OFFCURVE",
"356 16 OFFCURVE",
"317 8 CURVE SMOOTH",
"302 5 OFFCURVE",
"287 4 OFFCURVE",
"272 1 CURVE SMOOTH",
"201 -11 LINE",
"202 -8 OFFCURVE",
"202 -4 OFFCURVE",
"199 1 CURVE",
"208 10 OFFCURVE",
"203 21 OFFCURVE",
"206 31 CURVE SMOOTH",
"231 114 OFFCURVE",
"273 168 OFFCURVE",
"324 231 CURVE",
"380 244 LINE",
"412 244 LINE SMOOTH",
"417 244 OFFCURVE",
"422 248 OFFCURVE",
"426 249 CURVE SMOOTH",
"437 252 OFFCURVE",
"467 256 OFFCURVE",
"471 256 CURVE SMOOTH",
"475 256 OFFCURVE",
"479 254 OFFCURVE",
"482 254 CURVE",
"486 256 OFFCURVE",
"493 258 OFFCURVE",
"493 258 CURVE",
"504 261 LINE",
"504 261 OFFCURVE",
"531 260 OFFCURVE",
"544 260 CURVE",
"544 262 OFFCURVE",
"544 265 OFFCURVE",
"546 265 CURVE SMOOTH",
"556 267 OFFCURVE",
"569 269 OFFCURVE",
"572 269 CURVE SMOOTH",
"576 269 OFFCURVE",
"579 266 OFFCURVE",
"582 266 CURVE",
"582 267 OFFCURVE",
"582 268 OFFCURVE",
"584 269 CURVE",
"593 269 OFFCURVE",
"606 273 OFFCURVE",
"610 273 CURVE SMOOTH",
"614 273 OFFCURVE",
"614 270 OFFCURVE",
"618 270 CURVE SMOOTH",
"622 270 OFFCURVE",
"651 275 OFFCURVE",
"667 279 CURVE",
"667 280 OFFCURVE",
"665 282 OFFCURVE",
"665 282 CURVE",
"658 281 OFFCURVE",
"650 281 OFFCURVE",
"645 278 CURVE",
"643 280 OFFCURVE",
"642 282 OFFCURVE",
"642 283 CURVE",
"640 282 OFFCURVE",
"638 281 OFFCURVE",
"633 281 CURVE SMOOTH",
"629 281 OFFCURVE",
"591 282 OFFCURVE",
"586 282 CURVE SMOOTH",
"581 282 OFFCURVE",
"580 285 OFFCURVE",
"578 285 CURVE SMOOTH",
"563 286 OFFCURVE",
"542 287 OFFCURVE",
"527 287 CURVE SMOOTH",
"520 287 OFFCURVE",
"507 289 OFFCURVE",
"504 289 CURVE SMOOTH",
"499 289 OFFCURVE",
"480 286 OFFCURVE",
"476 286 CURVE SMOOTH",
"471 286 LINE SMOOTH",
"467 286 OFFCURVE",
"449 288 OFFCURVE",
"445 288 CURVE SMOOTH",
"440 288 OFFCURVE",
"424 283 OFFCURVE",
"419 283 CURVE SMOOTH",
"369 284 LINE",
"382 303 OFFCURVE",
"488 396 OFFCURVE",
"504 405 CURVE",
"504 405 OFFCURVE",
"538 432 OFFCURVE",
"541 433 CURVE",
"566 447 LINE SMOOTH",
"572 451 OFFCURVE",
"577 456 OFFCURVE",
"582 459 CURVE SMOOTH",
"603 473 OFFCURVE",
"625 485 OFFCURVE",
"646 497 CURVE",
"651 496 LINE",
"650 490 OFFCURVE",
"692 486 OFFCURVE",
"695 486 CURVE SMOOTH",
"699 486 LINE SMOOTH",
"702 486 OFFCURVE",
"709 484 OFFCURVE",
"711 480 CURVE",
"712 480 LINE",
"713 479 LINE",
"747 476 OFFCURVE",
"779 458 OFFCURVE",
"813 461 CURVE SMOOTH",
"815 461 OFFCURVE",
"817 461 OFFCURVE",
"818 462 CURVE",
"820 462 LINE",
"820 460 OFFCURVE",
"822 460 OFFCURVE",
"822 460 CURVE",
"831 457 OFFCURVE",
"841 459 OFFCURVE",
"850 458 CURVE",
"857 456 OFFCURVE",
"864 456 OFFCURVE",
"870 456 CURVE SMOOTH",
"913 459 OFFCURVE",
"1000 499 OFFCURVE",
"1013 564 CURVE",
"1006 564 OFFCURVE",
"1002 554 OFFCURVE",
"997 549 CURVE SMOOTH",
"970 522 OFFCURVE",
"910 508 OFFCURVE",
"879 506 CURVE",
"875 505 OFFCURVE",
"870 508 OFFCURVE",
"867 505 CURVE",
"851 508 OFFCURVE",
"836 513 OFFCURVE",
"820 512 CURVE SMOOTH",
"816 512 OFFCURVE",
"812 511 OFFCURVE",
"809 509 CURVE",
"809 508 LINE",
"806 509 OFFCURVE",
"808 513 OFFCURVE",
"800 514 CURVE SMOOTH",
"791 516 OFFCURVE",
"788 520 OFFCURVE",
"779 519 CURVE SMOOTH",
"770 519 LINE",
"770 524 LINE",
"765 525 OFFCURVE",
"764 523 OFFCURVE",
"759 525 CURVE",
"752 523 LINE",
"751 521 LINE",
"751 522 LINE",
"747 523 OFFCURVE",
"746 528 OFFCURVE",
"742 528 CURVE SMOOTH",
"741 528 OFFCURVE",
"741 527 OFFCURVE",
"740 527 CURVE",
"740 527 OFFCURVE",
"739 527 OFFCURVE",
"739 526 CURVE",
"736 527 OFFCURVE",
"734 531 OFFCURVE",
"731 532 CURVE",
"731 527 LINE",
"730 528 OFFCURVE",
"730 527 OFFCURVE",
"730 527 CURVE",
"729 532 LINE",
"726 532 LINE SMOOTH",
"723 532 OFFCURVE",
"719 530 OFFCURVE",
"718 536 CURVE",
"720 537 OFFCURVE",
"723 537 OFFCURVE",
"725 537 CURVE",
"727 540 LINE",
"741 540 OFFCURVE",
"782 574 OFFCURVE",
"807 574 CURVE SMOOTH",
"833 574 OFFCURVE",
"845 567 OFFCURVE",
"851 548 CURVE",
"855 523 OFFCURVE",
"872 534 OFFCURVE",
"872 541 CURVE SMOOTH",
"872 563 OFFCURVE",
"827 590 OFFCURVE",
"811 605 CURVE SMOOTH",
"800 616 OFFCURVE",
"791 621 OFFCURVE",
"775 621 CURVE SMOOTH",
"756 621 OFFCURVE",
"714 617 OFFCURVE",
"705 608 CURVE SMOOTH",
"698 601 OFFCURVE",
"651 597 OFFCURVE",
"658 584 CURVE SMOOTH",
"661 578 OFFCURVE",
"651 574 OFFCURVE",
"645 574 CURVE SMOOTH",
"637 574 OFFCURVE",
"612 562 OFFCURVE",
"590 550 CURVE",
"586 551 OFFCURVE",
"583 553 OFFCURVE",
"581 554 CURVE",
"578 551 LINE",
"568 553 OFFCURVE",
"558 561 OFFCURVE",
"548 560 CURVE SMOOTH",
"547 560 OFFCURVE",
"544 559 OFFCURVE",
"544 559 CURVE",
"544 562 OFFCURVE",
"528 563 OFFCURVE",
"524 565 CURVE",
"523 565 OFFCURVE",
"521 563 OFFCURVE",
"521 563 CURVE",
"521 567 OFFCURVE",
"507 570 OFFCURVE",
"505 570 CURVE SMOOTH",
"483 568 OFFCURVE",
"457 576 OFFCURVE",
"436 580 CURVE",
"435 576 LINE",
"429 577 OFFCURVE",
"423 581 OFFCURVE",
"417 580 CURVE SMOOTH",
"416 580 OFFCURVE",
"414 580 OFFCURVE",
"412 578 CURVE",
"410 579 OFFCURVE",
"405 581 OFFCURVE",
"402 581 CURVE SMOOTH",
"400 581 OFFCURVE",
"398 580 OFFCURVE",
"397 578 CURVE",
"390 579 OFFCURVE",
"380 583 OFFCURVE",
"374 580 CURVE",
"369 580 OFFCURVE",
"364 581 OFFCURVE",
"360 581 CURVE SMOOTH",
"356 581 OFFCURVE",
"353 579 OFFCURVE",
"350 577 CURVE",
"344 578 OFFCURVE",
"337 580 OFFCURVE",
"332 576 CURVE",
"332 575 LINE",
"314 577 OFFCURVE",
"206 550 OFFCURVE",
"197 533 CURVE",
"197 532 LINE",
"176 534 OFFCURVE",
"125 488 OFFCURVE",
"108 479 CURVE",
"107 477 OFFCURVE",
"83 455 OFFCURVE",
"80 452 CURVE SMOOTH",
"67 437 OFFCURVE",
"53 425 OFFCURVE",
"41 408 CURVE SMOOTH",
"2 352 OFFCURVE",
"-36 263 OFFCURVE",
"-37 187 CURVE SMOOTH",
"-37 173 OFFCURVE",
"-36 152 OFFCURVE",
"-27 144 CURVE",
"-24 147 LINE",
"-19 147 OFFCURVE",
"-19 136 OFFCURVE",
"-14 132 CURVE",
"-13 132 OFFCURVE",
"-12 134 OFFCURVE",
"-12 135 CURVE SMOOTH",
"-12 144 OFFCURVE",
"-19 166 OFFCURVE",
"-18 185 CURVE SMOOTH",
"-16 347 OFFCURVE",
"103 482 OFFCURVE",
"212 516 CURVE",
"214 527 OFFCURVE",
"266 529 OFFCURVE",
"275 543 CURVE",
"280 542 OFFCURVE",
"285 544 OFFCURVE",
"290 544 CURVE",
"291 549 OFFCURVE",
"318 552 OFFCURVE",
"323 553 CURVE SMOOTH",
"325 553 LINE",
"326 557 LINE",
"330 556 OFFCURVE",
"334 555 OFFCURVE",
"337 555 CURVE SMOOTH",
"340 555 OFFCURVE",
"343 556 OFFCURVE",
"345 559 CURVE",
"350 558 OFFCURVE",
"355 556 OFFCURVE",
"361 556 CURVE SMOOTH",
"373 557 OFFCURVE",
"386 551 OFFCURVE",
"398 552 CURVE SMOOTH",
"408 553 OFFCURVE",
"411 553 OFFCURVE",
"419 551 CURVE",
"421 556 LINE",
"422 555 LINE",
"424 555 OFFCURVE",
"425 554 OFFCURVE",
"427 556 CURVE",
"428 551 LINE",
"434 549 OFFCURVE",
"441 548 OFFCURVE",
"447 549 CURVE SMOOTH",
"451 549 OFFCURVE",
"455 550 OFFCURVE",
"459 553 CURVE",
"459 554 LINE",
"460 554 LINE",
"459 547 LINE",
"465 547 LINE",
"467 550 LINE",
"472 546 LINE",
"473 546 OFFCURVE",
"475 545 OFFCURVE",
"476 544 CURVE",
"477 550 LINE",
"480 550 LINE",
"479 542 LINE",
"482 541 OFFCURVE",
"486 544 OFFCURVE",
"488 548 CURVE",
"493 546 OFFCURVE",
"498 536 OFFCURVE",
"505 536 CURVE SMOOTH",
"506 536 OFFCURVE",
"507 537 OFFCURVE",
"508 538 CURVE",
"517 534 OFFCURVE",
"525 534 OFFCURVE",
"534 533 CURVE",
"536 531 OFFCURVE",
"538 529 OFFCURVE",
"540 528 CURVE",
"542 534 LINE",
"550 530 LINE",
"549 529 LINE",
"547 529 LINE",
"547 525 LINE",
"548 525 LINE",
"474 476 LINE SMOOTH",
"468 472 OFFCURVE",
"460 468 OFFCURVE",
"454 463 CURVE SMOOTH",
"427 445 OFFCURVE",
"404 419 OFFCURVE",
"379 396 CURVE SMOOTH",
"340 359 LINE SMOOTH",
"334 354 OFFCURVE",
"328 350 OFFCURVE",
"323 345 CURVE SMOOTH",
"303 325 OFFCURVE",
"287 302 OFFCURVE",
"269 281 CURVE",
"256 280 OFFCURVE",
"244 278 OFFCURVE",
"242 278 CURVE SMOOTH",
"237 278 OFFCURVE",
"237 281 OFFCURVE",
"233 282 CURVE",
"231 248 LINE",
"237 236 LINE",
"234 231 OFFCURVE",
"228 230 OFFCURVE",
"225 226 CURVE SMOOTH",
"217 217 OFFCURVE",
"211 198 OFFCURVE",
"202 191 CURVE",
"202 184 LINE",
"199 177 OFFCURVE",
"189 170 OFFCURVE",
"189 161 CURVE SMOOTH",
"189 159 OFFCURVE",
"190 157 OFFCURVE",
"191 155 CURVE",
"193 157 OFFCURVE",
"194 160 OFFCURVE",
"194 162 CURVE",
"196 162 LINE",
"197 161 LINE",
"197 155 OFFCURVE",
"178 130 OFFCURVE",
"173 126 CURVE",
"173 125 LINE",
"172 125 LINE",
"172 135 OFFCURVE",
"179 142 OFFCURVE",
"182 151 CURVE",
"180 151 LINE",
"180 147 OFFCURVE",
"171 134 OFFCURVE",
"169 129 CURVE SMOOTH",
"158 107 OFFCURVE",
"147 74 OFFCURVE",
"147 49 CURVE SMOOTH",
"147 25 OFFCURVE",
"154 21 OFFCURVE",
"167 3 CURVE SMOOTH",
"171 -2 OFFCURVE",
"173 -8 OFFCURVE",
"178 -12 CURVE",
"179 -12 OFFCURVE",
"180 -13 OFFCURVE",
"181 -14 CURVE",
"148 -19 LINE SMOOTH",
"131 -22 OFFCURVE",
"69 -37 OFFCURVE",
"61 -39 CURVE SMOOTH",
"30 -44 OFFCURVE",
"50 -69 OFFCURVE",
"91 -65 CURVE",
"174 -46 OFFCURVE",
"197 -27 OFFCURVE",
"289 -19 CURVE SMOOTH",
"316 -15 LINE",
"368 -14 OFFCURVE",
"476 -7 OFFCURVE",
"526 -9 CURVE SMOOTH",
"540 -10 OFFCURVE",
"552 -22 OFFCURVE",
"571 -16 CURVE",
"576 -22 OFFCURVE",
"586 -33 OFFCURVE",
"594 -35 CURVE SMOOTH",
"609 -39 OFFCURVE",
"624 -35 OFFCURVE",
"642 -36 CURVE",
"641 -37 OFFCURVE",
"641 -39 OFFCURVE",
"641 -40 CURVE",
"646 -36 OFFCURVE",
"651 -49 OFFCURVE",
"658 -47 CURVE",
"656 -51 LINE",
"672 -55 LINE",
"674 -59 OFFCURVE",
"675 -63 OFFCURVE",
"678 -66 CURVE",
"686 -78 OFFCURVE",
"703 -87 OFFCURVE",
"695 -108 CURVE SMOOTH",
"692 -117 OFFCURVE",
"682 -127 OFFCURVE",
"677 -137 CURVE",
"670 -144 LINE",
"677 -143 LINE",
"684 -137 OFFCURVE",
"697 -114 OFFCURVE",
"703 -106 CURVE",
"707 -92 LINE SMOOTH",
"710 -80 OFFCURVE",
"710 -72 OFFCURVE",
"709 -63 CURVE SMOOTH"
);
},
{
closed = 1;
nodes = (
"915 744 OFFCURVE",
"915 762 OFFCURVE",
"909 780 CURVE",
"906 784 OFFCURVE",
"903 797 OFFCURVE",
"895 794 CURVE SMOOTH",
"893 793 OFFCURVE",
"892 791 OFFCURVE",
"892 789 CURVE",
"886 786 OFFCURVE",
"881 782 OFFCURVE",
"876 779 CURVE SMOOTH",
"841 759 OFFCURVE",
"811 735 OFFCURVE",
"780 709 CURVE SMOOTH",
"769 700 OFFCURVE",
"758 692 OFFCURVE",
"750 682 CURVE",
"742 668 OFFCURVE",
"748 665 OFFCURVE",
"748 665 CURVE",
"749 665 OFFCURVE",
"750 664 OFFCURVE",
"750 666 CURVE",
"754 667 OFFCURVE",
"757 667 OFFCURVE",
"761 669 CURVE SMOOTH",
"768 672 OFFCURVE",
"775 682 OFFCURVE",
"783 683 CURVE SMOOTH",
"784 683 OFFCURVE",
"786 682 OFFCURVE",
"786 684 CURVE",
"792 687 OFFCURVE",
"813 704 OFFCURVE",
"819 703 CURVE",
"819 704 OFFCURVE",
"819 707 OFFCURVE",
"820 707 CURVE SMOOTH",
"830 707 OFFCURVE",
"834 715 OFFCURVE",
"842 720 CURVE SMOOTH",
"849 724 OFFCURVE",
"857 724 OFFCURVE",
"864 728 CURVE SMOOTH",
"869 731 OFFCURVE",
"873 735 OFFCURVE",
"879 738 CURVE SMOOTH",
"889 742 OFFCURVE",
"900 733 OFFCURVE",
"910 735 CURVE",
"915 735 OFFCURVE",
"916 744 OFFCURVE",
"915 744 CURVE"
);
}
);
width = 725;
}
);
note = Eacute;
unicode = 00C9;
},
{
color = 3;
glyphname = Ecaron;
lastChange = "2021-04-23 03:36:15 +0000";
layers = (
{
hints = (
{
horizontal = 1;
place = "{-19, 300}";
type = Stem;
},
{
horizontal = 1;
place = "{456, 49}";
type = Stem;
},
{
horizontal = 1;
place = "{574, 47}";
type = Stem;
},
{
place = "{-37, 18}";
type = Stem;
},
{
horizontal = 1;
place = "{-9, 39}";
type = Stem;
},
{
horizontal = 1;
place = "{244, 39}";
type = Stem;
},
{
horizontal = 1;
place = "{260, 25}";
type = Stem;
},
{
horizontal = 1;
place = "{460, 59}";
type = Stem;
}
);
layerId = "E8487A59-2E36-4739-8DF2-414A9818920F";
paths = (
{
closed = 1;
nodes = (
"709 -60 OFFCURVE",
"710 -55 OFFCURVE",
"708 -53 CURVE",
"707 -54 LINE",
"707 -47 LINE SMOOTH",
"706 -41 OFFCURVE",
"697 -19 OFFCURVE",
"688 -21 CURVE",
"686 -19 LINE",
"679 -6 LINE",
"675 -5 OFFCURVE",
"673 -1 OFFCURVE",
"669 1 CURVE",
"637 9 LINE",
"634 13 OFFCURVE",
"612 19 OFFCURVE",
"605 19 CURVE",
"601 24 OFFCURVE",
"591 23 OFFCURVE",
"584 25 CURVE SMOOTH",
"574 27 OFFCURVE",
"564 28 OFFCURVE",
"554 29 CURVE SMOOTH",
"547 29 OFFCURVE",
"539 18 OFFCURVE",
"532 19 CURVE",
"509 31 LINE",
"506 34 OFFCURVE",
"480 30 OFFCURVE",
"472 29 CURVE SMOOTH",
"437 27 OFFCURVE",
"356 16 OFFCURVE",
"317 8 CURVE SMOOTH",
"302 5 OFFCURVE",
"287 4 OFFCURVE",
"272 1 CURVE SMOOTH",
"201 -11 LINE",
"202 -8 OFFCURVE",
"202 -4 OFFCURVE",
"199 1 CURVE",
"208 10 OFFCURVE",
"203 21 OFFCURVE",
"206 31 CURVE SMOOTH",
"231 114 OFFCURVE",
"273 168 OFFCURVE",
"324 231 CURVE",
"380 244 LINE",
"412 244 LINE SMOOTH",
"417 244 OFFCURVE",
"422 248 OFFCURVE",
"426 249 CURVE SMOOTH",
"437 252 OFFCURVE",
"467 256 OFFCURVE",
"471 256 CURVE SMOOTH",
"475 256 OFFCURVE",
"479 254 OFFCURVE",
"482 254 CURVE",
"486 256 OFFCURVE",
"493 258 OFFCURVE",
"493 258 CURVE",
"504 261 LINE",
"504 261 OFFCURVE",
"531 260 OFFCURVE",
"544 260 CURVE",
"544 262 OFFCURVE",
"544 265 OFFCURVE",
"546 265 CURVE SMOOTH",
"556 267 OFFCURVE",
"569 269 OFFCURVE",
"572 269 CURVE SMOOTH",
"576 269 OFFCURVE",
"579 266 OFFCURVE",
"582 266 CURVE",
"582 267 OFFCURVE",
"582 268 OFFCURVE",
"584 269 CURVE",
"593 269 OFFCURVE",
"606 273 OFFCURVE",
"610 273 CURVE SMOOTH",
"614 273 OFFCURVE",
"614 270 OFFCURVE",
"618 270 CURVE SMOOTH",
"622 270 OFFCURVE",
"651 275 OFFCURVE",
"667 279 CURVE",
"667 280 OFFCURVE",
"665 282 OFFCURVE",
"665 282 CURVE",
"658 281 OFFCURVE",
"650 281 OFFCURVE",
"645 278 CURVE",
"643 280 OFFCURVE",
"642 282 OFFCURVE",
"642 283 CURVE",
"640 282 OFFCURVE",
"638 281 OFFCURVE",
"633 281 CURVE SMOOTH",
"629 281 OFFCURVE",
"591 282 OFFCURVE",
"586 282 CURVE SMOOTH",
"581 282 OFFCURVE",
"580 285 OFFCURVE",
"578 285 CURVE SMOOTH",
"563 286 OFFCURVE",
"542 287 OFFCURVE",
"527 287 CURVE SMOOTH",
"520 287 OFFCURVE",
"507 289 OFFCURVE",
"504 289 CURVE SMOOTH",
"499 289 OFFCURVE",
"480 286 OFFCURVE",
"476 286 CURVE SMOOTH",
"471 286 LINE SMOOTH",
"467 286 OFFCURVE",
"449 288 OFFCURVE",
"445 288 CURVE SMOOTH",
"440 288 OFFCURVE",
"424 283 OFFCURVE",
"419 283 CURVE SMOOTH",
"369 284 LINE",
"382 303 OFFCURVE",
"488 396 OFFCURVE",
"504 405 CURVE",
"504 405 OFFCURVE",
"538 432 OFFCURVE",
"541 433 CURVE",
"566 447 LINE SMOOTH",
"572 451 OFFCURVE",
"577 456 OFFCURVE",
"582 459 CURVE SMOOTH",
"603 473 OFFCURVE",
"625 485 OFFCURVE",
"646 497 CURVE",
"651 496 LINE",
"650 490 OFFCURVE",
"692 486 OFFCURVE",
"695 486 CURVE SMOOTH",
"699 486 LINE SMOOTH",
"702 486 OFFCURVE",
"709 484 OFFCURVE",
"711 480 CURVE",
"712 480 LINE",
"713 479 LINE",
"747 476 OFFCURVE",
"779 458 OFFCURVE",
"813 461 CURVE SMOOTH",
"815 461 OFFCURVE",
"817 461 OFFCURVE",
"818 462 CURVE",
"820 462 LINE",
"820 460 OFFCURVE",
"822 460 OFFCURVE",
"822 460 CURVE",
"831 457 OFFCURVE",
"841 459 OFFCURVE",
"850 458 CURVE",
"857 456 OFFCURVE",
"864 456 OFFCURVE",
"870 456 CURVE SMOOTH",
"913 459 OFFCURVE",
"1000 499 OFFCURVE",
"1013 564 CURVE",
"1006 564 OFFCURVE",
"1002 554 OFFCURVE",
"997 549 CURVE SMOOTH",
"970 522 OFFCURVE",
"910 508 OFFCURVE",
"879 506 CURVE",
"875 505 OFFCURVE",
"870 508 OFFCURVE",
"867 505 CURVE",
"851 508 OFFCURVE",
"836 513 OFFCURVE",
"820 512 CURVE SMOOTH",
"816 512 OFFCURVE",
"812 511 OFFCURVE",
"809 509 CURVE",
"809 508 LINE",
"806 509 OFFCURVE",
"808 513 OFFCURVE",
"800 514 CURVE SMOOTH",
"791 516 OFFCURVE",
"788 520 OFFCURVE",
"779 519 CURVE SMOOTH",
"770 519 LINE",
"770 524 LINE",
"765 525 OFFCURVE",
"764 523 OFFCURVE",
"759 525 CURVE",
"752 523 LINE",
"751 521 LINE",
"751 522 LINE",
"747 523 OFFCURVE",
"746 528 OFFCURVE",
"742 528 CURVE SMOOTH",
"741 528 OFFCURVE",
"741 527 OFFCURVE",
"740 527 CURVE",
"740 527 OFFCURVE",
"739 527 OFFCURVE",
"739 526 CURVE",
"736 527 OFFCURVE",
"734 531 OFFCURVE",
"731 532 CURVE",
"731 527 LINE",
"730 528 OFFCURVE",
"730 527 OFFCURVE",
"730 527 CURVE",
"729 532 LINE",
"726 532 LINE SMOOTH",
"723 532 OFFCURVE",
"719 530 OFFCURVE",
"718 536 CURVE",
"720 537 OFFCURVE",
"723 537 OFFCURVE",
"725 537 CURVE",
"727 540 LINE",
"741 540 OFFCURVE",
"782 574 OFFCURVE",
"807 574 CURVE SMOOTH",
"833 574 OFFCURVE",
"845 567 OFFCURVE",
"851 548 CURVE",
"855 523 OFFCURVE",
"872 534 OFFCURVE",
"872 541 CURVE SMOOTH",
"872 563 OFFCURVE",
"827 590 OFFCURVE",
"811 605 CURVE SMOOTH",
"800 616 OFFCURVE",
"791 621 OFFCURVE",
"775 621 CURVE SMOOTH",
"756 621 OFFCURVE",
"714 617 OFFCURVE",
"705 608 CURVE SMOOTH",
"698 601 OFFCURVE",
"651 597 OFFCURVE",
"658 584 CURVE SMOOTH",
"661 578 OFFCURVE",
"651 574 OFFCURVE",
"645 574 CURVE SMOOTH",
"637 574 OFFCURVE",
"612 562 OFFCURVE",
"590 550 CURVE",
"586 551 OFFCURVE",
"583 553 OFFCURVE",
"581 554 CURVE",
"578 551 LINE",
"568 553 OFFCURVE",
"558 561 OFFCURVE",
"548 560 CURVE SMOOTH",
"547 560 OFFCURVE",
"544 559 OFFCURVE",
"544 559 CURVE",
"544 562 OFFCURVE",
"528 563 OFFCURVE",
"524 565 CURVE",
"523 565 OFFCURVE",
"521 563 OFFCURVE",
"521 563 CURVE",
"521 567 OFFCURVE",
"507 570 OFFCURVE",
"505 570 CURVE SMOOTH",
"483 568 OFFCURVE",
"457 576 OFFCURVE",
"436 580 CURVE",
"435 576 LINE",
"429 577 OFFCURVE",
"423 581 OFFCURVE",
"417 580 CURVE SMOOTH",
"416 580 OFFCURVE",
"414 580 OFFCURVE",
"412 578 CURVE",
"410 579 OFFCURVE",
"405 581 OFFCURVE",
"402 581 CURVE SMOOTH",
"400 581 OFFCURVE",
"398 580 OFFCURVE",
"397 578 CURVE",
"390 579 OFFCURVE",
"380 583 OFFCURVE",
"374 580 CURVE",
"369 580 OFFCURVE",
"364 581 OFFCURVE",
"360 581 CURVE SMOOTH",
"356 581 OFFCURVE",
"353 579 OFFCURVE",
"350 577 CURVE",
"344 578 OFFCURVE",
"337 580 OFFCURVE",
"332 576 CURVE",
"332 575 LINE",
"314 577 OFFCURVE",
"206 550 OFFCURVE",
"197 533 CURVE",
"197 532 LINE",
"176 534 OFFCURVE",
"125 488 OFFCURVE",
"108 479 CURVE",
"107 477 OFFCURVE",
"83 455 OFFCURVE",
"80 452 CURVE SMOOTH",
"67 437 OFFCURVE",
"53 425 OFFCURVE",
"41 408 CURVE SMOOTH",
"2 352 OFFCURVE",
"-36 263 OFFCURVE",
"-37 187 CURVE SMOOTH",
"-37 173 OFFCURVE",
"-36 152 OFFCURVE",
"-27 144 CURVE",
"-24 147 LINE",
"-19 147 OFFCURVE",
"-19 136 OFFCURVE",
"-14 132 CURVE",
"-13 132 OFFCURVE",
"-12 134 OFFCURVE",
"-12 135 CURVE SMOOTH",
"-12 144 OFFCURVE",
"-19 166 OFFCURVE",
"-18 185 CURVE SMOOTH",
"-16 347 OFFCURVE",
"103 482 OFFCURVE",
"212 516 CURVE",
"214 527 OFFCURVE",
"266 529 OFFCURVE",
"275 543 CURVE",
"280 542 OFFCURVE",
"285 544 OFFCURVE",
"290 544 CURVE",
"291 549 OFFCURVE",
"318 552 OFFCURVE",
"323 553 CURVE SMOOTH",
"325 553 LINE",
"326 557 LINE",
"330 556 OFFCURVE",
"334 555 OFFCURVE",
"337 555 CURVE SMOOTH",
"340 555 OFFCURVE",
"343 556 OFFCURVE",
"345 559 CURVE",
"350 558 OFFCURVE",
"355 556 OFFCURVE",
"361 556 CURVE SMOOTH",
"373 557 OFFCURVE",
"386 551 OFFCURVE",
"398 552 CURVE SMOOTH",
"408 553 OFFCURVE",
"411 553 OFFCURVE",
"419 551 CURVE",
"421 556 LINE",
"422 555 LINE",
"424 555 OFFCURVE",
"425 554 OFFCURVE",
"427 556 CURVE",
"428 551 LINE",
"434 549 OFFCURVE",
"441 548 OFFCURVE",
"447 549 CURVE SMOOTH",
"451 549 OFFCURVE",
"455 550 OFFCURVE",
"459 553 CURVE",
"459 554 LINE",
"460 554 LINE",
"459 547 LINE",
"465 547 LINE",
"467 550 LINE",
"472 546 LINE",
"473 546 OFFCURVE",
"475 545 OFFCURVE",
"476 544 CURVE",
"477 550 LINE",
"480 550 LINE",
"479 542 LINE",
"482 541 OFFCURVE",
"486 544 OFFCURVE",
"488 548 CURVE",
"493 546 OFFCURVE",
"498 536 OFFCURVE",
"505 536 CURVE SMOOTH",
"506 536 OFFCURVE",
"507 537 OFFCURVE",
"508 538 CURVE",
"517 534 OFFCURVE",
"525 534 OFFCURVE",
"534 533 CURVE",
"536 531 OFFCURVE",
"538 529 OFFCURVE",
"540 528 CURVE",
"542 534 LINE",
"550 530 LINE",
"549 529 LINE",
"547 529 LINE",
"547 525 LINE",
"548 525 LINE",
"474 476 LINE SMOOTH",
"468 472 OFFCURVE",
"460 468 OFFCURVE",
"454 463 CURVE SMOOTH",
"427 445 OFFCURVE",
"404 419 OFFCURVE",
"379 396 CURVE SMOOTH",
"340 359 LINE SMOOTH",
"334 354 OFFCURVE",
"328 350 OFFCURVE",
"323 345 CURVE SMOOTH",
"303 325 OFFCURVE",
"287 302 OFFCURVE",
"269 281 CURVE",
"256 280 OFFCURVE",
"244 278 OFFCURVE",
"242 278 CURVE SMOOTH",
"237 278 OFFCURVE",
"237 281 OFFCURVE",
"233 282 CURVE",
"231 248 LINE",
"237 236 LINE",
"234 231 OFFCURVE",
"228 230 OFFCURVE",
"225 226 CURVE SMOOTH",
"217 217 OFFCURVE",
"211 198 OFFCURVE",
"202 191 CURVE",
"202 184 LINE",
"199 177 OFFCURVE",
"189 170 OFFCURVE",
"189 161 CURVE SMOOTH",
"189 159 OFFCURVE",
"190 157 OFFCURVE",
"191 155 CURVE",
"193 157 OFFCURVE",
"194 160 OFFCURVE",
"194 162 CURVE",
"196 162 LINE",
"197 161 LINE",
"197 155 OFFCURVE",
"178 130 OFFCURVE",
"173 126 CURVE",
"173 125 LINE",
"172 125 LINE",
"172 135 OFFCURVE",
"179 142 OFFCURVE",
"182 151 CURVE",
"180 151 LINE",
"180 147 OFFCURVE",
"171 134 OFFCURVE",
"169 129 CURVE SMOOTH",
"158 107 OFFCURVE",
"147 74 OFFCURVE",
"147 49 CURVE SMOOTH",
"147 25 OFFCURVE",
"154 21 OFFCURVE",
"167 3 CURVE SMOOTH",
"171 -2 OFFCURVE",
"173 -8 OFFCURVE",
"178 -12 CURVE",
"179 -12 OFFCURVE",
"180 -13 OFFCURVE",
"181 -14 CURVE",
"148 -19 LINE SMOOTH",
"131 -22 OFFCURVE",
"69 -37 OFFCURVE",
"61 -39 CURVE SMOOTH",
"30 -44 OFFCURVE",
"50 -69 OFFCURVE",
"91 -65 CURVE",
"174 -46 OFFCURVE",
"197 -27 OFFCURVE",
"289 -19 CURVE SMOOTH",
"316 -15 LINE",
"368 -14 OFFCURVE",
"476 -7 OFFCURVE",
"526 -9 CURVE SMOOTH",
"540 -10 OFFCURVE",
"552 -22 OFFCURVE",
"571 -16 CURVE",
"576 -22 OFFCURVE",
"586 -33 OFFCURVE",
"594 -35 CURVE SMOOTH",
"609 -39 OFFCURVE",
"624 -35 OFFCURVE",
"642 -36 CURVE",
"641 -37 OFFCURVE",
"641 -39 OFFCURVE",
"641 -40 CURVE",
"646 -36 OFFCURVE",
"651 -49 OFFCURVE",
"658 -47 CURVE",
"656 -51 LINE",
"672 -55 LINE",
"674 -59 OFFCURVE",
"675 -63 OFFCURVE",
"678 -66 CURVE",
"686 -78 OFFCURVE",
"703 -87 OFFCURVE",
"695 -108 CURVE SMOOTH",
"692 -117 OFFCURVE",
"682 -127 OFFCURVE",
"677 -137 CURVE",
"670 -144 LINE",
"677 -143 LINE",
"684 -137 OFFCURVE",
"697 -114 OFFCURVE",
"703 -106 CURVE",
"707 -92 LINE SMOOTH",
"710 -80 OFFCURVE",
"710 -72 OFFCURVE",
"709 -63 CURVE SMOOTH"
);
},
{
closed = 1;
nodes = (
"1037 821 OFFCURVE",
"1038 820 OFFCURVE",
"1037 819 CURVE",
"1036 819 OFFCURVE",
"1030 817 OFFCURVE",
"1026 815 CURVE",
"1025 815 OFFCURVE",
"1026 816 OFFCURVE",
"1026 816 CURVE",
"1024 815 OFFCURVE",
"1025 814 OFFCURVE",
"1024 814 CURVE",
"1013 809 LINE",
"1013 809 OFFCURVE",
"1013 810 OFFCURVE",
"1012 811 CURVE",
"1008 808 OFFCURVE",
"999 801 OFFCURVE",
"999 801 CURVE",
"994 800 LINE",
"973 786 LINE",
"938 765 LINE",
"936 761 LINE",
"935 761 LINE SMOOTH",
"934 761 OFFCURVE",
"931 761 OFFCURVE",
"930 760 CURVE",
"930 760 OFFCURVE",
"881 735 OFFCURVE",
"852 714 CURVE",
"837 735 OFFCURVE",
"810 760 OFFCURVE",
"810 760 CURVE",
"808 761 OFFCURVE",
"806 761 OFFCURVE",
"805 761 CURVE SMOOTH",
"804 761 LINE",
"804 765 LINE",
"783 786 LINE",
"777 794 OFFCURVE",
"772 800 OFFCURVE",
"772 800 CURVE",
"769 801 LINE",
"769 801 OFFCURVE",
"764 808 OFFCURVE",
"762 811 CURVE",
"761 810 OFFCURVE",
"759 809 OFFCURVE",
"759 809 CURVE",
"752 814 LINE",
"751 814 OFFCURVE",
"752 815 OFFCURVE",
"752 816 CURVE",
"751 816 OFFCURVE",
"750 815 OFFCURVE",
"750 815 CURVE",
"748 817 OFFCURVE",
"744 819 OFFCURVE",
"743 819 CURVE",
"742 820 OFFCURVE",
"743 821 OFFCURVE",
"743 822 CURVE",
"741 825 OFFCURVE",
"741 813 OFFCURVE",
"743 811 CURVE SMOOTH",
"744 810 OFFCURVE",
"742 808 OFFCURVE",
"742 808 CURVE",
"751 795 LINE SMOOTH",
"756 789 OFFCURVE",
"760 783 OFFCURVE",
"765 778 CURVE SMOOTH",
"768 775 LINE",
"769 777 OFFCURVE",
"784 748 OFFCURVE",
"788 751 CURVE",
"788 752 OFFCURVE",
"788 752 OFFCURVE",
"789 752 CURVE",
"790 750 LINE",
"790 750 OFFCURVE",
"817 675 OFFCURVE",
"834 663 CURVE",
"861 675 OFFCURVE",
"942 750 OFFCURVE",
"942 750 CURVE",
"946 752 LINE",
"946 751 LINE SMOOTH",
"947 748 OFFCURVE",
"980 777 OFFCURVE",
"982 775 CURVE",
"986 778 LINE",
"1013 795 LINE SMOOTH",
"1018 799 OFFCURVE",
"1025 804 OFFCURVE",
"1029 808 CURVE",
"1030 808 OFFCURVE",
"1030 810 OFFCURVE",
"1031 811 CURVE",
"1035 813 OFFCURVE",
"1043 825 OFFCURVE",
"1039 822 CURVE SMOOTH"
);
}
);
width = 725;
}
);
note = Ecaron;
unicode = 011A;
},
{
color = 3;
glyphname = Ecircumflex;
lastChange = "2021-04-23 03:36:15 +0000";
layers = (
{
hints = (
{
horizontal = 1;
place = "{-19, 300}";
type = Stem;
},
{
horizontal = 1;
place = "{456, 49}";
type = Stem;
},
{
horizontal = 1;
place = "{574, 47}";
type = Stem;
},
{
horizontal = 1;
place = "{876, 59}";
type = Stem;
},
{
place = "{-37, 18}";
type = Stem;
},
{
horizontal = 1;
place = "{-9, 39}";
type = Stem;
},
{
horizontal = 1;
place = "{244, 39}";
type = Stem;
},
{
horizontal = 1;
place = "{260, 25}";
type = Stem;
},
{
horizontal = 1;
place = "{460, 59}";
type = Stem;
}
);
layerId = "E8487A59-2E36-4739-8DF2-414A9818920F";
paths = (
{
closed = 1;
nodes = (
"709 -60 OFFCURVE",
"710 -55 OFFCURVE",
"708 -53 CURVE",
"707 -54 LINE",
"707 -47 LINE SMOOTH",
"706 -41 OFFCURVE",
"697 -19 OFFCURVE",
"688 -21 CURVE",
"686 -19 LINE",
"679 -6 LINE",
"675 -5 OFFCURVE",
"673 -1 OFFCURVE",
"669 1 CURVE",
"637 9 LINE",
"634 13 OFFCURVE",
"612 19 OFFCURVE",
"605 19 CURVE",
"601 24 OFFCURVE",
"591 23 OFFCURVE",
"584 25 CURVE SMOOTH",
"574 27 OFFCURVE",
"564 28 OFFCURVE",
"554 29 CURVE SMOOTH",
"547 29 OFFCURVE",
"539 18 OFFCURVE",
"532 19 CURVE",
"509 31 LINE",
"506 34 OFFCURVE",
"480 30 OFFCURVE",
"472 29 CURVE SMOOTH",
"437 27 OFFCURVE",
"356 16 OFFCURVE",
"317 8 CURVE SMOOTH",
"302 5 OFFCURVE",
"287 4 OFFCURVE",
"272 1 CURVE SMOOTH",
"201 -11 LINE",
"202 -8 OFFCURVE",
"202 -4 OFFCURVE",
"199 1 CURVE",
"208 10 OFFCURVE",
"203 21 OFFCURVE",
"206 31 CURVE SMOOTH",
"231 114 OFFCURVE",
"273 168 OFFCURVE",
"324 231 CURVE",
"380 244 LINE",
"412 244 LINE SMOOTH",
"417 244 OFFCURVE",
"422 248 OFFCURVE",
"426 249 CURVE SMOOTH",
"437 252 OFFCURVE",
"467 256 OFFCURVE",
"471 256 CURVE SMOOTH",
"475 256 OFFCURVE",
"479 254 OFFCURVE",
"482 254 CURVE",
"486 256 OFFCURVE",
"493 258 OFFCURVE",
"493 258 CURVE",
"504 261 LINE",
"504 261 OFFCURVE",
"531 260 OFFCURVE",
"544 260 CURVE",
"544 262 OFFCURVE",
"544 265 OFFCURVE",
"546 265 CURVE SMOOTH",
"556 267 OFFCURVE",
"569 269 OFFCURVE",
"572 269 CURVE SMOOTH",
"576 269 OFFCURVE",
"579 266 OFFCURVE",
"582 266 CURVE",
"582 267 OFFCURVE",
"582 268 OFFCURVE",
"584 269 CURVE",
"593 269 OFFCURVE",
"606 273 OFFCURVE",
"610 273 CURVE SMOOTH",
"614 273 OFFCURVE",
"614 270 OFFCURVE",
"618 270 CURVE SMOOTH",
"622 270 OFFCURVE",
"651 275 OFFCURVE",
"667 279 CURVE",
"667 280 OFFCURVE",
"665 282 OFFCURVE",
"665 282 CURVE",
"658 281 OFFCURVE",
"650 281 OFFCURVE",
"645 278 CURVE",
"643 280 OFFCURVE",
"642 282 OFFCURVE",
"642 283 CURVE",
"640 282 OFFCURVE",
"638 281 OFFCURVE",
"633 281 CURVE SMOOTH",
"629 281 OFFCURVE",
"591 282 OFFCURVE",
"586 282 CURVE SMOOTH",
"581 282 OFFCURVE",
"580 285 OFFCURVE",
"578 285 CURVE SMOOTH",
"563 286 OFFCURVE",
"542 287 OFFCURVE",
"527 287 CURVE SMOOTH",
"520 287 OFFCURVE",
"507 289 OFFCURVE",
"504 289 CURVE SMOOTH",
"499 289 OFFCURVE",
"480 286 OFFCURVE",
"476 286 CURVE SMOOTH",
"471 286 LINE SMOOTH",
"467 286 OFFCURVE",
"449 288 OFFCURVE",
"445 288 CURVE SMOOTH",
"440 288 OFFCURVE",
"424 283 OFFCURVE",
"419 283 CURVE SMOOTH",
"369 284 LINE",
"382 303 OFFCURVE",
"488 396 OFFCURVE",
"504 405 CURVE",
"504 405 OFFCURVE",
"538 432 OFFCURVE",
"541 433 CURVE",
"566 447 LINE SMOOTH",
"572 451 OFFCURVE",
"577 456 OFFCURVE",
"582 459 CURVE SMOOTH",
"603 473 OFFCURVE",
"625 485 OFFCURVE",
"646 497 CURVE",
"651 496 LINE",
"650 490 OFFCURVE",
"692 486 OFFCURVE",
"695 486 CURVE SMOOTH",
"699 486 LINE SMOOTH",
"702 486 OFFCURVE",
"709 484 OFFCURVE",
"711 480 CURVE",
"712 480 LINE",
"713 479 LINE",
"747 476 OFFCURVE",
"779 458 OFFCURVE",
"813 461 CURVE SMOOTH",
"815 461 OFFCURVE",
"817 461 OFFCURVE",
"818 462 CURVE",
"820 462 LINE",
"820 460 OFFCURVE",
"822 460 OFFCURVE",
"822 460 CURVE",
"831 457 OFFCURVE",
"841 459 OFFCURVE",
"850 458 CURVE",
"857 456 OFFCURVE",
"864 456 OFFCURVE",
"870 456 CURVE SMOOTH",
"913 459 OFFCURVE",
"1000 499 OFFCURVE",
"1013 564 CURVE",
"1006 564 OFFCURVE",
"1002 554 OFFCURVE",
"997 549 CURVE SMOOTH",
"970 522 OFFCURVE",
"910 508 OFFCURVE",
"879 506 CURVE",
"875 505 OFFCURVE",
"870 508 OFFCURVE",
"867 505 CURVE",
"851 508 OFFCURVE",
"836 513 OFFCURVE",
"820 512 CURVE SMOOTH",
"816 512 OFFCURVE",
"812 511 OFFCURVE",
"809 509 CURVE",
"809 508 LINE",
"806 509 OFFCURVE",
"808 513 OFFCURVE",
"800 514 CURVE SMOOTH",
"791 516 OFFCURVE",
"788 520 OFFCURVE",
"779 519 CURVE SMOOTH",
"770 519 LINE",
"770 524 LINE",
"765 525 OFFCURVE",
"764 523 OFFCURVE",
"759 525 CURVE",
"752 523 LINE",
"751 521 LINE",
"751 522 LINE",
"747 523 OFFCURVE",
"746 528 OFFCURVE",
"742 528 CURVE SMOOTH",
"741 528 OFFCURVE",
"741 527 OFFCURVE",
"740 527 CURVE",
"740 527 OFFCURVE",
"739 527 OFFCURVE",
"739 526 CURVE",
"736 527 OFFCURVE",
"734 531 OFFCURVE",
"731 532 CURVE",
"731 527 LINE",
"730 528 OFFCURVE",
"730 527 OFFCURVE",
"730 527 CURVE",
"729 532 LINE",
"726 532 LINE SMOOTH",
"723 532 OFFCURVE",
"719 530 OFFCURVE",
"718 536 CURVE",
"720 537 OFFCURVE",
"723 537 OFFCURVE",
"725 537 CURVE",
"727 540 LINE",
"741 540 OFFCURVE",
"782 574 OFFCURVE",
"807 574 CURVE SMOOTH",
"833 574 OFFCURVE",
"845 567 OFFCURVE",
"851 548 CURVE",
"855 523 OFFCURVE",
"872 534 OFFCURVE",
"872 541 CURVE SMOOTH",
"872 563 OFFCURVE",
"827 590 OFFCURVE",
"811 605 CURVE SMOOTH",
"800 616 OFFCURVE",
"791 621 OFFCURVE",
"775 621 CURVE SMOOTH",
"756 621 OFFCURVE",
"714 617 OFFCURVE",
"705 608 CURVE SMOOTH",
"698 601 OFFCURVE",
"651 597 OFFCURVE",
"658 584 CURVE SMOOTH",
"661 578 OFFCURVE",
"651 574 OFFCURVE",
"645 574 CURVE SMOOTH",
"637 574 OFFCURVE",
"612 562 OFFCURVE",
"590 550 CURVE",
"586 551 OFFCURVE",
"583 553 OFFCURVE",
"581 554 CURVE",
"578 551 LINE",
"568 553 OFFCURVE",
"558 561 OFFCURVE",
"548 560 CURVE SMOOTH",
"547 560 OFFCURVE",
"544 559 OFFCURVE",
"544 559 CURVE",
"544 562 OFFCURVE",
"528 563 OFFCURVE",
"524 565 CURVE",
"523 565 OFFCURVE",
"521 563 OFFCURVE",
"521 563 CURVE",
"521 567 OFFCURVE",
"507 570 OFFCURVE",
"505 570 CURVE SMOOTH",
"483 568 OFFCURVE",
"457 576 OFFCURVE",
"436 580 CURVE",
"435 576 LINE",
"429 577 OFFCURVE",
"423 581 OFFCURVE",
"417 580 CURVE SMOOTH",
"416 580 OFFCURVE",
"414 580 OFFCURVE",
"412 578 CURVE",
"410 579 OFFCURVE",
"405 581 OFFCURVE",
"402 581 CURVE SMOOTH",
"400 581 OFFCURVE",
"398 580 OFFCURVE",
"397 578 CURVE",
"390 579 OFFCURVE",
"380 583 OFFCURVE",
"374 580 CURVE",
"369 580 OFFCURVE",
"364 581 OFFCURVE",
"360 581 CURVE SMOOTH",
"356 581 OFFCURVE",
"353 579 OFFCURVE",
"350 577 CURVE",
"344 578 OFFCURVE",
"337 580 OFFCURVE",
"332 576 CURVE",
"332 575 LINE",
"314 577 OFFCURVE",
"206 550 OFFCURVE",
"197 533 CURVE",
"197 532 LINE",
"176 534 OFFCURVE",
"125 488 OFFCURVE",
"108 479 CURVE",
"107 477 OFFCURVE",
"83 455 OFFCURVE",
"80 452 CURVE SMOOTH",
"67 437 OFFCURVE",
"53 425 OFFCURVE",
"41 408 CURVE SMOOTH",
"2 352 OFFCURVE",
"-36 263 OFFCURVE",
"-37 187 CURVE SMOOTH",
"-37 173 OFFCURVE",
"-36 152 OFFCURVE",
"-27 144 CURVE",
"-24 147 LINE",
"-19 147 OFFCURVE",
"-19 136 OFFCURVE",
"-14 132 CURVE",
"-13 132 OFFCURVE",
"-12 134 OFFCURVE",
"-12 135 CURVE SMOOTH",
"-12 144 OFFCURVE",
"-19 166 OFFCURVE",
"-18 185 CURVE SMOOTH",
"-16 347 OFFCURVE",
"103 482 OFFCURVE",
"212 516 CURVE",
"214 527 OFFCURVE",
"266 529 OFFCURVE",
"275 543 CURVE",
"280 542 OFFCURVE",
"285 544 OFFCURVE",
"290 544 CURVE",
"291 549 OFFCURVE",
"318 552 OFFCURVE",
"323 553 CURVE SMOOTH",
"325 553 LINE",
"326 557 LINE",
"330 556 OFFCURVE",
"334 555 OFFCURVE",
"337 555 CURVE SMOOTH",
"340 555 OFFCURVE",
"343 556 OFFCURVE",
"345 559 CURVE",
"350 558 OFFCURVE",
"355 556 OFFCURVE",
"361 556 CURVE SMOOTH",
"373 557 OFFCURVE",
"386 551 OFFCURVE",
"398 552 CURVE SMOOTH",
"408 553 OFFCURVE",
"411 553 OFFCURVE",
"419 551 CURVE",
"421 556 LINE",
"422 555 LINE",
"424 555 OFFCURVE",
"425 554 OFFCURVE",
"427 556 CURVE",
"428 551 LINE",
"434 549 OFFCURVE",
"441 548 OFFCURVE",
"447 549 CURVE SMOOTH",
"451 549 OFFCURVE",
"455 550 OFFCURVE",
"459 553 CURVE",
"459 554 LINE",
"460 554 LINE",
"459 547 LINE",
"465 547 LINE",
"467 550 LINE",
"472 546 LINE",
"473 546 OFFCURVE",
"475 545 OFFCURVE",
"476 544 CURVE",
"477 550 LINE",
"480 550 LINE",
"479 542 LINE",
"482 541 OFFCURVE",
"486 544 OFFCURVE",
"488 548 CURVE",
"493 546 OFFCURVE",
"498 536 OFFCURVE",
"505 536 CURVE SMOOTH",
"506 536 OFFCURVE",
"507 537 OFFCURVE",
"508 538 CURVE",
"517 534 OFFCURVE",
"525 534 OFFCURVE",
"534 533 CURVE",
"536 531 OFFCURVE",
"538 529 OFFCURVE",
"540 528 CURVE",
"542 534 LINE",
"550 530 LINE",
"549 529 LINE",
"547 529 LINE",
"547 525 LINE",
"548 525 LINE",
"474 476 LINE SMOOTH",
"468 472 OFFCURVE",
"460 468 OFFCURVE",
"454 463 CURVE SMOOTH",
"427 445 OFFCURVE",
"404 419 OFFCURVE",
"379 396 CURVE SMOOTH",
"340 359 LINE SMOOTH",
"334 354 OFFCURVE",
"328 350 OFFCURVE",
"323 345 CURVE SMOOTH",
"303 325 OFFCURVE",
"287 302 OFFCURVE",
"269 281 CURVE",
"256 280 OFFCURVE",
"244 278 OFFCURVE",
"242 278 CURVE SMOOTH",
"237 278 OFFCURVE",
"237 281 OFFCURVE",
"233 282 CURVE",
"231 248 LINE",
"237 236 LINE",
"234 231 OFFCURVE",
"228 230 OFFCURVE",
"225 226 CURVE SMOOTH",
"217 217 OFFCURVE",
"211 198 OFFCURVE",
"202 191 CURVE",
"202 184 LINE",
"199 177 OFFCURVE",
"189 170 OFFCURVE",
"189 161 CURVE SMOOTH",
"189 159 OFFCURVE",
"190 157 OFFCURVE",
"191 155 CURVE",
"193 157 OFFCURVE",
"194 160 OFFCURVE",
"194 162 CURVE",
"196 162 LINE",
"197 161 LINE",
"197 155 OFFCURVE",
"178 130 OFFCURVE",
"173 126 CURVE",
"173 125 LINE",
"172 125 LINE",
"172 135 OFFCURVE",
"179 142 OFFCURVE",
"182 151 CURVE",
"180 151 LINE",
"180 147 OFFCURVE",
"171 134 OFFCURVE",
"169 129 CURVE SMOOTH",
"158 107 OFFCURVE",
"147 74 OFFCURVE",
"147 49 CURVE SMOOTH",
"147 25 OFFCURVE",
"154 21 OFFCURVE",
"167 3 CURVE SMOOTH",
"171 -2 OFFCURVE",
"173 -8 OFFCURVE",
"178 -12 CURVE",
"179 -12 OFFCURVE",
"180 -13 OFFCURVE",
"181 -14 CURVE",
"148 -19 LINE SMOOTH",
"131 -22 OFFCURVE",
"69 -37 OFFCURVE",
"61 -39 CURVE SMOOTH",
"30 -44 OFFCURVE",
"50 -69 OFFCURVE",
"91 -65 CURVE",
"174 -46 OFFCURVE",
"197 -27 OFFCURVE",
"289 -19 CURVE SMOOTH",
"316 -15 LINE",
"368 -14 OFFCURVE",
"476 -7 OFFCURVE",
"526 -9 CURVE SMOOTH",
"540 -10 OFFCURVE",
"552 -22 OFFCURVE",
"571 -16 CURVE",
"576 -22 OFFCURVE",
"586 -33 OFFCURVE",
"594 -35 CURVE SMOOTH",
"609 -39 OFFCURVE",
"624 -35 OFFCURVE",
"642 -36 CURVE",
"641 -37 OFFCURVE",
"641 -39 OFFCURVE",
"641 -40 CURVE",
"646 -36 OFFCURVE",
"651 -49 OFFCURVE",
"658 -47 CURVE",
"656 -51 LINE",
"672 -55 LINE",
"674 -59 OFFCURVE",
"675 -63 OFFCURVE",
"678 -66 CURVE",
"686 -78 OFFCURVE",
"703 -87 OFFCURVE",
"695 -108 CURVE SMOOTH",
"692 -117 OFFCURVE",
"682 -127 OFFCURVE",
"677 -137 CURVE",
"670 -144 LINE",
"677 -143 LINE",
"684 -137 OFFCURVE",
"697 -114 OFFCURVE",
"703 -106 CURVE",
"707 -92 LINE SMOOTH",
"710 -80 OFFCURVE",
"710 -72 OFFCURVE",
"709 -63 CURVE SMOOTH"
);
},
{
closed = 1;
nodes = (
"1162 750 OFFCURVE",
"1161 763 OFFCURVE",
"1158 766 CURVE",
"1156 767 OFFCURVE",
"1158 769 OFFCURVE",
"1158 769 CURVE",
"1143 783 LINE",
"1119 804 LINE",
"1115 807 LINE",
"1112 805 OFFCURVE",
"1086 838 OFFCURVE",
"1081 834 CURVE",
"1081 833 LINE",
"1078 836 LINE",
"1078 836 OFFCURVE",
"1026 920 OFFCURVE",
"998 935 CURVE",
"961 920 OFFCURVE",
"848 836 OFFCURVE",
"848 836 CURVE",
"843 833 LINE",
"843 834 LINE",
"840 838 OFFCURVE",
"793 805 OFFCURVE",
"792 807 CURVE",
"785 804 LINE",
"747 783 LINE",
"724 769 LINE",
"723 769 OFFCURVE",
"724 767 OFFCURVE",
"722 766 CURVE SMOOTH",
"717 763 OFFCURVE",
"707 750 OFFCURVE",
"712 752 CURVE SMOOTH",
"714 753 OFFCURVE",
"712 754 OFFCURVE",
"715 755 CURVE",
"716 756 OFFCURVE",
"724 758 OFFCURVE",
"728 760 CURVE",
"730 760 OFFCURVE",
"730 760 OFFCURVE",
"730 759 CURVE",
"732 760 OFFCURVE",
"732 762 OFFCURVE",
"733 763 CURVE",
"748 768 LINE",
"749 768 OFFCURVE",
"750 767 OFFCURVE",
"751 766 CURVE",
"757 769 OFFCURVE",
"769 776 OFFCURVE",
"769 776 CURVE",
"775 778 LINE",
"855 818 LINE",
"856 819 OFFCURVE",
"857 821 OFFCURVE",
"859 822 CURVE",
"860 822 LINE SMOOTH",
"862 822 OFFCURVE",
"865 822 OFFCURVE",
"868 823 CURVE",
"868 823 OFFCURVE",
"939 853 OFFCURVE",
"979 876 CURVE",
"1004 853 OFFCURVE",
"1049 823 OFFCURVE",
"1049 823 CURVE",
"1051 822 OFFCURVE",
"1055 822 OFFCURVE",
"1057 822 CURVE",
"1059 818 LINE",
"1059 818 OFFCURVE",
"1092 793 OFFCURVE",
"1093 793 CURVE",
"1103 785 OFFCURVE",
"1112 778 OFFCURVE",
"1112 778 CURVE",
"1117 776 LINE",
"1117 776 OFFCURVE",
"1125 769 OFFCURVE",
"1129 766 CURVE",
"1130 767 OFFCURVE",
"1132 768 OFFCURVE",
"1133 768 CURVE",
"1144 763 LINE",
"1145 762 OFFCURVE",
"1144 760 OFFCURVE",
"1145 759 CURVE",
"1146 760 OFFCURVE",
"1146 760 OFFCURVE",
"1147 760 CURVE",
"1150 758 OFFCURVE",
"1157 756 OFFCURVE",
"1158 755 CURVE SMOOTH",
"1159 754 OFFCURVE",
"1158 753 OFFCURVE",
"1159 752 CURVE SMOOTH"
);
}
);
width = 725;
}
);
note = Ecircumflex;
unicode = 00CA;
},
